<ttFont>
<head>
    <!-- Most of this table will be recalculated by the compiler -->
    <tableVersion value="1.0"/>
    <fontRevision value="1.0"/>
    <checkSumAdjustment value="0xa763247f"/>
    <magicNumber value="0x5f0f3cf5"/>
    <flags value="00000000 00011011"/>
    <unitsPerEm value="1000"/>
    <created value="Sat Dec  6 13:43:37 2025"/>
    <modified value="Sat Dec  6 13:50:25 2025"/>
    <xMin value="0"/>
    <yMin value="-233"/>
    <xMax value="669"/>
    <yMax value="696"/>
    <macStyle value="00000000 00000010"/>
    <lowestRecPPEM value="6"/>
    <fontDirectionHint value="2"/>
    <indexToLocFormat value="0"/>
    <glyphDataFormat value="0"/>
  </head>
    <TTGlyph name="A" xMin="34" yMin="0" xMax="506" yMax="623">
      <contour>
        <pt x="454" y="61" on="1"/>
        <pt x="474" y="61" on="0"/>
        <pt x="506" y="54" on="0"/>
        <pt x="506" y="33" on="1"/>
        <pt x="506" y="21" on="0"/>
        <pt x="497" y="7" on="0"/>
        <pt x="484" y="1" on="0"/>
        <pt x="468" y="0" on="0"/>
        <pt x="462" y="0" on="1"/>
        <pt x="360" y="0" on="1"/>
        <pt x="354" y="0" on="0"/>
        <pt x="339" y="1" on="0"/>
        <pt x="327" y="6" on="0"/>
        <pt x="318" y="18" on="0"/>
        <pt x="318" y="28" on="1"/>
        <pt x="318" y="39" on="0"/>
        <pt x="327" y="55" on="0"/>
        <pt x="337" y="59" on="1"/>
        <pt x="341" y="61" on="0"/>
        <pt x="372" y="61" on="0"/>
        <pt x="383" y="61" on="1"/>
        <pt x="385" y="165" on="1"/>
        <pt x="223" y="165" on="1"/>
        <pt x="173" y="61" on="1"/>
        <pt x="191" y="61" on="0"/>
        <pt x="223" y="54" on="0"/>
        <pt x="223" y="33" on="1"/>
        <pt x="223" y="21" on="0"/>
        <pt x="214" y="7" on="0"/>
        <pt x="200" y="1" on="0"/>
        <pt x="185" y="0" on="0"/>
        <pt x="179" y="0" on="1"/>
        <pt x="77" y="0" on="1"/>
        <pt x="71" y="0" on="0"/>
        <pt x="57" y="1" on="0"/>
        <pt x="43" y="6" on="0"/>
        <pt x="34" y="18" on="0"/>
        <pt x="34" y="28" on="1"/>
        <pt x="34" y="29" on="0"/>
        <pt x="40" y="53" on="0"/>
        <pt x="53" y="58" on="1"/>
        <pt x="57" y="60" on="0"/>
        <pt x="89" y="61" on="0"/>
        <pt x="102" y="61" on="1"/>
        <pt x="357" y="590" on="1"/>
        <pt x="369" y="615" on="0"/>
        <pt x="400" y="623" on="0"/>
        <pt x="418" y="623" on="1"/>
        <pt x="438" y="623" on="0"/>
        <pt x="463" y="614" on="0"/>
        <pt x="463" y="588" on="1"/>
      </contour>
      <contour>
        <pt x="253" y="226" on="1"/>
        <pt x="385" y="226" on="1"/>
        <pt x="398" y="539" on="1"/>
        <pt x="397" y="540" on="1"/>
      </contour>
    </TTGlyph>
    <TTGlyph name="AE" xMin="30" yMin="0" xMax="638" yMax="611">
      <contour>
        <pt x="336" y="61" on="1"/>
        <pt x="458" y="61" on="1"/>
        <pt x="475" y="128" on="1"/>
        <pt x="480" y="149" on="0"/>
        <pt x="491" y="171" on="0"/>
        <pt x="508" y="171" on="1"/>
        <pt x="520" y="171" on="0"/>
        <pt x="536" y="154" on="0"/>
        <pt x="536" y="143" on="1"/>
        <pt x="536" y="140" on="0"/>
        <pt x="527" y="101" on="0"/>
        <pt x="515" y="55" on="0"/>
        <pt x="505" y="17" on="0"/>
        <pt x="504" y="15" on="1"/>
        <pt x="498" y="4" on="0"/>
        <pt x="480" y="0" on="0"/>
        <pt x="467" y="0" on="1"/>
        <pt x="272" y="0" on="1"/>
        <pt x="267" y="0" on="0"/>
        <pt x="253" y="1" on="0"/>
        <pt x="240" y="6" on="0"/>
        <pt x="231" y="18" on="0"/>
        <pt x="231" y="28" on="1"/>
        <pt x="231" y="40" on="0"/>
        <pt x="240" y="54" on="0"/>
        <pt x="254" y="60" on="0"/>
        <pt x="271" y="61" on="0"/>
        <pt x="279" y="61" on="1"/>
        <pt x="309" y="183" on="1"/>
        <pt x="199" y="183" on="1"/>
        <pt x="144" y="61" on="1"/>
        <pt x="148" y="61" on="0"/>
        <pt x="161" y="60" on="0"/>
        <pt x="173" y="55" on="0"/>
        <pt x="182" y="44" on="0"/>
        <pt x="182" y="33" on="1"/>
        <pt x="182" y="21" on="0"/>
        <pt x="173" y="7" on="0"/>
        <pt x="161" y="1" on="0"/>
        <pt x="147" y="0" on="0"/>
        <pt x="141" y="0" on="1"/>
        <pt x="70" y="0" on="1"/>
        <pt x="65" y="0" on="0"/>
        <pt x="51" y="1" on="0"/>
        <pt x="39" y="6" on="0"/>
        <pt x="30" y="18" on="0"/>
        <pt x="30" y="28" on="1"/>
        <pt x="30" y="53" on="0"/>
        <pt x="61" y="61" on="0"/>
        <pt x="87" y="61" on="1"/>
        <pt x="307" y="550" on="1"/>
        <pt x="295" y="550" on="0"/>
        <pt x="282" y="558" on="0"/>
        <pt x="275" y="568" on="0"/>
        <pt x="274" y="577" on="0"/>
        <pt x="274" y="578" on="1"/>
        <pt x="274" y="590" on="0"/>
        <pt x="283" y="604" on="0"/>
        <pt x="296" y="610" on="0"/>
        <pt x="310" y="611" on="0"/>
        <pt x="316" y="611" on="1"/>
        <pt x="597" y="611" on="1"/>
        <pt x="602" y="611" on="0"/>
        <pt x="616" y="610" on="0"/>
        <pt x="629" y="605" on="0"/>
        <pt x="638" y="594" on="0"/>
        <pt x="638" y="583" on="1"/>
        <pt x="638" y="580" on="0"/>
        <pt x="636" y="571" on="0"/>
        <pt x="635" y="568" on="1"/>
        <pt x="614" y="484" on="1"/>
        <pt x="612" y="478" on="0"/>
        <pt x="602" y="456" on="0"/>
        <pt x="585" y="456" on="1"/>
        <pt x="573" y="456" on="0"/>
        <pt x="557" y="473" on="0"/>
        <pt x="557" y="484" on="1"/>
        <pt x="557" y="485" on="0"/>
        <pt x="560" y="500" on="0"/>
        <pt x="565" y="520" on="0"/>
        <pt x="570" y="542" on="0"/>
        <pt x="572" y="550" on="1"/>
        <pt x="458" y="550" on="1"/>
        <pt x="408" y="347" on="1"/>
        <pt x="515" y="347" on="1"/>
        <pt x="520" y="347" on="0"/>
        <pt x="534" y="346" on="0"/>
        <pt x="547" y="341" on="0"/>
        <pt x="556" y="330" on="0"/>
        <pt x="556" y="319" on="1"/>
        <pt x="556" y="307" on="0"/>
        <pt x="547" y="293" on="0"/>
        <pt x="534" y="287" on="0"/>
        <pt x="520" y="286" on="0"/>
        <pt x="514" y="286" on="1"/>
        <pt x="392" y="286" on="1"/>
      </contour>
      <contour>
        <pt x="226" y="244" on="1"/>
        <pt x="324" y="244" on="1"/>
        <pt x="401" y="550" on="1"/>
        <pt x="364" y="550" on="1"/>
      </contour>
    </TTGlyph>
    <TTGlyph name="B" xMin="30" yMin="0" xMax="580" yMax="611">
      <contour>
        <pt x="442" y="611" on="1"/>
        <pt x="478" y="611" on="0"/>
        <pt x="530" y="591" on="0"/>
        <pt x="564" y="557" on="0"/>
        <pt x="580" y="513" on="0"/>
        <pt x="580" y="490" on="1"/>
        <pt x="580" y="457" on="0"/>
        <pt x="553" y="401" on="0"/>
        <pt x="510" y="357" on="0"/>
        <pt x="458" y="328" on="0"/>
        <pt x="434" y="320" on="1"/>
        <pt x="451" y="316" on="0"/>
        <pt x="485" y="298" on="0"/>
        <pt x="512" y="270" on="0"/>
        <pt x="529" y="230" on="0"/>
        <pt x="529" y="203" on="1"/>
        <pt x="529" y="169" on="0"/>
        <pt x="495" y="96" on="0"/>
        <pt x="437" y="38" on="0"/>
        <pt x="357" y="0" on="0"/>
        <pt x="310" y="0" on="1"/>
        <pt x="70" y="0" on="1"/>
        <pt x="65" y="0" on="0"/>
        <pt x="51" y="1" on="0"/>
        <pt x="39" y="6" on="0"/>
        <pt x="30" y="18" on="0"/>
        <pt x="30" y="28" on="1"/>
        <pt x="30" y="40" on="0"/>
        <pt x="39" y="54" on="0"/>
        <pt x="52" y="60" on="0"/>
        <pt x="66" y="61" on="0"/>
        <pt x="72" y="61" on="1"/>
        <pt x="106" y="61" on="1"/>
        <pt x="228" y="550" on="1"/>
        <pt x="208" y="550" on="1"/>
        <pt x="203" y="550" on="0"/>
        <pt x="189" y="551" on="0"/>
        <pt x="177" y="556" on="0"/>
        <pt x="168" y="568" on="0"/>
        <pt x="168" y="578" on="1"/>
        <pt x="168" y="590" on="0"/>
        <pt x="177" y="604" on="0"/>
        <pt x="189" y="610" on="0"/>
        <pt x="203" y="611" on="0"/>
        <pt x="209" y="611" on="1"/>
      </contour>
      <contour>
        <pt x="248" y="348" on="1"/>
        <pt x="351" y="348" on="1"/>
        <pt x="390" y="348" on="0"/>
        <pt x="449" y="374" on="0"/>
        <pt x="490" y="413" on="0"/>
        <pt x="510" y="458" on="0"/>
        <pt x="510" y="477" on="1"/>
        <pt x="510" y="480" on="0"/>
        <pt x="507" y="504" on="0"/>
        <pt x="491" y="529" on="0"/>
        <pt x="456" y="550" on="0"/>
        <pt x="423" y="550" on="1"/>
        <pt x="298" y="550" on="1"/>
      </contour>
      <contour>
        <pt x="303" y="61" on="1"/>
        <pt x="337" y="61" on="0"/>
        <pt x="394" y="84" on="0"/>
        <pt x="436" y="122" on="0"/>
        <pt x="460" y="172" on="0"/>
        <pt x="460" y="199" on="1"/>
        <pt x="460" y="209" on="0"/>
        <pt x="454" y="239" on="0"/>
        <pt x="436" y="267" on="0"/>
        <pt x="400" y="287" on="0"/>
        <pt x="370" y="287" on="1"/>
        <pt x="233" y="287" on="1"/>
        <pt x="176" y="61" on="1"/>
      </contour>
    </TTGlyph>
    <TTGlyph name="C" xMin="104" yMin="-11" xMax="634" yMax="622">
      <contour>
        <pt x="594" y="431" on="1"/>
        <pt x="589" y="410" on="0"/>
        <pt x="570" y="401" on="0"/>
        <pt x="558" y="401" on="1"/>
        <pt x="556" y="401" on="0"/>
        <pt x="544" y="402" on="0"/>
        <pt x="532" y="407" on="0"/>
        <pt x="523" y="419" on="0"/>
        <pt x="523" y="430" on="1"/>
        <pt x="523" y="435" on="0"/>
        <pt x="525" y="442" on="0"/>
        <pt x="525" y="457" on="1"/>
        <pt x="525" y="505" on="0"/>
        <pt x="476" y="561" on="0"/>
        <pt x="433" y="561" on="1"/>
        <pt x="387" y="561" on="0"/>
        <pt x="295" y="500" on="0"/>
        <pt x="220" y="402" on="0"/>
        <pt x="173" y="277" on="0"/>
        <pt x="173" y="213" on="1"/>
        <pt x="173" y="182" on="0"/>
        <pt x="187" y="123" on="0"/>
        <pt x="217" y="78" on="0"/>
        <pt x="262" y="50" on="0"/>
        <pt x="293" y="50" on="1"/>
        <pt x="305" y="50" on="0"/>
        <pt x="350" y="59" on="0"/>
        <pt x="400" y="87" on="0"/>
        <pt x="447" y="138" on="0"/>
        <pt x="460" y="180" on="1"/>
        <pt x="465" y="196" on="0"/>
        <pt x="486" y="201" on="0"/>
        <pt x="494" y="201" on="1"/>
        <pt x="528" y="201" on="0"/>
        <pt x="528" y="173" on="1"/>
        <pt x="528" y="153" on="0"/>
        <pt x="494" y="91" on="0"/>
        <pt x="432" y="32" on="0"/>
        <pt x="343" y="-11" on="0"/>
        <pt x="287" y="-11" on="1"/>
        <pt x="244" y="-11" on="0"/>
        <pt x="175" y="24" on="0"/>
        <pt x="129" y="85" on="0"/>
        <pt x="104" y="166" on="0"/>
        <pt x="104" y="212" on="1"/>
        <pt x="104" y="288" on="0"/>
        <pt x="160" y="435" on="0"/>
        <pt x="251" y="551" on="0"/>
        <pt x="369" y="622" on="0"/>
        <pt x="430" y="622" on="1"/>
        <pt x="501" y="622" on="0"/>
        <pt x="551" y="573" on="1"/>
        <pt x="560" y="584" on="0"/>
        <pt x="565" y="593" on="0"/>
        <pt x="572" y="602" on="1"/>
        <pt x="580" y="613" on="0"/>
        <pt x="592" y="622" on="0"/>
        <pt x="604" y="622" on="1"/>
        <pt x="621" y="622" on="0"/>
        <pt x="634" y="602" on="0"/>
        <pt x="634" y="594" on="1"/>
        <pt x="634" y="592" on="0"/>
        <pt x="632" y="582" on="0"/>
        <pt x="631" y="580" on="1"/>
      </contour>
    </TTGlyph>
    <TTGlyph name="D" xMin="26" yMin="0" xMax="575" yMax="611">
      <contour>
        <pt x="419" y="611" on="1"/>
        <pt x="464" y="611" on="0"/>
        <pt x="524" y="572" on="0"/>
        <pt x="560" y="512" on="0"/>
        <pt x="575" y="440" on="0"/>
        <pt x="575" y="407" on="1"/>
        <pt x="575" y="333" on="0"/>
        <pt x="524" y="187" on="0"/>
        <pt x="438" y="72" on="0"/>
        <pt x="327" y="0" on="0"/>
        <pt x="267" y="0" on="1"/>
        <pt x="67" y="0" on="1"/>
        <pt x="62" y="0" on="0"/>
        <pt x="48" y="1" on="0"/>
        <pt x="35" y="6" on="0"/>
        <pt x="26" y="18" on="0"/>
        <pt x="26" y="28" on="1"/>
        <pt x="26" y="40" on="0"/>
        <pt x="35" y="54" on="0"/>
        <pt x="48" y="60" on="0"/>
        <pt x="62" y="61" on="0"/>
        <pt x="68" y="61" on="1"/>
        <pt x="97" y="61" on="1"/>
        <pt x="219" y="550" on="1"/>
        <pt x="195" y="550" on="0"/>
        <pt x="164" y="557" on="0"/>
        <pt x="164" y="578" on="1"/>
        <pt x="164" y="590" on="0"/>
        <pt x="173" y="604" on="0"/>
        <pt x="185" y="610" on="0"/>
        <pt x="199" y="611" on="0"/>
        <pt x="205" y="611" on="1"/>
      </contour>
      <contour>
        <pt x="167" y="61" on="1"/>
        <pt x="263" y="61" on="1"/>
        <pt x="313" y="61" on="0"/>
        <pt x="401" y="122" on="0"/>
        <pt x="466" y="217" on="0"/>
        <pt x="504" y="334" on="0"/>
        <pt x="504" y="390" on="1"/>
        <pt x="504" y="404" on="0"/>
        <pt x="498" y="457" on="0"/>
        <pt x="474" y="510" on="0"/>
        <pt x="427" y="550" on="0"/>
        <pt x="385" y="550" on="1"/>
        <pt x="289" y="550" on="1"/>
      </contour>
    </TTGlyph>
    <TTGlyph name="E" xMin="33" yMin="0" xMax="627" yMax="611">
      <contour>
        <pt x="182" y="61" on="1"/>
        <pt x="448" y="61" on="1"/>
        <pt x="465" y="127" on="1"/>
        <pt x="471" y="153" on="0"/>
        <pt x="483" y="171" on="0"/>
        <pt x="504" y="171" on="1"/>
        <pt x="527" y="171" on="0"/>
        <pt x="539" y="151" on="0"/>
        <pt x="539" y="143" on="1"/>
        <pt x="539" y="140" on="0"/>
        <pt x="530" y="101" on="0"/>
        <pt x="518" y="55" on="0"/>
        <pt x="508" y="17" on="0"/>
        <pt x="507" y="15" on="1"/>
        <pt x="501" y="4" on="0"/>
        <pt x="483" y="0" on="0"/>
        <pt x="470" y="0" on="1"/>
        <pt x="74" y="0" on="1"/>
        <pt x="69" y="0" on="0"/>
        <pt x="55" y="1" on="0"/>
        <pt x="42" y="6" on="0"/>
        <pt x="33" y="18" on="0"/>
        <pt x="33" y="28" on="1"/>
        <pt x="33" y="40" on="0"/>
        <pt x="42" y="54" on="0"/>
        <pt x="55" y="60" on="0"/>
        <pt x="69" y="61" on="0"/>
        <pt x="75" y="61" on="1"/>
        <pt x="112" y="61" on="1"/>
        <pt x="234" y="550" on="1"/>
        <pt x="211" y="550" on="1"/>
        <pt x="206" y="550" on="0"/>
        <pt x="192" y="551" on="0"/>
        <pt x="180" y="556" on="0"/>
        <pt x="171" y="568" on="0"/>
        <pt x="171" y="578" on="1"/>
        <pt x="171" y="590" on="0"/>
        <pt x="180" y="604" on="0"/>
        <pt x="192" y="610" on="0"/>
        <pt x="206" y="611" on="0"/>
        <pt x="212" y="611" on="1"/>
        <pt x="586" y="611" on="1"/>
        <pt x="591" y="611" on="0"/>
        <pt x="605" y="610" on="0"/>
        <pt x="618" y="605" on="0"/>
        <pt x="627" y="594" on="0"/>
        <pt x="627" y="583" on="1"/>
        <pt x="627" y="580" on="0"/>
        <pt x="625" y="571" on="0"/>
        <pt x="624" y="568" on="1"/>
        <pt x="603" y="484" on="1"/>
        <pt x="598" y="466" on="0"/>
        <pt x="582" y="456" on="0"/>
        <pt x="568" y="456" on="1"/>
        <pt x="566" y="456" on="0"/>
        <pt x="554" y="457" on="0"/>
        <pt x="542" y="462" on="0"/>
        <pt x="533" y="474" on="0"/>
        <pt x="533" y="484" on="1"/>
        <pt x="533" y="485" on="0"/>
        <pt x="536" y="500" on="0"/>
        <pt x="541" y="520" on="0"/>
        <pt x="546" y="542" on="0"/>
        <pt x="548" y="550" on="1"/>
        <pt x="304" y="550" on="1"/>
        <pt x="254" y="347" on="1"/>
        <pt x="384" y="347" on="1"/>
        <pt x="389" y="366" on="0"/>
        <pt x="395" y="388" on="0"/>
        <pt x="403" y="400" on="0"/>
        <pt x="416" y="404" on="0"/>
        <pt x="426" y="404" on="1"/>
        <pt x="428" y="404" on="0"/>
        <pt x="440" y="403" on="0"/>
        <pt x="452" y="398" on="0"/>
        <pt x="461" y="387" on="0"/>
        <pt x="461" y="376" on="1"/>
        <pt x="461" y="371" on="0"/>
        <pt x="459" y="363" on="0"/>
        <pt x="458" y="358" on="1"/>
        <pt x="433" y="259" on="1"/>
        <pt x="428" y="240" on="0"/>
        <pt x="411" y="229" on="0"/>
        <pt x="397" y="229" on="1"/>
        <pt x="374" y="229" on="0"/>
        <pt x="362" y="249" on="0"/>
        <pt x="362" y="257" on="1"/>
        <pt x="362" y="264" on="0"/>
        <pt x="366" y="281" on="0"/>
        <pt x="368" y="286" on="1"/>
        <pt x="238" y="286" on="1"/>
      </contour>
    </TTGlyph>
    <TTGlyph name="F" xMin="35" yMin="0" xMax="637" yMax="611">
      <contour>
        <pt x="187" y="61" on="1"/>
        <pt x="231" y="61" on="1"/>
        <pt x="236" y="61" on="0"/>
        <pt x="250" y="60" on="0"/>
        <pt x="263" y="55" on="0"/>
        <pt x="272" y="44" on="0"/>
        <pt x="272" y="33" on="1"/>
        <pt x="272" y="21" on="0"/>
        <pt x="263" y="7" on="0"/>
        <pt x="249" y="1" on="0"/>
        <pt x="235" y="0" on="0"/>
        <pt x="230" y="0" on="1"/>
        <pt x="76" y="0" on="1"/>
        <pt x="71" y="0" on="0"/>
        <pt x="57" y="1" on="0"/>
        <pt x="44" y="6" on="0"/>
        <pt x="35" y="18" on="0"/>
        <pt x="35" y="28" on="1"/>
        <pt x="35" y="40" on="0"/>
        <pt x="44" y="54" on="0"/>
        <pt x="57" y="60" on="0"/>
        <pt x="71" y="61" on="0"/>
        <pt x="77" y="61" on="1"/>
        <pt x="117" y="61" on="1"/>
        <pt x="239" y="550" on="1"/>
        <pt x="213" y="550" on="1"/>
        <pt x="208" y="550" on="0"/>
        <pt x="194" y="551" on="0"/>
        <pt x="182" y="556" on="0"/>
        <pt x="173" y="568" on="0"/>
        <pt x="173" y="578" on="1"/>
        <pt x="173" y="590" on="0"/>
        <pt x="182" y="604" on="0"/>
        <pt x="194" y="610" on="0"/>
        <pt x="208" y="611" on="0"/>
        <pt x="214" y="611" on="1"/>
        <pt x="596" y="611" on="1"/>
        <pt x="601" y="611" on="0"/>
        <pt x="615" y="610" on="0"/>
        <pt x="628" y="605" on="0"/>
        <pt x="637" y="594" on="0"/>
        <pt x="637" y="583" on="1"/>
        <pt x="637" y="580" on="0"/>
        <pt x="635" y="571" on="0"/>
        <pt x="634" y="568" on="1"/>
        <pt x="613" y="484" on="1"/>
        <pt x="608" y="466" on="0"/>
        <pt x="592" y="456" on="0"/>
        <pt x="578" y="456" on="1"/>
        <pt x="576" y="456" on="0"/>
        <pt x="564" y="457" on="0"/>
        <pt x="552" y="462" on="0"/>
        <pt x="543" y="474" on="0"/>
        <pt x="543" y="484" on="1"/>
        <pt x="543" y="485" on="0"/>
        <pt x="546" y="500" on="0"/>
        <pt x="551" y="520" on="0"/>
        <pt x="556" y="542" on="0"/>
        <pt x="558" y="550" on="1"/>
        <pt x="309" y="550" on="1"/>
        <pt x="256" y="336" on="1"/>
        <pt x="391" y="336" on="1"/>
        <pt x="396" y="354" on="0"/>
        <pt x="402" y="377" on="0"/>
        <pt x="410" y="389" on="0"/>
        <pt x="423" y="393" on="0"/>
        <pt x="434" y="393" on="1"/>
        <pt x="468" y="393" on="0"/>
        <pt x="468" y="365" on="1"/>
        <pt x="468" y="361" on="0"/>
        <pt x="461" y="333" on="0"/>
        <pt x="458" y="322" on="1"/>
        <pt x="456" y="314" on="0"/>
        <pt x="449" y="285" on="0"/>
        <pt x="447" y="277" on="1"/>
        <pt x="442" y="257" on="0"/>
        <pt x="435" y="234" on="0"/>
        <pt x="427" y="222" on="0"/>
        <pt x="415" y="218" on="0"/>
        <pt x="404" y="218" on="1"/>
        <pt x="381" y="218" on="0"/>
        <pt x="369" y="238" on="0"/>
        <pt x="369" y="246" on="1"/>
        <pt x="369" y="251" on="0"/>
        <pt x="374" y="270" on="0"/>
        <pt x="376" y="275" on="1"/>
        <pt x="241" y="275" on="1"/>
      </contour>
    </TTGlyph>
    <TTGlyph name="G" xMin="101" yMin="-11" xMax="599" yMax="622">
      <contour>
        <pt x="458" y="28" on="1"/>
        <pt x="453" y="10" on="0"/>
        <pt x="437" y="0" on="0"/>
        <pt x="423" y="0" on="1"/>
        <pt x="420" y="0" on="0"/>
        <pt x="407" y="1" on="0"/>
        <pt x="395" y="8" on="0"/>
        <pt x="387" y="23" on="0"/>
        <pt x="389" y="36" on="1"/>
        <pt x="380" y="29" on="0"/>
        <pt x="355" y="12" on="0"/>
        <pt x="324" y="-2" on="0"/>
        <pt x="287" y="-11" on="0"/>
        <pt x="266" y="-11" on="1"/>
        <pt x="228" y="-11" on="0"/>
        <pt x="167" y="22" on="0"/>
        <pt x="124" y="79" on="0"/>
        <pt x="101" y="159" on="0"/>
        <pt x="101" y="205" on="1"/>
        <pt x="101" y="280" on="0"/>
        <pt x="154" y="430" on="0"/>
        <pt x="241" y="548" on="0"/>
        <pt x="352" y="622" on="0"/>
        <pt x="410" y="622" on="1"/>
        <pt x="452" y="622" on="0"/>
        <pt x="505" y="591" on="0"/>
        <pt x="519" y="576" on="1"/>
        <pt x="524" y="583" on="0"/>
        <pt x="534" y="597" on="0"/>
        <pt x="539" y="604" on="1"/>
        <pt x="546" y="612" on="0"/>
        <pt x="557" y="622" on="0"/>
        <pt x="569" y="622" on="1"/>
        <pt x="586" y="622" on="0"/>
        <pt x="599" y="602" on="0"/>
        <pt x="599" y="594" on="1"/>
        <pt x="599" y="592" on="0"/>
        <pt x="597" y="582" on="0"/>
        <pt x="596" y="580" on="1"/>
        <pt x="559" y="431" on="1"/>
        <pt x="554" y="410" on="0"/>
        <pt x="535" y="401" on="0"/>
        <pt x="523" y="401" on="1"/>
        <pt x="521" y="401" on="0"/>
        <pt x="509" y="402" on="0"/>
        <pt x="497" y="407" on="0"/>
        <pt x="488" y="419" on="0"/>
        <pt x="488" y="430" on="1"/>
        <pt x="488" y="432" on="0"/>
        <pt x="491" y="454" on="0"/>
        <pt x="491" y="462" on="1"/>
        <pt x="491" y="472" on="0"/>
        <pt x="486" y="505" on="0"/>
        <pt x="470" y="537" on="0"/>
        <pt x="439" y="561" on="0"/>
        <pt x="412" y="561" on="1"/>
        <pt x="372" y="561" on="0"/>
        <pt x="286" y="499" on="0"/>
        <pt x="215" y="399" on="0"/>
        <pt x="170" y="270" on="0"/>
        <pt x="170" y="204" on="1"/>
        <pt x="170" y="175" on="0"/>
        <pt x="182" y="119" on="0"/>
        <pt x="207" y="76" on="0"/>
        <pt x="245" y="50" on="0"/>
        <pt x="271" y="50" on="1"/>
        <pt x="319" y="50" on="0"/>
        <pt x="404" y="138" on="0"/>
        <pt x="430" y="209" on="1"/>
        <pt x="396" y="209" on="1"/>
        <pt x="391" y="209" on="0"/>
        <pt x="377" y="210" on="0"/>
        <pt x="365" y="215" on="0"/>
        <pt x="356" y="227" on="0"/>
        <pt x="356" y="237" on="1"/>
        <pt x="356" y="249" on="0"/>
        <pt x="365" y="263" on="0"/>
        <pt x="378" y="269" on="0"/>
        <pt x="392" y="270" on="0"/>
        <pt x="398" y="270" on="1"/>
        <pt x="517" y="270" on="1"/>
        <pt x="522" y="270" on="0"/>
        <pt x="536" y="269" on="0"/>
        <pt x="548" y="264" on="0"/>
        <pt x="557" y="253" on="0"/>
        <pt x="557" y="242" on="1"/>
        <pt x="557" y="217" on="0"/>
        <pt x="526" y="209" on="0"/>
        <pt x="503" y="209" on="1"/>
      </contour>
    </TTGlyph>
    <TTGlyph name="Gamma" xMin="39" yMin="0" xMax="635" yMax="611">
      <contour>
        <pt x="194" y="61" on="1"/>
        <pt x="242" y="61" on="1"/>
        <pt x="247" y="61" on="0"/>
        <pt x="261" y="60" on="0"/>
        <pt x="274" y="55" on="0"/>
        <pt x="283" y="44" on="0"/>
        <pt x="283" y="33" on="1"/>
        <pt x="283" y="21" on="0"/>
        <pt x="274" y="7" on="0"/>
        <pt x="261" y="1" on="0"/>
        <pt x="247" y="0" on="0"/>
        <pt x="241" y="0" on="1"/>
        <pt x="79" y="0" on="1"/>
        <pt x="74" y="0" on="0"/>
        <pt x="60" y="1" on="0"/>
        <pt x="48" y="6" on="0"/>
        <pt x="39" y="18" on="0"/>
        <pt x="39" y="28" on="1"/>
        <pt x="39" y="40" on="0"/>
        <pt x="48" y="54" on="0"/>
        <pt x="60" y="60" on="0"/>
        <pt x="74" y="61" on="0"/>
        <pt x="80" y="61" on="1"/>
        <pt x="124" y="61" on="1"/>
        <pt x="246" y="550" on="1"/>
        <pt x="217" y="550" on="1"/>
        <pt x="212" y="550" on="0"/>
        <pt x="198" y="551" on="0"/>
        <pt x="185" y="556" on="0"/>
        <pt x="176" y="568" on="0"/>
        <pt x="176" y="578" on="1"/>
        <pt x="176" y="590" on="0"/>
        <pt x="185" y="604" on="0"/>
        <pt x="198" y="610" on="0"/>
        <pt x="212" y="611" on="0"/>
        <pt x="218" y="611" on="1"/>
        <pt x="594" y="611" on="1"/>
        <pt x="599" y="611" on="0"/>
        <pt x="613" y="610" on="0"/>
        <pt x="626" y="605" on="0"/>
        <pt x="635" y="594" on="0"/>
        <pt x="635" y="583" on="1"/>
        <pt x="635" y="580" on="0"/>
        <pt x="633" y="571" on="0"/>
        <pt x="632" y="568" on="1"/>
        <pt x="611" y="484" on="1"/>
        <pt x="606" y="466" on="0"/>
        <pt x="590" y="456" on="0"/>
        <pt x="576" y="456" on="1"/>
        <pt x="574" y="456" on="0"/>
        <pt x="562" y="457" on="0"/>
        <pt x="550" y="462" on="0"/>
        <pt x="541" y="474" on="0"/>
        <pt x="541" y="484" on="1"/>
        <pt x="541" y="485" on="0"/>
        <pt x="544" y="500" on="0"/>
        <pt x="549" y="520" on="0"/>
        <pt x="554" y="542" on="0"/>
        <pt x="556" y="550" on="1"/>
        <pt x="316" y="550" on="1"/>
      </contour>
    </TTGlyph>
    <TTGlyph name="H" xMin="29" yMin="0" xMax="649" yMax="611">
      <contour>
        <pt x="454" y="61" on="1"/>
        <pt x="471" y="61" on="1"/>
        <pt x="476" y="61" on="0"/>
        <pt x="490" y="60" on="0"/>
        <pt x="503" y="55" on="0"/>
        <pt x="512" y="44" on="0"/>
        <pt x="512" y="33" on="1"/>
        <pt x="512" y="21" on="0"/>
        <pt x="503" y="7" on="0"/>
        <pt x="489" y="1" on="0"/>
        <pt x="475" y="0" on="0"/>
        <pt x="470" y="0" on="1"/>
        <pt x="351" y="0" on="1"/>
        <pt x="346" y="0" on="0"/>
        <pt x="332" y="1" on="0"/>
        <pt x="320" y="6" on="0"/>
        <pt x="311" y="18" on="0"/>
        <pt x="311" y="28" on="1"/>
        <pt x="311" y="40" on="0"/>
        <pt x="320" y="54" on="0"/>
        <pt x="332" y="60" on="0"/>
        <pt x="346" y="61" on="0"/>
        <pt x="352" y="61" on="1"/>
        <pt x="383" y="61" on="1"/>
        <pt x="440" y="287" on="1"/>
        <pt x="229" y="287" on="1"/>
        <pt x="172" y="61" on="1"/>
        <pt x="189" y="61" on="1"/>
        <pt x="194" y="61" on="0"/>
        <pt x="208" y="60" on="0"/>
        <pt x="221" y="55" on="0"/>
        <pt x="230" y="44" on="0"/>
        <pt x="230" y="33" on="1"/>
        <pt x="230" y="21" on="0"/>
        <pt x="221" y="7" on="0"/>
        <pt x="207" y="1" on="0"/>
        <pt x="193" y="0" on="0"/>
        <pt x="188" y="0" on="1"/>
        <pt x="69" y="0" on="1"/>
        <pt x="64" y="0" on="0"/>
        <pt x="50" y="1" on="0"/>
        <pt x="38" y="6" on="0"/>
        <pt x="29" y="18" on="0"/>
        <pt x="29" y="28" on="1"/>
        <pt x="29" y="40" on="0"/>
        <pt x="38" y="54" on="0"/>
        <pt x="50" y="60" on="0"/>
        <pt x="64" y="61" on="0"/>
        <pt x="70" y="61" on="1"/>
        <pt x="102" y="61" on="1"/>
        <pt x="224" y="550" on="1"/>
        <pt x="207" y="550" on="1"/>
        <pt x="202" y="550" on="0"/>
        <pt x="188" y="551" on="0"/>
        <pt x="175" y="556" on="0"/>
        <pt x="166" y="568" on="0"/>
        <pt x="166" y="578" on="1"/>
        <pt x="166" y="590" on="0"/>
        <pt x="175" y="604" on="0"/>
        <pt x="188" y="610" on="0"/>
        <pt x="202" y="611" on="0"/>
        <pt x="208" y="611" on="1"/>
        <pt x="327" y="611" on="1"/>
        <pt x="332" y="611" on="0"/>
        <pt x="346" y="610" on="0"/>
        <pt x="358" y="605" on="0"/>
        <pt x="367" y="594" on="0"/>
        <pt x="367" y="583" on="1"/>
        <pt x="367" y="571" on="0"/>
        <pt x="358" y="557" on="0"/>
        <pt x="345" y="551" on="0"/>
        <pt x="331" y="550" on="0"/>
        <pt x="325" y="550" on="1"/>
        <pt x="294" y="550" on="1"/>
        <pt x="244" y="348" on="1"/>
        <pt x="455" y="348" on="1"/>
        <pt x="505" y="550" on="1"/>
        <pt x="480" y="550" on="0"/>
        <pt x="448" y="557" on="0"/>
        <pt x="448" y="578" on="1"/>
        <pt x="448" y="590" on="0"/>
        <pt x="457" y="604" on="0"/>
        <pt x="470" y="610" on="0"/>
        <pt x="484" y="611" on="0"/>
        <pt x="490" y="611" on="1"/>
        <pt x="609" y="611" on="1"/>
        <pt x="614" y="611" on="0"/>
        <pt x="628" y="610" on="0"/>
        <pt x="640" y="605" on="0"/>
        <pt x="649" y="594" on="0"/>
        <pt x="649" y="583" on="1"/>
        <pt x="649" y="571" on="0"/>
        <pt x="640" y="557" on="0"/>
        <pt x="627" y="551" on="0"/>
        <pt x="613" y="550" on="0"/>
        <pt x="607" y="550" on="1"/>
        <pt x="576" y="550" on="1"/>
      </contour>
    </TTGlyph>
    <TTGlyph name="I" xMin="86" yMin="0" xMax="592" yMax="611">
      <contour>
        <pt x="313" y="61" on="1"/>
        <pt x="414" y="61" on="1"/>
        <pt x="419" y="61" on="0"/>
        <pt x="433" y="60" on="0"/>
        <pt x="445" y="55" on="0"/>
        <pt x="454" y="44" on="0"/>
        <pt x="454" y="33" on="1"/>
        <pt x="454" y="21" on="0"/>
        <pt x="445" y="7" on="0"/>
        <pt x="432" y="1" on="0"/>
        <pt x="418" y="0" on="0"/>
        <pt x="412" y="0" on="1"/>
        <pt x="127" y="0" on="1"/>
        <pt x="122" y="0" on="0"/>
        <pt x="108" y="1" on="0"/>
        <pt x="95" y="6" on="0"/>
        <pt x="86" y="18" on="0"/>
        <pt x="86" y="28" on="1"/>
        <pt x="86" y="40" on="0"/>
        <pt x="95" y="54" on="0"/>
        <pt x="108" y="60" on="0"/>
        <pt x="122" y="61" on="0"/>
        <pt x="128" y="61" on="1"/>
        <pt x="243" y="61" on="1"/>
        <pt x="365" y="550" on="1"/>
        <pt x="264" y="550" on="1"/>
        <pt x="259" y="550" on="0"/>
        <pt x="245" y="551" on="0"/>
        <pt x="233" y="556" on="0"/>
        <pt x="224" y="568" on="0"/>
        <pt x="224" y="578" on="1"/>
        <pt x="224" y="590" on="0"/>
        <pt x="233" y="604" on="0"/>
        <pt x="245" y="610" on="0"/>
        <pt x="259" y="611" on="0"/>
        <pt x="265" y="611" on="1"/>
        <pt x="551" y="611" on="1"/>
        <pt x="556" y="611" on="0"/>
        <pt x="570" y="610" on="0"/>
        <pt x="583" y="605" on="0"/>
        <pt x="592" y="594" on="0"/>
        <pt x="592" y="583" on="1"/>
        <pt x="592" y="571" on="0"/>
        <pt x="583" y="557" on="0"/>
        <pt x="569" y="551" on="0"/>
        <pt x="555" y="550" on="0"/>
        <pt x="550" y="550" on="1"/>
        <pt x="435" y="550" on="1"/>
      </contour>
    </TTGlyph>
    <TTGlyph name="J" xMin="94" yMin="-11" xMax="625" yMax="611">
      <contour>
        <pt x="440" y="123" on="1"/>
        <pt x="434" y="97" on="0"/>
        <pt x="398" y="49" on="0"/>
        <pt x="346" y="11" on="0"/>
        <pt x="280" y="-11" on="0"/>
        <pt x="242" y="-11" on="1"/>
        <pt x="174" y="-11" on="0"/>
        <pt x="94" y="41" on="0"/>
        <pt x="94" y="85" on="1"/>
        <pt x="94" y="116" on="0"/>
        <pt x="125" y="146" on="0"/>
        <pt x="145" y="146" on="1"/>
        <pt x="165" y="146" on="0"/>
        <pt x="186" y="122" on="0"/>
        <pt x="186" y="106" on="1"/>
        <pt x="186" y="89" on="0"/>
        <pt x="175" y="74" on="0"/>
        <pt x="170" y="70" on="1"/>
        <pt x="179" y="63" on="0"/>
        <pt x="201" y="55" on="0"/>
        <pt x="222" y="51" on="0"/>
        <pt x="239" y="50" on="0"/>
        <pt x="243" y="50" on="1"/>
        <pt x="263" y="50" on="0"/>
        <pt x="304" y="62" on="0"/>
        <pt x="340" y="84" on="0"/>
        <pt x="367" y="118" on="0"/>
        <pt x="373" y="140" on="1"/>
        <pt x="475" y="550" on="1"/>
        <pt x="401" y="550" on="1"/>
        <pt x="396" y="550" on="0"/>
        <pt x="382" y="551" on="0"/>
        <pt x="370" y="556" on="0"/>
        <pt x="361" y="568" on="0"/>
        <pt x="361" y="578" on="1"/>
        <pt x="361" y="590" on="0"/>
        <pt x="370" y="604" on="0"/>
        <pt x="382" y="610" on="0"/>
        <pt x="396" y="611" on="0"/>
        <pt x="402" y="611" on="1"/>
        <pt x="584" y="611" on="1"/>
        <pt x="589" y="611" on="0"/>
        <pt x="603" y="610" on="0"/>
        <pt x="616" y="605" on="0"/>
        <pt x="625" y="594" on="0"/>
        <pt x="625" y="583" on="1"/>
        <pt x="625" y="571" on="0"/>
        <pt x="616" y="557" on="0"/>
        <pt x="602" y="551" on="0"/>
        <pt x="588" y="550" on="0"/>
        <pt x="583" y="550" on="1"/>
        <pt x="546" y="550" on="1"/>
      </contour>
    </TTGlyph>
    <TTGlyph name="K" xMin="33" yMin="0" xMax="632" yMax="611">
      <contour>
        <pt x="366" y="358" on="1"/>
        <pt x="459" y="61" on="1"/>
        <pt x="466" y="61" on="0"/>
        <pt x="482" y="60" on="0"/>
        <pt x="495" y="55" on="0"/>
        <pt x="504" y="44" on="0"/>
        <pt x="504" y="33" on="1"/>
        <pt x="504" y="21" on="0"/>
        <pt x="495" y="7" on="0"/>
        <pt x="482" y="1" on="0"/>
        <pt x="468" y="0" on="0"/>
        <pt x="462" y="0" on="1"/>
        <pt x="387" y="0" on="1"/>
        <pt x="382" y="0" on="0"/>
        <pt x="368" y="1" on="0"/>
        <pt x="355" y="6" on="0"/>
        <pt x="346" y="18" on="0"/>
        <pt x="346" y="28" on="1"/>
        <pt x="346" y="40" on="0"/>
        <pt x="355" y="54" on="0"/>
        <pt x="369" y="60" on="0"/>
        <pt x="386" y="61" on="0"/>
        <pt x="394" y="61" on="1"/>
        <pt x="316" y="311" on="1"/>
        <pt x="195" y="195" on="1"/>
        <pt x="161" y="61" on="1"/>
        <pt x="185" y="61" on="0"/>
        <pt x="216" y="54" on="0"/>
        <pt x="216" y="33" on="1"/>
        <pt x="216" y="21" on="0"/>
        <pt x="207" y="7" on="0"/>
        <pt x="194" y="1" on="0"/>
        <pt x="180" y="0" on="0"/>
        <pt x="174" y="0" on="1"/>
        <pt x="74" y="0" on="1"/>
        <pt x="69" y="0" on="0"/>
        <pt x="55" y="1" on="0"/>
        <pt x="42" y="6" on="0"/>
        <pt x="33" y="18" on="0"/>
        <pt x="33" y="28" on="1"/>
        <pt x="33" y="40" on="0"/>
        <pt x="42" y="54" on="0"/>
        <pt x="55" y="60" on="0"/>
        <pt x="69" y="61" on="0"/>
        <pt x="75" y="61" on="1"/>
        <pt x="104" y="61" on="1"/>
        <pt x="226" y="550" on="1"/>
        <pt x="202" y="550" on="0"/>
        <pt x="171" y="557" on="0"/>
        <pt x="171" y="578" on="1"/>
        <pt x="171" y="590" on="0"/>
        <pt x="180" y="604" on="0"/>
        <pt x="192" y="610" on="0"/>
        <pt x="206" y="611" on="0"/>
        <pt x="212" y="611" on="1"/>
        <pt x="313" y="611" on="1"/>
        <pt x="318" y="611" on="0"/>
        <pt x="332" y="610" on="0"/>
        <pt x="345" y="605" on="0"/>
        <pt x="354" y="594" on="0"/>
        <pt x="354" y="583" on="1"/>
        <pt x="354" y="571" on="0"/>
        <pt x="345" y="557" on="0"/>
        <pt x="331" y="551" on="0"/>
        <pt x="317" y="550" on="0"/>
        <pt x="312" y="550" on="1"/>
        <pt x="283" y="550" on="1"/>
        <pt x="217" y="285" on="1"/>
        <pt x="495" y="550" on="1"/>
        <pt x="473" y="550" on="0"/>
        <pt x="461" y="570" on="0"/>
        <pt x="461" y="578" on="1"/>
        <pt x="461" y="590" on="0"/>
        <pt x="470" y="604" on="0"/>
        <pt x="483" y="610" on="0"/>
        <pt x="497" y="611" on="0"/>
        <pt x="503" y="611" on="1"/>
        <pt x="591" y="611" on="1"/>
        <pt x="596" y="611" on="0"/>
        <pt x="610" y="610" on="0"/>
        <pt x="623" y="605" on="0"/>
        <pt x="632" y="594" on="0"/>
        <pt x="632" y="583" on="1"/>
        <pt x="632" y="571" on="0"/>
        <pt x="623" y="557" on="0"/>
        <pt x="609" y="551" on="0"/>
        <pt x="595" y="550" on="0"/>
        <pt x="590" y="550" on="1"/>
        <pt x="567" y="550" on="1"/>
      </contour>
    </TTGlyph>
    <TTGlyph name="L" xMin="39" yMin="0" xMax="525" yMax="611">
      <contour>
        <pt x="194" y="61" on="1"/>
        <pt x="434" y="61" on="1"/>
        <pt x="451" y="127" on="1"/>
        <pt x="454" y="140" on="0"/>
        <pt x="460" y="157" on="0"/>
        <pt x="467" y="167" on="0"/>
        <pt x="480" y="171" on="0"/>
        <pt x="490" y="171" on="1"/>
        <pt x="492" y="171" on="0"/>
        <pt x="504" y="170" on="0"/>
        <pt x="516" y="165" on="0"/>
        <pt x="525" y="154" on="0"/>
        <pt x="525" y="143" on="1"/>
        <pt x="525" y="141" on="0"/>
        <pt x="516" y="102" on="0"/>
        <pt x="504" y="55" on="0"/>
        <pt x="494" y="17" on="0"/>
        <pt x="493" y="15" on="1"/>
        <pt x="487" y="4" on="0"/>
        <pt x="468" y="0" on="0"/>
        <pt x="456" y="0" on="1"/>
        <pt x="79" y="0" on="1"/>
        <pt x="74" y="0" on="0"/>
        <pt x="60" y="1" on="0"/>
        <pt x="48" y="6" on="0"/>
        <pt x="39" y="18" on="0"/>
        <pt x="39" y="28" on="1"/>
        <pt x="39" y="40" on="0"/>
        <pt x="48" y="54" on="0"/>
        <pt x="60" y="60" on="0"/>
        <pt x="74" y="61" on="0"/>
        <pt x="80" y="61" on="1"/>
        <pt x="124" y="61" on="1"/>
        <pt x="246" y="550" on="1"/>
        <pt x="217" y="550" on="1"/>
        <pt x="212" y="550" on="0"/>
        <pt x="198" y="551" on="0"/>
        <pt x="185" y="556" on="0"/>
        <pt x="176" y="568" on="0"/>
        <pt x="176" y="578" on="1"/>
        <pt x="176" y="590" on="0"/>
        <pt x="185" y="604" on="0"/>
        <pt x="198" y="610" on="0"/>
        <pt x="212" y="611" on="0"/>
        <pt x="218" y="611" on="1"/>
        <pt x="380" y="611" on="1"/>
        <pt x="385" y="611" on="0"/>
        <pt x="399" y="610" on="0"/>
        <pt x="411" y="605" on="0"/>
        <pt x="420" y="594" on="0"/>
        <pt x="420" y="583" on="1"/>
        <pt x="420" y="571" on="0"/>
        <pt x="411" y="557" on="0"/>
        <pt x="399" y="551" on="0"/>
        <pt x="385" y="550" on="0"/>
        <pt x="379" y="550" on="1"/>
        <pt x="316" y="550" on="1"/>
      </contour>
    </TTGlyph>
    <TTGlyph name="Lambda" xMin="36" yMin="0" xMax="504" yMax="623">
      <contour>
        <pt x="172" y="61" on="1"/>
        <pt x="195" y="61" on="0"/>
        <pt x="227" y="54" on="0"/>
        <pt x="227" y="33" on="1"/>
        <pt x="227" y="21" on="0"/>
        <pt x="218" y="7" on="0"/>
        <pt x="205" y="1" on="0"/>
        <pt x="191" y="0" on="0"/>
        <pt x="185" y="0" on="1"/>
        <pt x="77" y="0" on="1"/>
        <pt x="72" y="0" on="0"/>
        <pt x="58" y="1" on="0"/>
        <pt x="45" y="6" on="0"/>
        <pt x="36" y="18" on="0"/>
        <pt x="36" y="28" on="1"/>
        <pt x="36" y="40" on="0"/>
        <pt x="45" y="54" on="0"/>
        <pt x="58" y="60" on="0"/>
        <pt x="72" y="61" on="0"/>
        <pt x="78" y="61" on="1"/>
        <pt x="101" y="61" on="1"/>
        <pt x="356" y="588" on="1"/>
        <pt x="369" y="614" on="0"/>
        <pt x="396" y="623" on="0"/>
        <pt x="413" y="623" on="1"/>
        <pt x="423" y="623" on="1"/>
        <pt x="429" y="623" on="0"/>
        <pt x="444" y="622" on="0"/>
        <pt x="456" y="616" on="0"/>
        <pt x="464" y="604" on="0"/>
        <pt x="464" y="593" on="1"/>
        <pt x="455" y="98" on="1"/>
        <pt x="455" y="61" on="1"/>
        <pt x="473" y="61" on="0"/>
        <pt x="504" y="54" on="0"/>
        <pt x="504" y="33" on="1"/>
        <pt x="504" y="21" on="0"/>
        <pt x="495" y="7" on="0"/>
        <pt x="482" y="1" on="0"/>
        <pt x="468" y="0" on="0"/>
        <pt x="462" y="0" on="1"/>
        <pt x="354" y="0" on="1"/>
        <pt x="349" y="0" on="0"/>
        <pt x="335" y="1" on="0"/>
        <pt x="322" y="6" on="0"/>
        <pt x="313" y="18" on="0"/>
        <pt x="313" y="28" on="1"/>
        <pt x="313" y="40" on="0"/>
        <pt x="322" y="54" on="0"/>
        <pt x="335" y="60" on="0"/>
        <pt x="349" y="61" on="0"/>
        <pt x="355" y="61" on="1"/>
        <pt x="384" y="61" on="1"/>
        <pt x="384" y="88" on="1"/>
        <pt x="384" y="120" on="0"/>
        <pt x="386" y="185" on="0"/>
        <pt x="387" y="217" on="1"/>
        <pt x="387" y="245" on="0"/>
        <pt x="389" y="336" on="0"/>
        <pt x="391" y="430" on="0"/>
        <pt x="394" y="515" on="0"/>
        <pt x="397" y="537" on="1"/>
        <pt x="396" y="538" on="1"/>
        <pt x="395" y="534" on="0"/>
        <pt x="390" y="521" on="0"/>
        <pt x="374" y="486" on="0"/>
        <pt x="343" y="421" on="0"/>
        <pt x="317" y="365" on="1"/>
      </contour>
    </TTGlyph>
    <TTGlyph name="M" xMin="24" yMin="0" xMax="654" yMax="611">
      <contour>
        <pt x="471" y="61" on="1"/>
        <pt x="478" y="61" on="0"/>
        <pt x="494" y="60" on="0"/>
        <pt x="507" y="55" on="0"/>
        <pt x="516" y="44" on="0"/>
        <pt x="516" y="33" on="1"/>
        <pt x="516" y="21" on="0"/>
        <pt x="507" y="7" on="0"/>
        <pt x="495" y="1" on="0"/>
        <pt x="481" y="0" on="0"/>
        <pt x="475" y="0" on="1"/>
        <pt x="393" y="0" on="1"/>
        <pt x="388" y="0" on="0"/>
        <pt x="374" y="1" on="0"/>
        <pt x="362" y="6" on="0"/>
        <pt x="353" y="18" on="0"/>
        <pt x="353" y="28" on="1"/>
        <pt x="353" y="40" on="0"/>
        <pt x="362" y="54" on="0"/>
        <pt x="375" y="60" on="0"/>
        <pt x="389" y="61" on="0"/>
        <pt x="395" y="61" on="1"/>
        <pt x="413" y="61" on="1"/>
        <pt x="531" y="533" on="1"/>
        <pt x="530" y="533" on="1"/>
        <pt x="521" y="515" on="0"/>
        <pt x="510" y="493" on="0"/>
        <pt x="500" y="475" on="0"/>
        <pt x="489" y="456" on="0"/>
        <pt x="480" y="441" on="1"/>
        <pt x="360" y="235" on="1"/>
        <pt x="347" y="213" on="0"/>
        <pt x="316" y="204" on="0"/>
        <pt x="314" y="204" on="1"/>
        <pt x="292" y="204" on="0"/>
        <pt x="283" y="234" on="0"/>
        <pt x="280" y="269" on="1"/>
        <pt x="272" y="359" on="1"/>
        <pt x="268" y="409" on="0"/>
        <pt x="264" y="469" on="0"/>
        <pt x="262" y="503" on="0"/>
        <pt x="262" y="517" on="0"/>
        <pt x="262" y="520" on="1"/>
        <pt x="262" y="536" on="1"/>
        <pt x="261" y="536" on="1"/>
        <pt x="142" y="61" on="1"/>
        <pt x="149" y="61" on="0"/>
        <pt x="165" y="60" on="0"/>
        <pt x="178" y="55" on="0"/>
        <pt x="187" y="44" on="0"/>
        <pt x="187" y="33" on="1"/>
        <pt x="187" y="21" on="0"/>
        <pt x="178" y="7" on="0"/>
        <pt x="166" y="1" on="0"/>
        <pt x="152" y="0" on="0"/>
        <pt x="146" y="0" on="1"/>
        <pt x="64" y="0" on="1"/>
        <pt x="59" y="0" on="0"/>
        <pt x="45" y="1" on="0"/>
        <pt x="33" y="6" on="0"/>
        <pt x="24" y="18" on="0"/>
        <pt x="24" y="28" on="1"/>
        <pt x="24" y="40" on="0"/>
        <pt x="33" y="54" on="0"/>
        <pt x="46" y="60" on="0"/>
        <pt x="60" y="61" on="0"/>
        <pt x="66" y="61" on="1"/>
        <pt x="85" y="61" on="1"/>
        <pt x="207" y="550" on="1"/>
        <pt x="200" y="550" on="0"/>
        <pt x="184" y="551" on="0"/>
        <pt x="170" y="556" on="0"/>
        <pt x="161" y="568" on="0"/>
        <pt x="161" y="578" on="1"/>
        <pt x="161" y="590" on="0"/>
        <pt x="170" y="604" on="0"/>
        <pt x="184" y="610" on="0"/>
        <pt x="198" y="611" on="0"/>
        <pt x="203" y="611" on="1"/>
        <pt x="231" y="611" on="1"/>
        <pt x="253" y="611" on="0"/>
        <pt x="282" y="610" on="0"/>
        <pt x="299" y="606" on="0"/>
        <pt x="307" y="595" on="0"/>
        <pt x="308" y="586" on="1"/>
        <pt x="308" y="586" on="0"/>
        <pt x="312" y="549" on="0"/>
        <pt x="317" y="491" on="0"/>
        <pt x="323" y="420" on="0"/>
        <pt x="328" y="352" on="0"/>
        <pt x="331" y="293" on="0"/>
        <pt x="331" y="276" on="1"/>
        <pt x="332" y="276" on="1"/>
        <pt x="339" y="290" on="0"/>
        <pt x="353" y="317" on="0"/>
        <pt x="369" y="347" on="0"/>
        <pt x="389" y="381" on="0"/>
        <pt x="402" y="403" on="1"/>
        <pt x="506" y="581" on="1"/>
        <pt x="520" y="604" on="0"/>
        <pt x="552" y="611" on="0"/>
        <pt x="565" y="611" on="1"/>
        <pt x="613" y="611" on="1"/>
        <pt x="618" y="611" on="0"/>
        <pt x="632" y="610" on="0"/>
        <pt x="645" y="605" on="0"/>
        <pt x="654" y="594" on="0"/>
        <pt x="654" y="583" on="1"/>
        <pt x="654" y="571" on="0"/>
        <pt x="645" y="557" on="0"/>
        <pt x="632" y="551" on="0"/>
        <pt x="618" y="550" on="0"/>
        <pt x="612" y="550" on="1"/>
        <pt x="593" y="550" on="1"/>
      </contour>
    </TTGlyph>
    <TTGlyph name="N" xMin="35" yMin="0" xMax="643" yMax="611">
      <contour>
        <pt x="441" y="31" on="1"/>
        <pt x="435" y="8" on="0"/>
        <pt x="416" y="0" on="0"/>
        <pt x="399" y="0" on="1"/>
        <pt x="389" y="0" on="1"/>
        <pt x="374" y="0" on="0"/>
        <pt x="357" y="5" on="0"/>
        <pt x="348" y="15" on="0"/>
        <pt x="345" y="29" on="0"/>
        <pt x="344" y="37" on="1"/>
        <pt x="284" y="534" on="1"/>
        <pt x="283" y="534" on="1"/>
        <pt x="165" y="61" on="1"/>
        <pt x="182" y="61" on="1"/>
        <pt x="187" y="61" on="0"/>
        <pt x="201" y="60" on="0"/>
        <pt x="214" y="55" on="0"/>
        <pt x="223" y="44" on="0"/>
        <pt x="223" y="33" on="1"/>
        <pt x="223" y="21" on="0"/>
        <pt x="214" y="7" on="0"/>
        <pt x="200" y="1" on="0"/>
        <pt x="186" y="0" on="0"/>
        <pt x="181" y="0" on="1"/>
        <pt x="75" y="0" on="1"/>
        <pt x="70" y="0" on="0"/>
        <pt x="56" y="1" on="0"/>
        <pt x="44" y="6" on="0"/>
        <pt x="35" y="18" on="0"/>
        <pt x="35" y="28" on="1"/>
        <pt x="35" y="40" on="0"/>
        <pt x="44" y="54" on="0"/>
        <pt x="56" y="60" on="0"/>
        <pt x="70" y="61" on="0"/>
        <pt x="76" y="61" on="1"/>
        <pt x="108" y="61" on="1"/>
        <pt x="230" y="550" on="1"/>
        <pt x="213" y="550" on="1"/>
        <pt x="208" y="550" on="0"/>
        <pt x="194" y="551" on="0"/>
        <pt x="181" y="556" on="0"/>
        <pt x="172" y="568" on="0"/>
        <pt x="172" y="578" on="1"/>
        <pt x="172" y="590" on="0"/>
        <pt x="181" y="604" on="0"/>
        <pt x="194" y="610" on="0"/>
        <pt x="208" y="611" on="0"/>
        <pt x="214" y="611" on="1"/>
        <pt x="254" y="611" on="1"/>
        <pt x="280" y="611" on="0"/>
        <pt x="310" y="610" on="0"/>
        <pt x="326" y="603" on="0"/>
        <pt x="333" y="588" on="0"/>
        <pt x="334" y="574" on="1"/>
        <pt x="394" y="77" on="1"/>
        <pt x="395" y="77" on="1"/>
        <pt x="512" y="550" on="1"/>
        <pt x="487" y="550" on="0"/>
        <pt x="455" y="557" on="0"/>
        <pt x="455" y="578" on="1"/>
        <pt x="455" y="590" on="0"/>
        <pt x="464" y="604" on="0"/>
        <pt x="477" y="610" on="0"/>
        <pt x="491" y="611" on="0"/>
        <pt x="497" y="611" on="1"/>
        <pt x="603" y="611" on="1"/>
        <pt x="608" y="611" on="0"/>
        <pt x="622" y="610" on="0"/>
        <pt x="634" y="605" on="0"/>
        <pt x="643" y="594" on="0"/>
        <pt x="643" y="583" on="1"/>
        <pt x="643" y="571" on="0"/>
        <pt x="634" y="557" on="0"/>
        <pt x="621" y="551" on="0"/>
        <pt x="607" y="550" on="0"/>
        <pt x="601" y="550" on="1"/>
        <pt x="570" y="550" on="1"/>
      </contour>
    </TTGlyph>
    <TTGlyph name="O" xMin="92" yMin="-11" xMax="586" yMax="622">
      <contour>
        <pt x="586" y="526" on="1"/>
        <pt x="586" y="506" on="0"/>
        <pt x="576" y="439" on="0"/>
        <pt x="559" y="359" on="0"/>
        <pt x="538" y="273" on="0"/>
        <pt x="515" y="194" on="0"/>
        <pt x="494" y="128" on="0"/>
        <pt x="486" y="109" on="1"/>
        <pt x="470" y="71" on="0"/>
        <pt x="434" y="24" on="0"/>
        <pt x="383" y="-2" on="0"/>
        <pt x="312" y="-11" on="0"/>
        <pt x="260" y="-11" on="1"/>
        <pt x="215" y="-11" on="0"/>
        <pt x="151" y="-4" on="0"/>
        <pt x="110" y="16" on="0"/>
        <pt x="92" y="54" on="0"/>
        <pt x="92" y="85" on="1"/>
        <pt x="92" y="107" on="0"/>
        <pt x="102" y="175" on="0"/>
        <pt x="119" y="255" on="0"/>
        <pt x="140" y="340" on="0"/>
        <pt x="162" y="416" on="0"/>
        <pt x="181" y="478" on="0"/>
        <pt x="188" y="494" on="1"/>
        <pt x="205" y="534" on="0"/>
        <pt x="239" y="584" on="0"/>
        <pt x="290" y="612" on="0"/>
        <pt x="363" y="622" on="0"/>
        <pt x="418" y="622" on="1"/>
        <pt x="462" y="622" on="0"/>
        <pt x="526" y="616" on="0"/>
        <pt x="567" y="596" on="0"/>
        <pt x="586" y="558" on="0"/>
      </contour>
      <contour>
        <pt x="275" y="50" on="1"/>
        <pt x="316" y="50" on="0"/>
        <pt x="369" y="62" on="0"/>
        <pt x="404" y="92" on="0"/>
        <pt x="428" y="141" on="0"/>
        <pt x="441" y="177" on="1"/>
        <pt x="443" y="183" on="0"/>
        <pt x="455" y="224" on="0"/>
        <pt x="471" y="282" on="0"/>
        <pt x="488" y="350" on="0"/>
        <pt x="503" y="417" on="0"/>
        <pt x="512" y="474" on="0"/>
        <pt x="512" y="493" on="1"/>
        <pt x="512" y="514" on="0"/>
        <pt x="501" y="541" on="0"/>
        <pt x="475" y="556" on="0"/>
        <pt x="433" y="561" on="0"/>
        <pt x="402" y="561" on="1"/>
        <pt x="363" y="561" on="0"/>
        <pt x="311" y="551" on="0"/>
        <pt x="275" y="523" on="0"/>
        <pt x="250" y="474" on="0"/>
        <pt x="237" y="434" on="1"/>
        <pt x="234" y="424" on="0"/>
        <pt x="220" y="379" on="0"/>
        <pt x="205" y="321" on="0"/>
        <pt x="189" y="255" on="0"/>
        <pt x="175" y="192" on="0"/>
        <pt x="167" y="137" on="0"/>
        <pt x="167" y="119" on="1"/>
        <pt x="167" y="81" on="0"/>
        <pt x="212" y="50" on="0"/>
      </contour>
    </TTGlyph>
    <TTGlyph name="OE" xMin="63" yMin="-11" xMax="642" yMax="622">
      <contour>
        <pt x="335" y="61" on="1"/>
        <pt x="461" y="61" on="1"/>
        <pt x="478" y="128" on="1"/>
        <pt x="483" y="149" on="0"/>
        <pt x="494" y="171" on="0"/>
        <pt x="511" y="171" on="1"/>
        <pt x="523" y="171" on="0"/>
        <pt x="539" y="154" on="0"/>
        <pt x="539" y="143" on="1"/>
        <pt x="539" y="140" on="0"/>
        <pt x="530" y="101" on="0"/>
        <pt x="518" y="55" on="0"/>
        <pt x="508" y="17" on="0"/>
        <pt x="507" y="15" on="1"/>
        <pt x="501" y="4" on="0"/>
        <pt x="483" y="0" on="0"/>
        <pt x="470" y="0" on="1"/>
        <pt x="310" y="0" on="1"/>
        <pt x="290" y="0" on="0"/>
        <pt x="270" y="-1" on="0"/>
        <pt x="254" y="-4" on="1"/>
        <pt x="227" y="-9" on="0"/>
        <pt x="206" y="-11" on="0"/>
        <pt x="191" y="-11" on="1"/>
        <pt x="148" y="-11" on="0"/>
        <pt x="98" y="1" on="0"/>
        <pt x="71" y="24" on="0"/>
        <pt x="63" y="56" on="0"/>
        <pt x="63" y="76" on="1"/>
        <pt x="63" y="101" on="0"/>
        <pt x="75" y="174" on="0"/>
        <pt x="92" y="256" on="0"/>
        <pt x="114" y="339" on="0"/>
        <pt x="133" y="409" on="0"/>
        <pt x="147" y="457" on="0"/>
        <pt x="149" y="463" on="1"/>
        <pt x="164" y="507" on="0"/>
        <pt x="193" y="568" on="0"/>
        <pt x="235" y="605" on="0"/>
        <pt x="299" y="622" on="0"/>
        <pt x="349" y="622" on="1"/>
        <pt x="364" y="622" on="0"/>
        <pt x="383" y="621" on="0"/>
        <pt x="404" y="616" on="1"/>
        <pt x="422" y="612" on="0"/>
        <pt x="440" y="611" on="0"/>
        <pt x="451" y="611" on="1"/>
        <pt x="601" y="611" on="1"/>
        <pt x="606" y="611" on="0"/>
        <pt x="620" y="610" on="0"/>
        <pt x="633" y="605" on="0"/>
        <pt x="642" y="594" on="0"/>
        <pt x="642" y="583" on="1"/>
        <pt x="642" y="580" on="0"/>
        <pt x="640" y="571" on="0"/>
        <pt x="639" y="568" on="1"/>
        <pt x="618" y="484" on="1"/>
        <pt x="616" y="478" on="0"/>
        <pt x="606" y="456" on="0"/>
        <pt x="589" y="456" on="1"/>
        <pt x="577" y="456" on="0"/>
        <pt x="561" y="473" on="0"/>
        <pt x="561" y="484" on="1"/>
        <pt x="561" y="485" on="0"/>
        <pt x="564" y="500" on="0"/>
        <pt x="569" y="520" on="0"/>
        <pt x="574" y="542" on="0"/>
        <pt x="576" y="550" on="1"/>
        <pt x="457" y="550" on="1"/>
        <pt x="407" y="347" on="1"/>
        <pt x="520" y="347" on="1"/>
        <pt x="525" y="347" on="0"/>
        <pt x="539" y="346" on="0"/>
        <pt x="552" y="341" on="0"/>
        <pt x="561" y="330" on="0"/>
        <pt x="561" y="319" on="1"/>
        <pt x="561" y="307" on="0"/>
        <pt x="552" y="293" on="0"/>
        <pt x="539" y="287" on="0"/>
        <pt x="525" y="286" on="0"/>
        <pt x="519" y="286" on="1"/>
        <pt x="391" y="286" on="1"/>
      </contour>
      <contour>
        <pt x="377" y="460" on="1"/>
        <pt x="380" y="472" on="0"/>
        <pt x="386" y="510" on="0"/>
        <pt x="386" y="522" on="1"/>
        <pt x="386" y="540" on="0"/>
        <pt x="367" y="561" on="0"/>
        <pt x="338" y="561" on="1"/>
        <pt x="304" y="561" on="0"/>
        <pt x="260" y="548" on="0"/>
        <pt x="231" y="521" on="0"/>
        <pt x="211" y="481" on="0"/>
        <pt x="202" y="454" on="1"/>
        <pt x="199" y="443" on="0"/>
        <pt x="185" y="395" on="0"/>
        <pt x="168" y="332" on="0"/>
        <pt x="150" y="261" on="0"/>
        <pt x="135" y="192" on="0"/>
        <pt x="126" y="133" on="0"/>
        <pt x="126" y="114" on="1"/>
        <pt x="126" y="105" on="0"/>
        <pt x="129" y="83" on="0"/>
        <pt x="145" y="63" on="0"/>
        <pt x="180" y="50" on="0"/>
        <pt x="212" y="50" on="1"/>
        <pt x="226" y="50" on="0"/>
        <pt x="250" y="56" on="0"/>
        <pt x="273" y="78" on="0"/>
        <pt x="293" y="122" on="0"/>
        <pt x="303" y="161" on="1"/>
      </contour>
    </TTGlyph>
    <TTGlyph name="Oslash" xMin="92" yMin="-85" xMax="586" yMax="696">
      <contour>
        <pt x="518" y="677" on="1"/>
        <pt x="521" y="683" on="0"/>
        <pt x="533" y="696" on="0"/>
        <pt x="545" y="696" on="1"/>
        <pt x="552" y="696" on="0"/>
        <pt x="577" y="683" on="0"/>
        <pt x="577" y="666" on="1"/>
        <pt x="577" y="660" on="0"/>
        <pt x="555" y="621" on="0"/>
        <pt x="546" y="606" on="1"/>
        <pt x="571" y="594" on="0"/>
        <pt x="586" y="551" on="0"/>
        <pt x="586" y="526" on="1"/>
        <pt x="586" y="506" on="0"/>
        <pt x="576" y="439" on="0"/>
        <pt x="559" y="359" on="0"/>
        <pt x="538" y="273" on="0"/>
        <pt x="515" y="194" on="0"/>
        <pt x="494" y="128" on="0"/>
        <pt x="486" y="109" on="1"/>
        <pt x="470" y="71" on="0"/>
        <pt x="434" y="24" on="0"/>
        <pt x="383" y="-2" on="0"/>
        <pt x="312" y="-11" on="0"/>
        <pt x="260" y="-11" on="1"/>
        <pt x="235" y="-11" on="0"/>
        <pt x="211" y="-11" on="0"/>
        <pt x="193" y="-9" on="1"/>
        <pt x="169" y="-52" on="1"/>
        <pt x="158" y="-70" on="0"/>
        <pt x="145" y="-85" on="0"/>
        <pt x="133" y="-85" on="1"/>
        <pt x="130" y="-85" on="0"/>
        <pt x="120" y="-82" on="0"/>
        <pt x="109" y="-76" on="0"/>
        <pt x="101" y="-64" on="0"/>
        <pt x="101" y="-55" on="1"/>
        <pt x="101" y="-50" on="0"/>
        <pt x="104" y="-41" on="0"/>
        <pt x="115" y="-23" on="1"/>
        <pt x="118" y="-18" on="0"/>
        <pt x="128" y="1" on="0"/>
        <pt x="131" y="6" on="1"/>
        <pt x="108" y="17" on="0"/>
        <pt x="92" y="56" on="0"/>
        <pt x="92" y="85" on="1"/>
        <pt x="92" y="107" on="0"/>
        <pt x="102" y="175" on="0"/>
        <pt x="119" y="255" on="0"/>
        <pt x="140" y="340" on="0"/>
        <pt x="162" y="416" on="0"/>
        <pt x="181" y="478" on="0"/>
        <pt x="188" y="494" on="1"/>
        <pt x="205" y="534" on="0"/>
        <pt x="239" y="584" on="0"/>
        <pt x="290" y="612" on="0"/>
        <pt x="363" y="622" on="0"/>
        <pt x="418" y="622" on="1"/>
        <pt x="443" y="622" on="0"/>
        <pt x="467" y="622" on="0"/>
        <pt x="485" y="620" on="1"/>
      </contour>
      <contour>
        <pt x="450" y="560" on="1"/>
        <pt x="442" y="561" on="0"/>
        <pt x="412" y="561" on="0"/>
        <pt x="403" y="561" on="1"/>
        <pt x="365" y="561" on="0"/>
        <pt x="312" y="554" on="0"/>
        <pt x="274" y="532" on="0"/>
        <pt x="247" y="493" on="0"/>
        <pt x="234" y="460" on="1"/>
        <pt x="229" y="447" on="0"/>
        <pt x="213" y="397" on="0"/>
        <pt x="195" y="335" on="0"/>
        <pt x="178" y="265" on="0"/>
        <pt x="164" y="199" on="0"/>
        <pt x="155" y="142" on="0"/>
        <pt x="155" y="123" on="1"/>
        <pt x="155" y="110" on="0"/>
        <pt x="159" y="84" on="0"/>
        <pt x="170" y="73" on="1"/>
      </contour>
      <contour>
        <pt x="228" y="51" on="1"/>
        <pt x="236" y="50" on="0"/>
        <pt x="266" y="50" on="0"/>
        <pt x="275" y="50" on="1"/>
        <pt x="313" y="50" on="0"/>
        <pt x="366" y="57" on="0"/>
        <pt x="404" y="79" on="0"/>
        <pt x="431" y="118" on="0"/>
        <pt x="444" y="150" on="1"/>
        <pt x="453" y="173" on="0"/>
        <pt x="479" y="264" on="0"/>
        <pt x="505" y="366" on="0"/>
        <pt x="523" y="462" on="0"/>
        <pt x="523" y="488" on="1"/>
        <pt x="523" y="504" on="0"/>
        <pt x="518" y="528" on="0"/>
        <pt x="508" y="538" on="1"/>
      </contour>
    </TTGlyph>
    <TTGlyph name="P" xMin="33" yMin="0" xMax="594" yMax="611">
      <contour>
        <pt x="182" y="61" on="1"/>
        <pt x="205" y="61" on="1"/>
        <pt x="210" y="61" on="0"/>
        <pt x="224" y="60" on="0"/>
        <pt x="236" y="55" on="0"/>
        <pt x="245" y="44" on="0"/>
        <pt x="245" y="33" on="1"/>
        <pt x="245" y="21" on="0"/>
        <pt x="236" y="7" on="0"/>
        <pt x="223" y="1" on="0"/>
        <pt x="209" y="0" on="0"/>
        <pt x="203" y="0" on="1"/>
        <pt x="74" y="0" on="1"/>
        <pt x="69" y="0" on="0"/>
        <pt x="55" y="1" on="0"/>
        <pt x="42" y="6" on="0"/>
        <pt x="33" y="18" on="0"/>
        <pt x="33" y="28" on="1"/>
        <pt x="33" y="40" on="0"/>
        <pt x="42" y="54" on="0"/>
        <pt x="55" y="60" on="0"/>
        <pt x="69" y="61" on="0"/>
        <pt x="75" y="61" on="1"/>
        <pt x="112" y="61" on="1"/>
        <pt x="234" y="550" on="1"/>
        <pt x="211" y="550" on="1"/>
        <pt x="206" y="550" on="0"/>
        <pt x="192" y="551" on="0"/>
        <pt x="180" y="556" on="0"/>
        <pt x="171" y="568" on="0"/>
        <pt x="171" y="578" on="1"/>
        <pt x="171" y="590" on="0"/>
        <pt x="180" y="604" on="0"/>
        <pt x="192" y="610" on="0"/>
        <pt x="206" y="611" on="0"/>
        <pt x="212" y="611" on="1"/>
        <pt x="444" y="611" on="1"/>
        <pt x="485" y="611" on="0"/>
        <pt x="542" y="585" on="0"/>
        <pt x="578" y="545" on="0"/>
        <pt x="594" y="496" on="0"/>
        <pt x="594" y="472" on="1"/>
        <pt x="594" y="432" on="0"/>
        <pt x="556" y="351" on="0"/>
        <pt x="491" y="286" on="0"/>
        <pt x="403" y="245" on="0"/>
        <pt x="352" y="245" on="1"/>
        <pt x="228" y="245" on="1"/>
      </contour>
      <contour>
        <pt x="244" y="306" on="1"/>
        <pt x="349" y="306" on="1"/>
        <pt x="387" y="306" on="0"/>
        <pt x="451" y="333" on="0"/>
        <pt x="497" y="376" on="0"/>
        <pt x="522" y="429" on="0"/>
        <pt x="522" y="454" on="1"/>
        <pt x="522" y="472" on="0"/>
        <pt x="509" y="507" on="0"/>
        <pt x="482" y="534" on="0"/>
        <pt x="440" y="550" on="0"/>
        <pt x="410" y="550" on="1"/>
        <pt x="304" y="550" on="1"/>
      </contour>
    </TTGlyph>
    <TTGlyph name="Phi" xMin="113" yMin="0" xMax="565" yMax="611">
      <contour>
        <pt x="313" y="61" on="1"/>
        <pt x="363" y="61" on="1"/>
        <pt x="374" y="59" on="0"/>
        <pt x="387" y="42" on="0"/>
        <pt x="387" y="33" on="1"/>
        <pt x="387" y="21" on="0"/>
        <pt x="378" y="7" on="0"/>
        <pt x="365" y="1" on="0"/>
        <pt x="349" y="0" on="0"/>
        <pt x="343" y="0" on="1"/>
        <pt x="196" y="0" on="1"/>
        <pt x="190" y="0" on="0"/>
        <pt x="176" y="1" on="0"/>
        <pt x="162" y="6" on="0"/>
        <pt x="153" y="18" on="0"/>
        <pt x="153" y="28" on="1"/>
        <pt x="153" y="40" on="0"/>
        <pt x="162" y="54" on="0"/>
        <pt x="176" y="60" on="0"/>
        <pt x="191" y="61" on="0"/>
        <pt x="197" y="61" on="1"/>
        <pt x="243" y="61" on="1"/>
        <pt x="266" y="155" on="1"/>
        <pt x="224" y="160" on="0"/>
        <pt x="166" y="186" on="0"/>
        <pt x="130" y="221" on="0"/>
        <pt x="113" y="261" on="0"/>
        <pt x="113" y="280" on="1"/>
        <pt x="113" y="308" on="0"/>
        <pt x="144" y="365" on="0"/>
        <pt x="203" y="414" on="0"/>
        <pt x="288" y="450" on="0"/>
        <pt x="341" y="457" on="1"/>
        <pt x="365" y="550" on="1"/>
        <pt x="315" y="550" on="1"/>
        <pt x="308" y="551" on="0"/>
        <pt x="291" y="564" on="0"/>
        <pt x="291" y="578" on="1"/>
        <pt x="291" y="590" on="0"/>
        <pt x="300" y="604" on="0"/>
        <pt x="313" y="610" on="0"/>
        <pt x="328" y="611" on="0"/>
        <pt x="335" y="611" on="1"/>
        <pt x="482" y="611" on="1"/>
        <pt x="488" y="611" on="0"/>
        <pt x="503" y="610" on="0"/>
        <pt x="515" y="605" on="0"/>
        <pt x="524" y="594" on="0"/>
        <pt x="524" y="583" on="1"/>
        <pt x="524" y="571" on="0"/>
        <pt x="516" y="557" on="0"/>
        <pt x="503" y="551" on="0"/>
        <pt x="488" y="550" on="0"/>
        <pt x="481" y="550" on="1"/>
        <pt x="435" y="550" on="1"/>
        <pt x="412" y="456" on="1"/>
        <pt x="450" y="452" on="0"/>
        <pt x="507" y="428" on="0"/>
        <pt x="546" y="394" on="0"/>
        <pt x="565" y="352" on="0"/>
        <pt x="565" y="331" on="1"/>
        <pt x="565" y="303" on="0"/>
        <pt x="533" y="246" on="0"/>
        <pt x="474" y="197" on="0"/>
        <pt x="390" y="161" on="0"/>
        <pt x="337" y="154" on="1"/>
      </contour>
      <contour>
        <pt x="326" y="395" on="1"/>
        <pt x="298" y="391" on="0"/>
        <pt x="246" y="372" on="0"/>
        <pt x="207" y="345" on="0"/>
        <pt x="184" y="311" on="0"/>
        <pt x="184" y="292" on="1"/>
        <pt x="184" y="276" on="0"/>
        <pt x="201" y="250" on="0"/>
        <pt x="229" y="231" on="0"/>
        <pt x="264" y="219" on="0"/>
        <pt x="281" y="216" on="1"/>
      </contour>
      <contour>
        <pt x="352" y="216" on="1"/>
        <pt x="376" y="219" on="0"/>
        <pt x="426" y="236" on="0"/>
        <pt x="467" y="263" on="0"/>
        <pt x="494" y="298" on="0"/>
        <pt x="494" y="319" on="1"/>
        <pt x="494" y="335" on="0"/>
        <pt x="477" y="361" on="0"/>
        <pt x="449" y="380" on="0"/>
        <pt x="414" y="392" on="0"/>
        <pt x="397" y="395" on="1"/>
      </contour>
    </TTGlyph>
    <TTGlyph name="Pi" xMin="29" yMin="0" xMax="649" yMax="611">
      <contour>
        <pt x="454" y="61" on="1"/>
        <pt x="471" y="61" on="1"/>
        <pt x="476" y="61" on="0"/>
        <pt x="490" y="60" on="0"/>
        <pt x="503" y="55" on="0"/>
        <pt x="512" y="44" on="0"/>
        <pt x="512" y="33" on="1"/>
        <pt x="512" y="21" on="0"/>
        <pt x="503" y="7" on="0"/>
        <pt x="489" y="1" on="0"/>
        <pt x="475" y="0" on="0"/>
        <pt x="470" y="0" on="1"/>
        <pt x="351" y="0" on="1"/>
        <pt x="346" y="0" on="0"/>
        <pt x="332" y="1" on="0"/>
        <pt x="320" y="6" on="0"/>
        <pt x="311" y="18" on="0"/>
        <pt x="311" y="28" on="1"/>
        <pt x="311" y="40" on="0"/>
        <pt x="320" y="54" on="0"/>
        <pt x="332" y="60" on="0"/>
        <pt x="346" y="61" on="0"/>
        <pt x="352" y="61" on="1"/>
        <pt x="383" y="61" on="1"/>
        <pt x="505" y="550" on="1"/>
        <pt x="294" y="550" on="1"/>
        <pt x="172" y="61" on="1"/>
        <pt x="189" y="61" on="1"/>
        <pt x="194" y="61" on="0"/>
        <pt x="208" y="60" on="0"/>
        <pt x="221" y="55" on="0"/>
        <pt x="230" y="44" on="0"/>
        <pt x="230" y="33" on="1"/>
        <pt x="230" y="21" on="0"/>
        <pt x="221" y="7" on="0"/>
        <pt x="207" y="1" on="0"/>
        <pt x="193" y="0" on="0"/>
        <pt x="188" y="0" on="1"/>
        <pt x="69" y="0" on="1"/>
        <pt x="64" y="0" on="0"/>
        <pt x="50" y="1" on="0"/>
        <pt x="38" y="6" on="0"/>
        <pt x="29" y="18" on="0"/>
        <pt x="29" y="28" on="1"/>
        <pt x="29" y="40" on="0"/>
        <pt x="38" y="54" on="0"/>
        <pt x="50" y="60" on="0"/>
        <pt x="64" y="61" on="0"/>
        <pt x="70" y="61" on="1"/>
        <pt x="102" y="61" on="1"/>
        <pt x="224" y="550" on="1"/>
        <pt x="207" y="550" on="1"/>
        <pt x="202" y="550" on="0"/>
        <pt x="188" y="551" on="0"/>
        <pt x="175" y="556" on="0"/>
        <pt x="166" y="568" on="0"/>
        <pt x="166" y="578" on="1"/>
        <pt x="166" y="590" on="0"/>
        <pt x="175" y="604" on="0"/>
        <pt x="188" y="610" on="0"/>
        <pt x="202" y="611" on="0"/>
        <pt x="208" y="611" on="1"/>
        <pt x="609" y="611" on="1"/>
        <pt x="614" y="611" on="0"/>
        <pt x="628" y="610" on="0"/>
        <pt x="640" y="605" on="0"/>
        <pt x="649" y="594" on="0"/>
        <pt x="649" y="583" on="1"/>
        <pt x="649" y="571" on="0"/>
        <pt x="640" y="557" on="0"/>
        <pt x="627" y="551" on="0"/>
        <pt x="613" y="550" on="0"/>
        <pt x="607" y="550" on="1"/>
        <pt x="576" y="550" on="1"/>
      </contour>
    </TTGlyph>
    <TTGlyph name="Psi" xMin="150" yMin="0" xMax="601" yMax="611">
      <contour>
        <pt x="354" y="222" on="1"/>
        <pt x="385" y="233" on="0"/>
        <pt x="426" y="272" on="0"/>
        <pt x="453" y="317" on="0"/>
        <pt x="468" y="363" on="0"/>
        <pt x="472" y="380" on="1"/>
        <pt x="486" y="431" on="0"/>
        <pt x="526" y="483" on="0"/>
        <pt x="565" y="483" on="1"/>
        <pt x="567" y="483" on="0"/>
        <pt x="579" y="482" on="0"/>
        <pt x="591" y="477" on="0"/>
        <pt x="601" y="466" on="0"/>
        <pt x="601" y="455" on="1"/>
        <pt x="601" y="443" on="0"/>
        <pt x="588" y="425" on="0"/>
        <pt x="576" y="423" on="1"/>
        <pt x="571" y="422" on="0"/>
        <pt x="563" y="418" on="0"/>
        <pt x="554" y="406" on="0"/>
        <pt x="543" y="381" on="0"/>
        <pt x="537" y="359" on="1"/>
        <pt x="530" y="334" on="0"/>
        <pt x="506" y="270" on="0"/>
        <pt x="460" y="210" on="0"/>
        <pt x="389" y="163" on="0"/>
        <pt x="336" y="154" on="1"/>
        <pt x="313" y="61" on="1"/>
        <pt x="325" y="61" on="0"/>
        <pt x="357" y="61" on="0"/>
        <pt x="360" y="60" on="1"/>
        <pt x="370" y="57" on="0"/>
        <pt x="381" y="42" on="0"/>
        <pt x="381" y="33" on="1"/>
        <pt x="381" y="21" on="0"/>
        <pt x="372" y="7" on="0"/>
        <pt x="359" y="1" on="0"/>
        <pt x="344" y="0" on="0"/>
        <pt x="337" y="0" on="1"/>
        <pt x="202" y="0" on="1"/>
        <pt x="196" y="0" on="0"/>
        <pt x="181" y="1" on="0"/>
        <pt x="168" y="6" on="0"/>
        <pt x="159" y="18" on="0"/>
        <pt x="159" y="28" on="1"/>
        <pt x="159" y="40" on="0"/>
        <pt x="168" y="54" on="0"/>
        <pt x="181" y="60" on="0"/>
        <pt x="197" y="61" on="0"/>
        <pt x="203" y="61" on="1"/>
        <pt x="243" y="61" on="1"/>
        <pt x="266" y="157" on="1"/>
        <pt x="209" y="171" on="0"/>
        <pt x="160" y="247" on="0"/>
        <pt x="160" y="298" on="1"/>
        <pt x="160" y="312" on="0"/>
        <pt x="164" y="346" on="0"/>
        <pt x="169" y="369" on="1"/>
        <pt x="174" y="391" on="0"/>
        <pt x="177" y="410" on="0"/>
        <pt x="177" y="421" on="1"/>
        <pt x="166" y="423" on="0"/>
        <pt x="150" y="439" on="0"/>
        <pt x="150" y="450" on="1"/>
        <pt x="150" y="462" on="0"/>
        <pt x="160" y="476" on="0"/>
        <pt x="172" y="482" on="0"/>
        <pt x="185" y="483" on="0"/>
        <pt x="188" y="483" on="1"/>
        <pt x="216" y="483" on="0"/>
        <pt x="247" y="453" on="0"/>
        <pt x="247" y="419" on="1"/>
        <pt x="247" y="410" on="0"/>
        <pt x="245" y="390" on="0"/>
        <pt x="239" y="367" on="1"/>
        <pt x="234" y="346" on="0"/>
        <pt x="229" y="314" on="0"/>
        <pt x="229" y="297" on="1"/>
        <pt x="229" y="271" on="0"/>
        <pt x="249" y="225" on="0"/>
        <pt x="282" y="217" on="1"/>
        <pt x="365" y="550" on="1"/>
        <pt x="353" y="550" on="0"/>
        <pt x="321" y="550" on="0"/>
        <pt x="318" y="551" on="1"/>
        <pt x="309" y="553" on="0"/>
        <pt x="297" y="568" on="0"/>
        <pt x="297" y="578" on="1"/>
        <pt x="297" y="590" on="0"/>
        <pt x="306" y="604" on="0"/>
        <pt x="319" y="610" on="0"/>
        <pt x="334" y="611" on="0"/>
        <pt x="340" y="611" on="1"/>
        <pt x="476" y="611" on="1"/>
        <pt x="482" y="611" on="0"/>
        <pt x="496" y="610" on="0"/>
        <pt x="510" y="605" on="0"/>
        <pt x="519" y="594" on="0"/>
        <pt x="519" y="583" on="1"/>
        <pt x="519" y="571" on="0"/>
        <pt x="510" y="557" on="0"/>
        <pt x="496" y="551" on="0"/>
        <pt x="481" y="550" on="0"/>
        <pt x="475" y="550" on="1"/>
        <pt x="435" y="550" on="1"/>
      </contour>
    </TTGlyph>
    <TTGlyph name="Q" xMin="92" yMin="-139" xMax="586" yMax="622">
      <contour>
        <pt x="316" y="-10" on="1"/>
        <pt x="312" y="-10" on="0"/>
        <pt x="297" y="-11" on="0"/>
        <pt x="281" y="-11" on="0"/>
        <pt x="265" y="-11" on="0"/>
        <pt x="260" y="-11" on="1"/>
        <pt x="215" y="-11" on="0"/>
        <pt x="151" y="-4" on="0"/>
        <pt x="110" y="16" on="0"/>
        <pt x="92" y="54" on="0"/>
        <pt x="92" y="85" on="1"/>
        <pt x="92" y="107" on="0"/>
        <pt x="102" y="175" on="0"/>
        <pt x="119" y="255" on="0"/>
        <pt x="140" y="340" on="0"/>
        <pt x="162" y="416" on="0"/>
        <pt x="181" y="478" on="0"/>
        <pt x="188" y="494" on="1"/>
        <pt x="205" y="534" on="0"/>
        <pt x="239" y="584" on="0"/>
        <pt x="290" y="612" on="0"/>
        <pt x="363" y="622" on="0"/>
        <pt x="418" y="622" on="1"/>
        <pt x="462" y="622" on="0"/>
        <pt x="526" y="616" on="0"/>
        <pt x="567" y="596" on="0"/>
        <pt x="586" y="558" on="0"/>
        <pt x="586" y="526" on="1"/>
        <pt x="586" y="498" on="0"/>
        <pt x="571" y="411" on="0"/>
        <pt x="550" y="323" on="0"/>
        <pt x="531" y="247" on="0"/>
        <pt x="526" y="230" on="1"/>
        <pt x="508" y="164" on="0"/>
        <pt x="476" y="82" on="0"/>
        <pt x="445" y="34" on="0"/>
        <pt x="412" y="12" on="0"/>
        <pt x="393" y="4" on="1"/>
        <pt x="395" y="-2" on="0"/>
        <pt x="405" y="-39" on="0"/>
        <pt x="417" y="-79" on="0"/>
        <pt x="426" y="-113" on="0"/>
        <pt x="426" y="-115" on="1"/>
        <pt x="426" y="-124" on="0"/>
        <pt x="418" y="-134" on="0"/>
        <pt x="406" y="-138" on="0"/>
        <pt x="393" y="-139" on="0"/>
        <pt x="389" y="-139" on="1"/>
        <pt x="380" y="-139" on="1"/>
        <pt x="368" y="-139" on="0"/>
        <pt x="352" y="-136" on="0"/>
        <pt x="348" y="-125" on="1"/>
      </contour>
      <contour>
        <pt x="322" y="171" on="1"/>
        <pt x="336" y="171" on="0"/>
        <pt x="345" y="169" on="0"/>
        <pt x="347" y="161" on="1"/>
        <pt x="350" y="154" on="0"/>
        <pt x="357" y="128" on="0"/>
        <pt x="365" y="101" on="0"/>
        <pt x="372" y="76" on="0"/>
        <pt x="374" y="68" on="1"/>
        <pt x="382" y="72" on="0"/>
        <pt x="400" y="86" on="0"/>
        <pt x="421" y="122" on="0"/>
        <pt x="446" y="189" on="0"/>
        <pt x="461" y="246" on="1"/>
        <pt x="466" y="265" on="0"/>
        <pt x="483" y="330" on="0"/>
        <pt x="499" y="401" on="0"/>
        <pt x="511" y="470" on="0"/>
        <pt x="511" y="492" on="1"/>
        <pt x="511" y="512" on="0"/>
        <pt x="502" y="538" on="0"/>
        <pt x="477" y="554" on="0"/>
        <pt x="435" y="561" on="0"/>
        <pt x="402" y="561" on="1"/>
        <pt x="362" y="561" on="0"/>
        <pt x="310" y="550" on="0"/>
        <pt x="276" y="523" on="0"/>
        <pt x="253" y="479" on="0"/>
        <pt x="241" y="446" on="1"/>
        <pt x="238" y="437" on="0"/>
        <pt x="224" y="393" on="0"/>
        <pt x="208" y="333" on="0"/>
        <pt x="190" y="264" on="0"/>
        <pt x="176" y="197" on="0"/>
        <pt x="167" y="139" on="0"/>
        <pt x="167" y="120" on="1"/>
        <pt x="167" y="108" on="0"/>
        <pt x="170" y="83" on="0"/>
        <pt x="189" y="63" on="0"/>
        <pt x="229" y="50" on="0"/>
        <pt x="266" y="50" on="1"/>
        <pt x="299" y="50" on="1"/>
        <pt x="284" y="106" on="0"/>
        <pt x="274" y="146" on="0"/>
        <pt x="274" y="147" on="1"/>
        <pt x="274" y="156" on="0"/>
        <pt x="282" y="166" on="0"/>
        <pt x="294" y="170" on="0"/>
        <pt x="307" y="171" on="0"/>
        <pt x="311" y="171" on="1"/>
      </contour>
    </TTGlyph>
    <TTGlyph name="R" xMin="29" yMin="-11" xMax="549" yMax="611">
      <contour>
        <pt x="421" y="302" on="1"/>
        <pt x="422" y="301" on="0"/>
        <pt x="434" y="289" on="0"/>
        <pt x="448" y="268" on="0"/>
        <pt x="459" y="238" on="0"/>
        <pt x="459" y="218" on="1"/>
        <pt x="459" y="212" on="0"/>
        <pt x="458" y="202" on="0"/>
        <pt x="455" y="187" on="0"/>
        <pt x="450" y="166" on="0"/>
        <pt x="446" y="150" on="1"/>
        <pt x="441" y="131" on="0"/>
        <pt x="434" y="105" on="0"/>
        <pt x="431" y="88" on="0"/>
        <pt x="430" y="76" on="0"/>
        <pt x="430" y="69" on="1"/>
        <pt x="430" y="50" on="0"/>
        <pt x="441" y="50" on="1"/>
        <pt x="453" y="50" on="0"/>
        <pt x="472" y="79" on="0"/>
        <pt x="478" y="101" on="1"/>
        <pt x="484" y="119" on="0"/>
        <pt x="502" y="125" on="0"/>
        <pt x="513" y="125" on="1"/>
        <pt x="516" y="125" on="0"/>
        <pt x="527" y="124" on="0"/>
        <pt x="539" y="119" on="0"/>
        <pt x="547" y="108" on="0"/>
        <pt x="547" y="97" on="1"/>
        <pt x="547" y="89" on="0"/>
        <pt x="534" y="53" on="0"/>
        <pt x="508" y="17" on="0"/>
        <pt x="467" y="-11" on="0"/>
        <pt x="440" y="-11" on="1"/>
        <pt x="431" y="-11" on="0"/>
        <pt x="404" y="-5" on="0"/>
        <pt x="379" y="13" on="0"/>
        <pt x="362" y="48" on="0"/>
        <pt x="362" y="76" on="1"/>
        <pt x="362" y="87" on="0"/>
        <pt x="365" y="115" on="0"/>
        <pt x="375" y="149" on="1"/>
        <pt x="377" y="155" on="0"/>
        <pt x="382" y="174" on="0"/>
        <pt x="386" y="194" on="0"/>
        <pt x="390" y="213" on="0"/>
        <pt x="390" y="218" on="1"/>
        <pt x="390" y="228" on="0"/>
        <pt x="383" y="248" on="0"/>
        <pt x="365" y="265" on="0"/>
        <pt x="334" y="275" on="0"/>
        <pt x="310" y="275" on="1"/>
        <pt x="226" y="275" on="1"/>
        <pt x="172" y="61" on="1"/>
        <pt x="189" y="61" on="1"/>
        <pt x="194" y="61" on="0"/>
        <pt x="208" y="60" on="0"/>
        <pt x="221" y="55" on="0"/>
        <pt x="230" y="44" on="0"/>
        <pt x="230" y="33" on="1"/>
        <pt x="230" y="21" on="0"/>
        <pt x="221" y="7" on="0"/>
        <pt x="207" y="1" on="0"/>
        <pt x="193" y="0" on="0"/>
        <pt x="188" y="0" on="1"/>
        <pt x="69" y="0" on="1"/>
        <pt x="64" y="0" on="0"/>
        <pt x="50" y="1" on="0"/>
        <pt x="38" y="6" on="0"/>
        <pt x="29" y="18" on="0"/>
        <pt x="29" y="28" on="1"/>
        <pt x="29" y="40" on="0"/>
        <pt x="38" y="54" on="0"/>
        <pt x="50" y="60" on="0"/>
        <pt x="64" y="61" on="0"/>
        <pt x="70" y="61" on="1"/>
        <pt x="102" y="61" on="1"/>
        <pt x="224" y="550" on="1"/>
        <pt x="207" y="550" on="1"/>
        <pt x="202" y="550" on="0"/>
        <pt x="188" y="551" on="0"/>
        <pt x="175" y="556" on="0"/>
        <pt x="166" y="568" on="0"/>
        <pt x="166" y="578" on="1"/>
        <pt x="166" y="590" on="0"/>
        <pt x="175" y="604" on="0"/>
        <pt x="188" y="610" on="0"/>
        <pt x="202" y="611" on="0"/>
        <pt x="208" y="611" on="1"/>
        <pt x="392" y="611" on="1"/>
        <pt x="428" y="611" on="0"/>
        <pt x="487" y="591" on="0"/>
        <pt x="527" y="555" on="0"/>
        <pt x="549" y="507" on="0"/>
        <pt x="549" y="478" on="1"/>
        <pt x="549" y="427" on="0"/>
        <pt x="479" y="330" on="0"/>
      </contour>
      <contour>
        <pt x="313" y="336" on="1"/>
        <pt x="349" y="336" on="0"/>
        <pt x="409" y="359" on="0"/>
        <pt x="453" y="395" on="0"/>
        <pt x="478" y="441" on="0"/>
        <pt x="478" y="464" on="1"/>
        <pt x="478" y="480" on="0"/>
        <pt x="466" y="511" on="0"/>
        <pt x="439" y="535" on="0"/>
        <pt x="396" y="550" on="0"/>
        <pt x="366" y="550" on="1"/>
        <pt x="294" y="550" on="1"/>
        <pt x="241" y="336" on="1"/>
      </contour>
    </TTGlyph>
    <TTGlyph name="S" xMin="56" yMin="-11" xMax="595" yMax="622">
      <contour>
        <pt x="556" y="436" on="1"/>
        <pt x="551" y="418" on="0"/>
        <pt x="535" y="408" on="0"/>
        <pt x="521" y="408" on="1"/>
        <pt x="518" y="408" on="0"/>
        <pt x="507" y="409" on="0"/>
        <pt x="495" y="414" on="0"/>
        <pt x="486" y="426" on="0"/>
        <pt x="486" y="437" on="1"/>
        <pt x="486" y="442" on="0"/>
        <pt x="488" y="454" on="0"/>
        <pt x="488" y="466" on="1"/>
        <pt x="488" y="497" on="0"/>
        <pt x="468" y="535" on="0"/>
        <pt x="438" y="555" on="0"/>
        <pt x="402" y="561" on="0"/>
        <pt x="385" y="561" on="1"/>
        <pt x="354" y="561" on="0"/>
        <pt x="297" y="539" on="0"/>
        <pt x="254" y="503" on="0"/>
        <pt x="229" y="458" on="0"/>
        <pt x="229" y="435" on="1"/>
        <pt x="229" y="415" on="0"/>
        <pt x="245" y="389" on="0"/>
        <pt x="272" y="372" on="0"/>
        <pt x="305" y="363" on="0"/>
        <pt x="321" y="359" on="1"/>
        <pt x="332" y="356" on="0"/>
        <pt x="364" y="349" on="0"/>
        <pt x="394" y="341" on="0"/>
        <pt x="417" y="335" on="0"/>
        <pt x="421" y="334" on="1"/>
        <pt x="460" y="322" on="0"/>
        <pt x="519" y="253" on="0"/>
        <pt x="519" y="199" on="1"/>
        <pt x="519" y="163" on="0"/>
        <pt x="485" y="88" on="0"/>
        <pt x="423" y="27" on="0"/>
        <pt x="339" y="-11" on="0"/>
        <pt x="289" y="-11" on="1"/>
        <pt x="283" y="-11" on="0"/>
        <pt x="248" y="-10" on="0"/>
        <pt x="202" y="-1" on="0"/>
        <pt x="152" y="18" on="0"/>
        <pt x="131" y="36" on="1"/>
        <pt x="129" y="31" on="0"/>
        <pt x="115" y="8" on="0"/>
        <pt x="114" y="6" on="1"/>
        <pt x="109" y="-1" on="0"/>
        <pt x="98" y="-11" on="0"/>
        <pt x="86" y="-11" on="1"/>
        <pt x="69" y="-11" on="0"/>
        <pt x="56" y="9" on="0"/>
        <pt x="56" y="17" on="1"/>
        <pt x="56" y="19" on="0"/>
        <pt x="62" y="45" on="0"/>
        <pt x="71" y="82" on="0"/>
        <pt x="82" y="124" on="0"/>
        <pt x="91" y="160" on="0"/>
        <pt x="97" y="185" on="0"/>
        <pt x="97" y="185" on="1"/>
        <pt x="102" y="199" on="0"/>
        <pt x="124" y="203" on="0"/>
        <pt x="130" y="203" on="1"/>
        <pt x="153" y="203" on="0"/>
        <pt x="165" y="183" on="0"/>
        <pt x="165" y="175" on="1"/>
        <pt x="165" y="168" on="0"/>
        <pt x="163" y="166" on="1"/>
        <pt x="161" y="158" on="0"/>
        <pt x="159" y="139" on="0"/>
        <pt x="159" y="135" on="1"/>
        <pt x="159" y="110" on="0"/>
        <pt x="182" y="78" on="0"/>
        <pt x="220" y="58" on="0"/>
        <pt x="267" y="50" on="0"/>
        <pt x="291" y="50" on="1"/>
        <pt x="324" y="50" on="0"/>
        <pt x="382" y="75" on="0"/>
        <pt x="426" y="116" on="0"/>
        <pt x="452" y="167" on="0"/>
        <pt x="452" y="193" on="1"/>
        <pt x="452" y="216" on="0"/>
        <pt x="437" y="244" on="0"/>
        <pt x="412" y="262" on="0"/>
        <pt x="381" y="272" on="0"/>
        <pt x="364" y="276" on="1"/>
        <pt x="297" y="293" on="1"/>
        <pt x="282" y="296" on="0"/>
        <pt x="237" y="310" on="0"/>
        <pt x="194" y="340" on="0"/>
        <pt x="163" y="390" on="0"/>
        <pt x="163" y="429" on="1"/>
        <pt x="163" y="466" on="0"/>
        <pt x="199" y="536" on="0"/>
        <pt x="260" y="590" on="0"/>
        <pt x="342" y="622" on="0"/>
        <pt x="387" y="622" on="1"/>
        <pt x="398" y="622" on="0"/>
        <pt x="429" y="619" on="0"/>
        <pt x="465" y="610" on="0"/>
        <pt x="503" y="591" on="0"/>
        <pt x="519" y="574" on="1"/>
        <pt x="526" y="588" on="0"/>
        <pt x="536" y="603" on="1"/>
        <pt x="541" y="611" on="0"/>
        <pt x="552" y="622" on="0"/>
        <pt x="565" y="622" on="1"/>
        <pt x="582" y="622" on="0"/>
        <pt x="595" y="602" on="0"/>
        <pt x="595" y="594" on="1"/>
        <pt x="595" y="592" on="0"/>
        <pt x="593" y="582" on="0"/>
        <pt x="592" y="580" on="1"/>
      </contour>
    </TTGlyph>
    <TTGlyph name="Sigma" xMin="47" yMin="0" xMax="631" yMax="611">
      <contour>
        <pt x="156" y="63" on="1"/>
        <pt x="431" y="63" on="1"/>
        <pt x="445" y="120" on="1"/>
        <pt x="450" y="139" on="0"/>
        <pt x="461" y="157" on="0"/>
        <pt x="483" y="157" on="1"/>
        <pt x="517" y="157" on="0"/>
        <pt x="517" y="129" on="1"/>
        <pt x="517" y="127" on="0"/>
        <pt x="513" y="109" on="0"/>
        <pt x="507" y="85" on="0"/>
        <pt x="501" y="58" on="0"/>
        <pt x="498" y="48" on="1"/>
        <pt x="494" y="32" on="0"/>
        <pt x="488" y="12" on="0"/>
        <pt x="479" y="3" on="0"/>
        <pt x="465" y="0" on="0"/>
        <pt x="452" y="0" on="1"/>
        <pt x="88" y="0" on="1"/>
        <pt x="83" y="0" on="0"/>
        <pt x="69" y="1" on="0"/>
        <pt x="56" y="6" on="0"/>
        <pt x="47" y="18" on="0"/>
        <pt x="47" y="28" on="1"/>
        <pt x="47" y="36" on="0"/>
        <pt x="53" y="44" on="0"/>
        <pt x="59" y="52" on="1"/>
        <pt x="274" y="311" on="1"/>
        <pt x="189" y="562" on="1"/>
        <pt x="184" y="576" on="0"/>
        <pt x="184" y="578" on="1"/>
        <pt x="184" y="590" on="0"/>
        <pt x="193" y="604" on="0"/>
        <pt x="207" y="610" on="0"/>
        <pt x="221" y="611" on="0"/>
        <pt x="226" y="611" on="1"/>
        <pt x="590" y="611" on="1"/>
        <pt x="595" y="611" on="0"/>
        <pt x="609" y="610" on="0"/>
        <pt x="622" y="605" on="0"/>
        <pt x="631" y="594" on="0"/>
        <pt x="631" y="583" on="1"/>
        <pt x="631" y="580" on="0"/>
        <pt x="629" y="571" on="0"/>
        <pt x="628" y="568" on="1"/>
        <pt x="607" y="484" on="1"/>
        <pt x="602" y="466" on="0"/>
        <pt x="586" y="456" on="0"/>
        <pt x="572" y="456" on="1"/>
        <pt x="570" y="456" on="0"/>
        <pt x="558" y="457" on="0"/>
        <pt x="546" y="462" on="0"/>
        <pt x="537" y="474" on="0"/>
        <pt x="537" y="484" on="1"/>
        <pt x="537" y="485" on="0"/>
        <pt x="540" y="500" on="0"/>
        <pt x="545" y="520" on="0"/>
        <pt x="550" y="542" on="0"/>
        <pt x="552" y="550" on="1"/>
        <pt x="267" y="550" on="1"/>
        <pt x="344" y="324" on="1"/>
        <pt x="348" y="314" on="0"/>
        <pt x="349" y="308" on="0"/>
        <pt x="349" y="306" on="1"/>
        <pt x="349" y="298" on="0"/>
        <pt x="343" y="289" on="0"/>
        <pt x="337" y="281" on="1"/>
      </contour>
    </TTGlyph>
    <TTGlyph name="T" xMin="143" yMin="0" xMax="645" yMax="611">
      <contour>
        <pt x="313" y="61" on="1"/>
        <pt x="357" y="61" on="1"/>
        <pt x="362" y="61" on="0"/>
        <pt x="376" y="60" on="0"/>
        <pt x="389" y="55" on="0"/>
        <pt x="398" y="44" on="0"/>
        <pt x="398" y="33" on="1"/>
        <pt x="398" y="21" on="0"/>
        <pt x="389" y="7" on="0"/>
        <pt x="375" y="1" on="0"/>
        <pt x="361" y="0" on="0"/>
        <pt x="356" y="0" on="1"/>
        <pt x="183" y="0" on="1"/>
        <pt x="178" y="0" on="0"/>
        <pt x="164" y="1" on="0"/>
        <pt x="152" y="6" on="0"/>
        <pt x="143" y="18" on="0"/>
        <pt x="143" y="28" on="1"/>
        <pt x="143" y="40" on="0"/>
        <pt x="152" y="54" on="0"/>
        <pt x="164" y="60" on="0"/>
        <pt x="178" y="61" on="0"/>
        <pt x="184" y="61" on="1"/>
        <pt x="243" y="61" on="1"/>
        <pt x="365" y="550" on="1"/>
        <pt x="233" y="550" on="1"/>
        <pt x="217" y="484" on="1"/>
        <pt x="212" y="467" on="0"/>
        <pt x="197" y="456" on="0"/>
        <pt x="182" y="456" on="1"/>
        <pt x="180" y="456" on="0"/>
        <pt x="168" y="457" on="0"/>
        <pt x="156" y="462" on="0"/>
        <pt x="147" y="474" on="0"/>
        <pt x="147" y="484" on="1"/>
        <pt x="147" y="486" on="0"/>
        <pt x="148" y="491" on="0"/>
        <pt x="150" y="499" on="1"/>
        <pt x="170" y="580" on="1"/>
        <pt x="176" y="603" on="0"/>
        <pt x="195" y="611" on="0"/>
        <pt x="212" y="611" on="1"/>
        <pt x="604" y="611" on="1"/>
        <pt x="609" y="611" on="0"/>
        <pt x="623" y="610" on="0"/>
        <pt x="636" y="605" on="0"/>
        <pt x="645" y="594" on="0"/>
        <pt x="645" y="583" on="1"/>
        <pt x="645" y="580" on="0"/>
        <pt x="643" y="571" on="0"/>
        <pt x="642" y="568" on="1"/>
        <pt x="621" y="484" on="1"/>
        <pt x="616" y="466" on="0"/>
        <pt x="600" y="456" on="0"/>
        <pt x="586" y="456" on="1"/>
        <pt x="584" y="456" on="0"/>
        <pt x="572" y="457" on="0"/>
        <pt x="560" y="462" on="0"/>
        <pt x="551" y="474" on="0"/>
        <pt x="551" y="484" on="1"/>
        <pt x="551" y="485" on="0"/>
        <pt x="554" y="500" on="0"/>
        <pt x="559" y="520" on="0"/>
        <pt x="564" y="542" on="0"/>
        <pt x="566" y="550" on="1"/>
        <pt x="435" y="550" on="1"/>
      </contour>
    </TTGlyph>
    <TTGlyph name="Theta" xMin="92" yMin="-11" xMax="586" yMax="622">
      <contour>
        <pt x="586" y="526" on="1"/>
        <pt x="586" y="506" on="0"/>
        <pt x="576" y="439" on="0"/>
        <pt x="559" y="359" on="0"/>
        <pt x="538" y="273" on="0"/>
        <pt x="515" y="194" on="0"/>
        <pt x="494" y="128" on="0"/>
        <pt x="486" y="109" on="1"/>
        <pt x="470" y="71" on="0"/>
        <pt x="434" y="24" on="0"/>
        <pt x="383" y="-2" on="0"/>
        <pt x="312" y="-11" on="0"/>
        <pt x="260" y="-11" on="1"/>
        <pt x="215" y="-11" on="0"/>
        <pt x="151" y="-4" on="0"/>
        <pt x="110" y="16" on="0"/>
        <pt x="92" y="54" on="0"/>
        <pt x="92" y="85" on="1"/>
        <pt x="92" y="107" on="0"/>
        <pt x="102" y="175" on="0"/>
        <pt x="119" y="255" on="0"/>
        <pt x="140" y="340" on="0"/>
        <pt x="162" y="416" on="0"/>
        <pt x="181" y="478" on="0"/>
        <pt x="188" y="494" on="1"/>
        <pt x="205" y="534" on="0"/>
        <pt x="239" y="584" on="0"/>
        <pt x="290" y="612" on="0"/>
        <pt x="363" y="622" on="0"/>
        <pt x="418" y="622" on="1"/>
        <pt x="462" y="622" on="0"/>
        <pt x="526" y="616" on="0"/>
        <pt x="567" y="596" on="0"/>
        <pt x="586" y="558" on="0"/>
      </contour>
      <contour>
        <pt x="275" y="50" on="1"/>
        <pt x="310" y="50" on="0"/>
        <pt x="358" y="58" on="0"/>
        <pt x="393" y="79" on="0"/>
        <pt x="417" y="115" on="0"/>
        <pt x="428" y="143" on="1"/>
        <pt x="435" y="159" on="0"/>
        <pt x="452" y="213" on="0"/>
        <pt x="470" y="279" on="0"/>
        <pt x="488" y="351" on="0"/>
        <pt x="502" y="418" on="0"/>
        <pt x="511" y="475" on="0"/>
        <pt x="511" y="492" on="1"/>
        <pt x="511" y="512" on="0"/>
        <pt x="502" y="538" on="0"/>
        <pt x="477" y="554" on="0"/>
        <pt x="435" y="561" on="0"/>
        <pt x="402" y="561" on="1"/>
        <pt x="362" y="561" on="0"/>
        <pt x="310" y="550" on="0"/>
        <pt x="276" y="523" on="0"/>
        <pt x="253" y="479" on="0"/>
        <pt x="241" y="446" on="1"/>
        <pt x="238" y="437" on="0"/>
        <pt x="224" y="393" on="0"/>
        <pt x="208" y="333" on="0"/>
        <pt x="190" y="264" on="0"/>
        <pt x="176" y="197" on="0"/>
        <pt x="167" y="139" on="0"/>
        <pt x="167" y="120" on="1"/>
        <pt x="167" y="101" on="0"/>
        <pt x="175" y="75" on="0"/>
        <pt x="198" y="58" on="0"/>
        <pt x="240" y="50" on="0"/>
      </contour>
      <contour>
        <pt x="430" y="271" on="1"/>
        <pt x="425" y="251" on="0"/>
        <pt x="408" y="241" on="0"/>
        <pt x="394" y="241" on="1"/>
        <pt x="386" y="241" on="0"/>
        <pt x="361" y="249" on="0"/>
        <pt x="359" y="272" on="1"/>
        <pt x="302" y="272" on="1"/>
        <pt x="301" y="260" on="0"/>
        <pt x="291" y="248" on="0"/>
        <pt x="280" y="242" on="0"/>
        <pt x="269" y="241" on="0"/>
        <pt x="266" y="241" on="1"/>
        <pt x="243" y="241" on="0"/>
        <pt x="231" y="261" on="0"/>
        <pt x="231" y="269" on="1"/>
        <pt x="231" y="272" on="0"/>
        <pt x="233" y="280" on="0"/>
        <pt x="234" y="284" on="1"/>
        <pt x="248" y="341" on="1"/>
        <pt x="253" y="361" on="0"/>
        <pt x="271" y="370" on="0"/>
        <pt x="284" y="370" on="1"/>
        <pt x="292" y="370" on="0"/>
        <pt x="317" y="362" on="0"/>
        <pt x="319" y="339" on="1"/>
        <pt x="376" y="339" on="1"/>
        <pt x="377" y="351" on="0"/>
        <pt x="386" y="363" on="0"/>
        <pt x="397" y="369" on="0"/>
        <pt x="409" y="370" on="0"/>
        <pt x="412" y="370" on="1"/>
        <pt x="435" y="370" on="0"/>
        <pt x="447" y="350" on="0"/>
        <pt x="447" y="342" on="1"/>
        <pt x="447" y="340" on="0"/>
        <pt x="445" y="332" on="0"/>
        <pt x="444" y="328" on="1"/>
      </contour>
    </TTGlyph>
    <TTGlyph name="U" xMin="119" yMin="-11" xMax="667" yMax="611">
      <contour>
        <pt x="500" y="195" on="1"/>
        <pt x="490" y="156" on="0"/>
        <pt x="445" y="81" on="0"/>
        <pt x="383" y="24" on="0"/>
        <pt x="307" y="-11" on="0"/>
        <pt x="267" y="-11" on="1"/>
        <pt x="234" y="-11" on="0"/>
        <pt x="180" y="13" on="0"/>
        <pt x="141" y="57" on="0"/>
        <pt x="119" y="116" on="0"/>
        <pt x="119" y="151" on="1"/>
        <pt x="119" y="156" on="0"/>
        <pt x="121" y="188" on="0"/>
        <pt x="127" y="212" on="1"/>
        <pt x="211" y="550" on="1"/>
        <pt x="189" y="550" on="1"/>
        <pt x="184" y="550" on="0"/>
        <pt x="170" y="551" on="0"/>
        <pt x="158" y="556" on="0"/>
        <pt x="149" y="568" on="0"/>
        <pt x="149" y="578" on="1"/>
        <pt x="149" y="590" on="0"/>
        <pt x="158" y="604" on="0"/>
        <pt x="170" y="610" on="0"/>
        <pt x="184" y="611" on="0"/>
        <pt x="190" y="611" on="1"/>
        <pt x="320" y="611" on="1"/>
        <pt x="325" y="611" on="0"/>
        <pt x="339" y="610" on="0"/>
        <pt x="352" y="605" on="0"/>
        <pt x="361" y="594" on="0"/>
        <pt x="361" y="583" on="1"/>
        <pt x="361" y="571" on="0"/>
        <pt x="352" y="557" on="0"/>
        <pt x="338" y="551" on="0"/>
        <pt x="324" y="550" on="0"/>
        <pt x="319" y="550" on="1"/>
        <pt x="282" y="550" on="1"/>
        <pt x="194" y="196" on="1"/>
        <pt x="188" y="169" on="0"/>
        <pt x="188" y="150" on="1"/>
        <pt x="188" y="104" on="0"/>
        <pt x="232" y="50" on="0"/>
        <pt x="268" y="50" on="1"/>
        <pt x="292" y="50" on="0"/>
        <pt x="343" y="74" on="0"/>
        <pt x="389" y="117" on="0"/>
        <pt x="424" y="176" on="0"/>
        <pt x="433" y="211" on="1"/>
        <pt x="517" y="550" on="1"/>
        <pt x="495" y="550" on="1"/>
        <pt x="490" y="550" on="0"/>
        <pt x="476" y="551" on="0"/>
        <pt x="464" y="556" on="0"/>
        <pt x="455" y="568" on="0"/>
        <pt x="455" y="578" on="1"/>
        <pt x="455" y="590" on="0"/>
        <pt x="464" y="604" on="0"/>
        <pt x="476" y="610" on="0"/>
        <pt x="490" y="611" on="0"/>
        <pt x="496" y="611" on="1"/>
        <pt x="626" y="611" on="1"/>
        <pt x="631" y="611" on="0"/>
        <pt x="645" y="610" on="0"/>
        <pt x="658" y="605" on="0"/>
        <pt x="667" y="594" on="0"/>
        <pt x="667" y="583" on="1"/>
        <pt x="667" y="571" on="0"/>
        <pt x="658" y="557" on="0"/>
        <pt x="644" y="551" on="0"/>
        <pt x="630" y="550" on="0"/>
        <pt x="625" y="550" on="1"/>
        <pt x="588" y="550" on="1"/>
      </contour>
    </TTGlyph>
    <TTGlyph name="Upsilon" xMin="159" yMin="0" xMax="614" yMax="622">
      <contour>
        <pt x="313" y="61" on="1"/>
        <pt x="341" y="61" on="1"/>
        <pt x="346" y="61" on="0"/>
        <pt x="360" y="60" on="0"/>
        <pt x="372" y="55" on="0"/>
        <pt x="381" y="44" on="0"/>
        <pt x="381" y="33" on="1"/>
        <pt x="381" y="21" on="0"/>
        <pt x="372" y="7" on="0"/>
        <pt x="359" y="1" on="0"/>
        <pt x="345" y="0" on="0"/>
        <pt x="339" y="0" on="1"/>
        <pt x="200" y="0" on="1"/>
        <pt x="195" y="0" on="0"/>
        <pt x="181" y="1" on="0"/>
        <pt x="168" y="6" on="0"/>
        <pt x="159" y="18" on="0"/>
        <pt x="159" y="28" on="1"/>
        <pt x="159" y="40" on="0"/>
        <pt x="168" y="54" on="0"/>
        <pt x="181" y="60" on="0"/>
        <pt x="195" y="61" on="0"/>
        <pt x="201" y="61" on="1"/>
        <pt x="243" y="61" on="1"/>
        <pt x="303" y="304" on="1"/>
        <pt x="313" y="345" on="0"/>
        <pt x="327" y="403" on="0"/>
        <pt x="336" y="447" on="0"/>
        <pt x="340" y="482" on="0"/>
        <pt x="340" y="500" on="1"/>
        <pt x="340" y="532" on="0"/>
        <pt x="320" y="570" on="0"/>
        <pt x="296" y="570" on="1"/>
        <pt x="283" y="570" on="0"/>
        <pt x="262" y="556" on="0"/>
        <pt x="245" y="534" on="0"/>
        <pt x="234" y="507" on="0"/>
        <pt x="230" y="494" on="1"/>
        <pt x="225" y="474" on="0"/>
        <pt x="204" y="461" on="0"/>
        <pt x="188" y="461" on="1"/>
        <pt x="182" y="461" on="0"/>
        <pt x="159" y="466" on="0"/>
        <pt x="159" y="482" on="1"/>
        <pt x="159" y="494" on="0"/>
        <pt x="180" y="541" on="0"/>
        <pt x="219" y="588" on="0"/>
        <pt x="274" y="622" on="0"/>
        <pt x="308" y="622" on="1"/>
        <pt x="337" y="622" on="0"/>
        <pt x="367" y="599" on="0"/>
        <pt x="382" y="566" on="0"/>
        <pt x="384" y="531" on="0"/>
        <pt x="384" y="520" on="1"/>
        <pt x="384" y="518" on="0"/>
        <pt x="384" y="491" on="0"/>
        <pt x="383" y="483" on="1"/>
        <pt x="384" y="483" on="1"/>
        <pt x="413" y="560" on="0"/>
        <pt x="487" y="622" on="0"/>
        <pt x="527" y="622" on="1"/>
        <pt x="570" y="622" on="0"/>
        <pt x="614" y="565" on="0"/>
        <pt x="614" y="526" on="1"/>
        <pt x="614" y="503" on="0"/>
        <pt x="605" y="477" on="0"/>
        <pt x="591" y="464" on="0"/>
        <pt x="575" y="461" on="0"/>
        <pt x="568" y="461" on="1"/>
        <pt x="562" y="461" on="0"/>
        <pt x="539" y="466" on="0"/>
        <pt x="539" y="482" on="1"/>
        <pt x="539" y="484" on="0"/>
        <pt x="541" y="492" on="0"/>
        <pt x="541" y="494" on="1"/>
        <pt x="543" y="503" on="0"/>
        <pt x="546" y="516" on="0"/>
        <pt x="546" y="527" on="1"/>
        <pt x="546" y="543" on="0"/>
        <pt x="533" y="570" on="0"/>
        <pt x="513" y="570" on="1"/>
        <pt x="495" y="570" on="0"/>
        <pt x="463" y="545" on="0"/>
        <pt x="437" y="506" on="0"/>
        <pt x="417" y="460" on="0"/>
        <pt x="402" y="418" on="0"/>
        <pt x="394" y="387" on="0"/>
        <pt x="393" y="383" on="1"/>
      </contour>
    </TTGlyph>
    <TTGlyph name="V" xMin="163" yMin="-8" xMax="653" yMax="611">
      <contour>
        <pt x="322" y="25" on="1"/>
        <pt x="309" y="0" on="0"/>
        <pt x="281" y="-8" on="0"/>
        <pt x="261" y="-8" on="1"/>
        <pt x="244" y="-8" on="0"/>
        <pt x="226" y="-4" on="0"/>
        <pt x="217" y="6" on="0"/>
        <pt x="215" y="24" on="0"/>
        <pt x="215" y="38" on="1"/>
        <pt x="215" y="107" on="1"/>
        <pt x="212" y="313" on="0"/>
        <pt x="212" y="517" on="1"/>
        <pt x="212" y="550" on="1"/>
        <pt x="194" y="550" on="0"/>
        <pt x="163" y="557" on="0"/>
        <pt x="163" y="578" on="1"/>
        <pt x="163" y="590" on="0"/>
        <pt x="172" y="604" on="0"/>
        <pt x="184" y="610" on="0"/>
        <pt x="198" y="611" on="0"/>
        <pt x="204" y="611" on="1"/>
        <pt x="307" y="611" on="1"/>
        <pt x="312" y="611" on="0"/>
        <pt x="326" y="610" on="0"/>
        <pt x="339" y="605" on="0"/>
        <pt x="348" y="594" on="0"/>
        <pt x="348" y="583" on="1"/>
        <pt x="348" y="571" on="0"/>
        <pt x="339" y="557" on="0"/>
        <pt x="325" y="551" on="0"/>
        <pt x="311" y="550" on="0"/>
        <pt x="306" y="550" on="1"/>
        <pt x="283" y="550" on="1"/>
        <pt x="284" y="542" on="0"/>
        <pt x="284" y="527" on="0"/>
        <pt x="284" y="519" on="1"/>
        <pt x="284" y="195" on="1"/>
        <pt x="284" y="182" on="0"/>
        <pt x="284" y="149" on="0"/>
        <pt x="283" y="116" on="0"/>
        <pt x="282" y="86" on="0"/>
        <pt x="280" y="74" on="1"/>
        <pt x="281" y="73" on="1"/>
        <pt x="287" y="87" on="0"/>
        <pt x="304" y="124" on="0"/>
        <pt x="323" y="163" on="0"/>
        <pt x="341" y="199" on="0"/>
        <pt x="348" y="213" on="1"/>
        <pt x="516" y="550" on="1"/>
        <pt x="499" y="550" on="0"/>
        <pt x="468" y="557" on="0"/>
        <pt x="468" y="578" on="1"/>
        <pt x="468" y="590" on="0"/>
        <pt x="477" y="604" on="0"/>
        <pt x="489" y="610" on="0"/>
        <pt x="503" y="611" on="0"/>
        <pt x="509" y="611" on="1"/>
        <pt x="612" y="611" on="1"/>
        <pt x="617" y="611" on="0"/>
        <pt x="631" y="610" on="0"/>
        <pt x="644" y="605" on="0"/>
        <pt x="653" y="594" on="0"/>
        <pt x="653" y="583" on="1"/>
        <pt x="653" y="571" on="0"/>
        <pt x="644" y="557" on="0"/>
        <pt x="630" y="551" on="0"/>
        <pt x="616" y="550" on="0"/>
        <pt x="611" y="550" on="1"/>
        <pt x="588" y="550" on="1"/>
      </contour>
    </TTGlyph>
    <TTGlyph name="W" xMin="127" yMin="-8" xMax="659" yMax="611">
      <contour>
        <pt x="410" y="27" on="1"/>
        <pt x="406" y="16" on="0"/>
        <pt x="388" y="-8" on="0"/>
        <pt x="362" y="-8" on="1"/>
        <pt x="336" y="-8" on="0"/>
        <pt x="327" y="15" on="0"/>
        <pt x="327" y="35" on="1"/>
        <pt x="327" y="49" on="0"/>
        <pt x="328" y="86" on="0"/>
        <pt x="329" y="125" on="0"/>
        <pt x="330" y="163" on="0"/>
        <pt x="331" y="177" on="1"/>
        <pt x="332" y="220" on="0"/>
        <pt x="334" y="279" on="0"/>
        <pt x="336" y="293" on="1"/>
        <pt x="335" y="294" on="1"/>
        <pt x="332" y="285" on="0"/>
        <pt x="318" y="252" on="0"/>
        <pt x="301" y="216" on="0"/>
        <pt x="286" y="184" on="0"/>
        <pt x="282" y="176" on="1"/>
        <pt x="278" y="168" on="0"/>
        <pt x="264" y="137" on="0"/>
        <pt x="248" y="104" on="0"/>
        <pt x="234" y="73" on="0"/>
        <pt x="230" y="64" on="1"/>
        <pt x="219" y="41" on="0"/>
        <pt x="204" y="13" on="0"/>
        <pt x="190" y="-3" on="0"/>
        <pt x="173" y="-8" on="0"/>
        <pt x="160" y="-8" on="1"/>
        <pt x="157" y="-8" on="0"/>
        <pt x="145" y="-7" on="0"/>
        <pt x="135" y="-3" on="0"/>
        <pt x="127" y="8" on="0"/>
        <pt x="127" y="17" on="1"/>
        <pt x="129" y="30" on="1"/>
        <pt x="186" y="550" on="1"/>
        <pt x="176" y="551" on="0"/>
        <pt x="164" y="558" on="0"/>
        <pt x="158" y="567" on="0"/>
        <pt x="156" y="575" on="0"/>
        <pt x="156" y="578" on="1"/>
        <pt x="156" y="590" on="0"/>
        <pt x="165" y="604" on="0"/>
        <pt x="178" y="610" on="0"/>
        <pt x="192" y="611" on="0"/>
        <pt x="198" y="611" on="1"/>
        <pt x="277" y="611" on="1"/>
        <pt x="282" y="611" on="0"/>
        <pt x="296" y="610" on="0"/>
        <pt x="308" y="605" on="0"/>
        <pt x="317" y="594" on="0"/>
        <pt x="317" y="583" on="1"/>
        <pt x="317" y="571" on="0"/>
        <pt x="308" y="557" on="0"/>
        <pt x="295" y="551" on="0"/>
        <pt x="281" y="550" on="0"/>
        <pt x="275" y="550" on="1"/>
        <pt x="243" y="550" on="1"/>
        <pt x="203" y="200" on="1"/>
        <pt x="198" y="163" on="0"/>
        <pt x="192" y="108" on="0"/>
        <pt x="185" y="76" on="1"/>
        <pt x="186" y="76" on="1"/>
        <pt x="191" y="91" on="0"/>
        <pt x="217" y="153" on="0"/>
        <pt x="248" y="220" on="0"/>
        <pt x="276" y="279" on="0"/>
        <pt x="282" y="292" on="1"/>
        <pt x="294" y="317" on="0"/>
        <pt x="309" y="346" on="0"/>
        <pt x="324" y="362" on="0"/>
        <pt x="341" y="367" on="0"/>
        <pt x="354" y="367" on="1"/>
        <pt x="360" y="367" on="0"/>
        <pt x="372" y="366" on="0"/>
        <pt x="383" y="360" on="0"/>
        <pt x="390" y="346" on="0"/>
        <pt x="390" y="333" on="1"/>
        <pt x="390" y="299" on="0"/>
        <pt x="388" y="224" on="0"/>
        <pt x="386" y="190" on="1"/>
        <pt x="385" y="178" on="0"/>
        <pt x="383" y="146" on="0"/>
        <pt x="381" y="113" on="0"/>
        <pt x="378" y="84" on="0"/>
        <pt x="376" y="76" on="1"/>
        <pt x="377" y="76" on="1"/>
        <pt x="383" y="93" on="0"/>
        <pt x="399" y="136" on="0"/>
        <pt x="415" y="179" on="0"/>
        <pt x="429" y="216" on="0"/>
        <pt x="433" y="227" on="1"/>
        <pt x="557" y="550" on="1"/>
        <pt x="539" y="550" on="1"/>
        <pt x="534" y="550" on="0"/>
        <pt x="520" y="551" on="0"/>
        <pt x="507" y="556" on="0"/>
        <pt x="498" y="568" on="0"/>
        <pt x="498" y="578" on="1"/>
        <pt x="498" y="590" on="0"/>
        <pt x="507" y="604" on="0"/>
        <pt x="520" y="610" on="0"/>
        <pt x="534" y="611" on="0"/>
        <pt x="540" y="611" on="1"/>
        <pt x="619" y="611" on="1"/>
        <pt x="624" y="611" on="0"/>
        <pt x="638" y="610" on="0"/>
        <pt x="650" y="605" on="0"/>
        <pt x="659" y="594" on="0"/>
        <pt x="659" y="583" on="1"/>
        <pt x="659" y="571" on="0"/>
        <pt x="651" y="557" on="0"/>
        <pt x="637" y="551" on="0"/>
        <pt x="621" y="550" on="0"/>
        <pt x="613" y="550" on="1"/>
      </contour>
    </TTGlyph>
    <TTGlyph name="X" xMin="34" yMin="0" xMax="613" yMax="611">
      <contour>
        <pt x="373" y="325" on="1"/>
        <pt x="448" y="61" on="1"/>
        <pt x="473" y="61" on="0"/>
        <pt x="505" y="54" on="0"/>
        <pt x="505" y="33" on="1"/>
        <pt x="505" y="21" on="0"/>
        <pt x="496" y="7" on="0"/>
        <pt x="483" y="1" on="0"/>
        <pt x="469" y="0" on="0"/>
        <pt x="463" y="0" on="1"/>
        <pt x="359" y="0" on="1"/>
        <pt x="354" y="0" on="0"/>
        <pt x="340" y="1" on="0"/>
        <pt x="328" y="6" on="0"/>
        <pt x="319" y="18" on="0"/>
        <pt x="319" y="28" on="1"/>
        <pt x="319" y="53" on="0"/>
        <pt x="349" y="61" on="0"/>
        <pt x="372" y="61" on="1"/>
        <pt x="321" y="255" on="1"/>
        <pt x="181" y="61" on="1"/>
        <pt x="185" y="61" on="0"/>
        <pt x="198" y="60" on="0"/>
        <pt x="211" y="55" on="0"/>
        <pt x="220" y="44" on="0"/>
        <pt x="220" y="33" on="1"/>
        <pt x="220" y="21" on="0"/>
        <pt x="211" y="7" on="0"/>
        <pt x="198" y="1" on="0"/>
        <pt x="184" y="0" on="0"/>
        <pt x="178" y="0" on="1"/>
        <pt x="75" y="0" on="1"/>
        <pt x="70" y="0" on="0"/>
        <pt x="56" y="1" on="0"/>
        <pt x="43" y="6" on="0"/>
        <pt x="34" y="18" on="0"/>
        <pt x="34" y="28" on="1"/>
        <pt x="34" y="40" on="0"/>
        <pt x="43" y="54" on="0"/>
        <pt x="56" y="60" on="0"/>
        <pt x="70" y="61" on="0"/>
        <pt x="76" y="61" on="1"/>
        <pt x="105" y="61" on="1"/>
        <pt x="304" y="325" on="1"/>
        <pt x="240" y="550" on="1"/>
        <pt x="223" y="550" on="1"/>
        <pt x="218" y="550" on="0"/>
        <pt x="204" y="551" on="0"/>
        <pt x="192" y="556" on="0"/>
        <pt x="183" y="568" on="0"/>
        <pt x="183" y="578" on="1"/>
        <pt x="183" y="590" on="0"/>
        <pt x="192" y="604" on="0"/>
        <pt x="205" y="610" on="0"/>
        <pt x="219" y="611" on="0"/>
        <pt x="225" y="611" on="1"/>
        <pt x="329" y="611" on="1"/>
        <pt x="334" y="611" on="0"/>
        <pt x="348" y="610" on="0"/>
        <pt x="360" y="605" on="0"/>
        <pt x="369" y="594" on="0"/>
        <pt x="369" y="583" on="1"/>
        <pt x="369" y="558" on="0"/>
        <pt x="338" y="550" on="0"/>
        <pt x="317" y="550" on="1"/>
        <pt x="358" y="404" on="1"/>
        <pt x="466" y="550" on="1"/>
        <pt x="462" y="550" on="0"/>
        <pt x="449" y="551" on="0"/>
        <pt x="436" y="556" on="0"/>
        <pt x="427" y="568" on="0"/>
        <pt x="427" y="578" on="1"/>
        <pt x="427" y="590" on="0"/>
        <pt x="436" y="604" on="0"/>
        <pt x="450" y="610" on="0"/>
        <pt x="464" y="611" on="0"/>
        <pt x="469" y="611" on="1"/>
        <pt x="573" y="611" on="1"/>
        <pt x="578" y="611" on="0"/>
        <pt x="592" y="610" on="0"/>
        <pt x="604" y="605" on="0"/>
        <pt x="613" y="594" on="0"/>
        <pt x="613" y="583" on="1"/>
        <pt x="613" y="571" on="0"/>
        <pt x="604" y="557" on="0"/>
        <pt x="592" y="551" on="0"/>
        <pt x="578" y="550" on="0"/>
        <pt x="572" y="550" on="1"/>
        <pt x="542" y="550" on="1"/>
      </contour>
    </TTGlyph>
    <TTGlyph name="Xi" xMin="40" yMin="0" xMax="634" yMax="611">
      <contour>
        <pt x="593" y="611" on="1"/>
        <pt x="598" y="611" on="0"/>
        <pt x="612" y="610" on="0"/>
        <pt x="625" y="605" on="0"/>
        <pt x="634" y="594" on="0"/>
        <pt x="634" y="583" on="1"/>
        <pt x="634" y="581" on="0"/>
        <pt x="631" y="569" on="0"/>
        <pt x="628" y="554" on="0"/>
        <pt x="624" y="540" on="0"/>
        <pt x="623" y="535" on="1"/>
        <pt x="618" y="520" on="0"/>
        <pt x="603" y="510" on="0"/>
        <pt x="588" y="510" on="1"/>
        <pt x="565" y="510" on="0"/>
        <pt x="553" y="530" on="0"/>
        <pt x="553" y="538" on="1"/>
        <pt x="553" y="540" on="0"/>
        <pt x="555" y="550" on="0"/>
        <pt x="556" y="552" on="1"/>
        <pt x="245" y="552" on="1"/>
        <pt x="244" y="536" on="0"/>
        <pt x="234" y="519" on="0"/>
        <pt x="223" y="511" on="0"/>
        <pt x="211" y="510" on="0"/>
        <pt x="206" y="510" on="1"/>
        <pt x="183" y="510" on="0"/>
        <pt x="171" y="530" on="0"/>
        <pt x="171" y="538" on="1"/>
        <pt x="171" y="540" on="0"/>
        <pt x="174" y="555" on="0"/>
        <pt x="179" y="572" on="0"/>
        <pt x="183" y="587" on="0"/>
        <pt x="184" y="590" on="1"/>
        <pt x="189" y="606" on="0"/>
        <pt x="211" y="611" on="0"/>
        <pt x="223" y="611" on="1"/>
      </contour>
      <contour>
        <pt x="437" y="59" on="1"/>
        <pt x="442" y="91" on="0"/>
        <pt x="461" y="106" on="0"/>
        <pt x="477" y="106" on="1"/>
        <pt x="499" y="106" on="0"/>
        <pt x="512" y="86" on="0"/>
        <pt x="512" y="78" on="1"/>
        <pt x="512" y="77" on="0"/>
        <pt x="509" y="62" on="0"/>
        <pt x="504" y="44" on="0"/>
        <pt x="500" y="28" on="0"/>
        <pt x="499" y="25" on="1"/>
        <pt x="494" y="6" on="0"/>
        <pt x="473" y="0" on="0"/>
        <pt x="459" y="0" on="1"/>
        <pt x="81" y="0" on="1"/>
        <pt x="76" y="0" on="0"/>
        <pt x="62" y="1" on="0"/>
        <pt x="49" y="6" on="0"/>
        <pt x="40" y="18" on="0"/>
        <pt x="40" y="28" on="1"/>
        <pt x="40" y="33" on="0"/>
        <pt x="48" y="64" on="0"/>
        <pt x="52" y="81" on="1"/>
        <pt x="57" y="100" on="0"/>
        <pt x="78" y="106" on="0"/>
        <pt x="87" y="106" on="1"/>
        <pt x="110" y="106" on="0"/>
        <pt x="122" y="86" on="0"/>
        <pt x="122" y="78" on="1"/>
        <pt x="122" y="73" on="0"/>
        <pt x="119" y="63" on="0"/>
        <pt x="118" y="59" on="1"/>
      </contour>
      <contour>
        <pt x="433" y="347" on="1"/>
        <pt x="434" y="360" on="0"/>
        <pt x="443" y="374" on="0"/>
        <pt x="454" y="381" on="0"/>
        <pt x="466" y="382" on="0"/>
        <pt x="470" y="382" on="1"/>
        <pt x="473" y="382" on="0"/>
        <pt x="484" y="381" on="0"/>
        <pt x="496" y="376" on="0"/>
        <pt x="505" y="365" on="0"/>
        <pt x="505" y="354" on="1"/>
        <pt x="505" y="353" on="0"/>
        <pt x="501" y="335" on="0"/>
        <pt x="496" y="314" on="0"/>
        <pt x="491" y="295" on="0"/>
        <pt x="490" y="292" on="1"/>
        <pt x="484" y="269" on="0"/>
        <pt x="473" y="253" on="0"/>
        <pt x="452" y="253" on="1"/>
        <pt x="437" y="253" on="0"/>
        <pt x="423" y="262" on="0"/>
        <pt x="418" y="272" on="0"/>
        <pt x="418" y="282" on="0"/>
        <pt x="418" y="282" on="1"/>
        <pt x="418" y="288" on="1"/>
        <pt x="251" y="288" on="1"/>
        <pt x="250" y="275" on="0"/>
        <pt x="241" y="261" on="0"/>
        <pt x="229" y="254" on="0"/>
        <pt x="217" y="253" on="0"/>
        <pt x="214" y="253" on="1"/>
        <pt x="211" y="253" on="0"/>
        <pt x="200" y="254" on="0"/>
        <pt x="188" y="259" on="0"/>
        <pt x="179" y="271" on="0"/>
        <pt x="179" y="281" on="1"/>
        <pt x="179" y="284" on="0"/>
        <pt x="181" y="292" on="0"/>
        <pt x="182" y="296" on="1"/>
        <pt x="196" y="353" on="1"/>
        <pt x="201" y="375" on="0"/>
        <pt x="221" y="382" on="0"/>
        <pt x="232" y="382" on="1"/>
        <pt x="245" y="382" on="0"/>
        <pt x="259" y="376" on="0"/>
        <pt x="265" y="365" on="0"/>
        <pt x="266" y="353" on="0"/>
        <pt x="266" y="347" on="1"/>
      </contour>
    </TTGlyph>
    <TTGlyph name="Y" xMin="163" yMin="0" xMax="652" yMax="611">
      <contour>
        <pt x="358" y="244" on="1"/>
        <pt x="312" y="61" on="1"/>
        <pt x="330" y="61" on="1"/>
        <pt x="335" y="61" on="0"/>
        <pt x="349" y="60" on="0"/>
        <pt x="362" y="55" on="0"/>
        <pt x="371" y="44" on="0"/>
        <pt x="371" y="33" on="1"/>
        <pt x="371" y="21" on="0"/>
        <pt x="362" y="7" on="0"/>
        <pt x="348" y="1" on="0"/>
        <pt x="334" y="0" on="0"/>
        <pt x="329" y="0" on="1"/>
        <pt x="210" y="0" on="1"/>
        <pt x="205" y="0" on="0"/>
        <pt x="191" y="1" on="0"/>
        <pt x="179" y="6" on="0"/>
        <pt x="170" y="18" on="0"/>
        <pt x="170" y="28" on="1"/>
        <pt x="170" y="40" on="0"/>
        <pt x="179" y="54" on="0"/>
        <pt x="191" y="60" on="0"/>
        <pt x="205" y="61" on="0"/>
        <pt x="211" y="61" on="1"/>
        <pt x="243" y="61" on="1"/>
        <pt x="289" y="244" on="1"/>
        <pt x="218" y="550" on="1"/>
        <pt x="195" y="550" on="0"/>
        <pt x="163" y="557" on="0"/>
        <pt x="163" y="578" on="1"/>
        <pt x="163" y="590" on="0"/>
        <pt x="172" y="604" on="0"/>
        <pt x="185" y="610" on="0"/>
        <pt x="199" y="611" on="0"/>
        <pt x="205" y="611" on="1"/>
        <pt x="309" y="611" on="1"/>
        <pt x="314" y="611" on="0"/>
        <pt x="328" y="610" on="0"/>
        <pt x="340" y="605" on="0"/>
        <pt x="349" y="594" on="0"/>
        <pt x="349" y="583" on="1"/>
        <pt x="349" y="558" on="0"/>
        <pt x="318" y="550" on="0"/>
        <pt x="295" y="550" on="1"/>
        <pt x="312" y="471" on="0"/>
        <pt x="330" y="383" on="0"/>
        <pt x="339" y="338" on="0"/>
        <pt x="341" y="322" on="0"/>
        <pt x="342" y="314" on="1"/>
        <pt x="355" y="340" on="0"/>
        <pt x="388" y="388" on="0"/>
        <pt x="405" y="412" on="1"/>
        <pt x="505" y="550" on="1"/>
        <pt x="501" y="550" on="0"/>
        <pt x="488" y="551" on="0"/>
        <pt x="475" y="556" on="0"/>
        <pt x="466" y="568" on="0"/>
        <pt x="466" y="578" on="1"/>
        <pt x="466" y="590" on="0"/>
        <pt x="475" y="604" on="0"/>
        <pt x="488" y="610" on="0"/>
        <pt x="502" y="611" on="0"/>
        <pt x="508" y="611" on="1"/>
        <pt x="612" y="611" on="1"/>
        <pt x="617" y="611" on="0"/>
        <pt x="631" y="610" on="0"/>
        <pt x="643" y="605" on="0"/>
        <pt x="652" y="594" on="0"/>
        <pt x="652" y="583" on="1"/>
        <pt x="652" y="571" on="0"/>
        <pt x="643" y="557" on="0"/>
        <pt x="630" y="551" on="0"/>
        <pt x="616" y="550" on="0"/>
        <pt x="610" y="550" on="1"/>
        <pt x="582" y="550" on="1"/>
      </contour>
    </TTGlyph>
    <TTGlyph name="Z" xMin="54" yMin="0" xMax="624" yMax="611">
      <contour>
        <pt x="153" y="61" on="1"/>
        <pt x="427" y="61" on="1"/>
        <pt x="444" y="130" on="1"/>
        <pt x="451" y="156" on="0"/>
        <pt x="463" y="174" on="0"/>
        <pt x="484" y="174" on="1"/>
        <pt x="507" y="174" on="0"/>
        <pt x="519" y="154" on="0"/>
        <pt x="519" y="146" on="1"/>
        <pt x="519" y="144" on="0"/>
        <pt x="510" y="104" on="0"/>
        <pt x="498" y="57" on="0"/>
        <pt x="487" y="17" on="0"/>
        <pt x="486" y="15" on="1"/>
        <pt x="480" y="4" on="0"/>
        <pt x="462" y="0" on="0"/>
        <pt x="449" y="0" on="1"/>
        <pt x="89" y="0" on="1"/>
        <pt x="77" y="0" on="0"/>
        <pt x="54" y="5" on="0"/>
        <pt x="54" y="22" on="1"/>
        <pt x="54" y="37" on="0"/>
        <pt x="67" y="55" on="0"/>
        <pt x="74" y="63" on="1"/>
        <pt x="525" y="550" on="1"/>
        <pt x="267" y="550" on="1"/>
        <pt x="251" y="484" on="1"/>
        <pt x="246" y="467" on="0"/>
        <pt x="231" y="456" on="0"/>
        <pt x="216" y="456" on="1"/>
        <pt x="214" y="456" on="0"/>
        <pt x="202" y="457" on="0"/>
        <pt x="190" y="462" on="0"/>
        <pt x="181" y="474" on="0"/>
        <pt x="181" y="484" on="1"/>
        <pt x="181" y="486" on="0"/>
        <pt x="182" y="491" on="0"/>
        <pt x="184" y="499" on="1"/>
        <pt x="204" y="580" on="1"/>
        <pt x="210" y="603" on="0"/>
        <pt x="229" y="611" on="0"/>
        <pt x="246" y="611" on="1"/>
        <pt x="589" y="611" on="1"/>
        <pt x="600" y="611" on="0"/>
        <pt x="624" y="606" on="0"/>
        <pt x="624" y="589" on="1"/>
        <pt x="624" y="577" on="0"/>
        <pt x="614" y="558" on="0"/>
        <pt x="606" y="550" on="1"/>
      </contour>
    </TTGlyph>
    <TTGlyph name="a" xMin="126" yMin="-6" xMax="553" yMax="437">
      <contour>
        <pt x="423" y="108" on="1"/>
        <pt x="421" y="102" on="0"/>
        <pt x="419" y="90" on="0"/>
        <pt x="419" y="84" on="1"/>
        <pt x="419" y="82" on="0"/>
        <pt x="420" y="72" on="0"/>
        <pt x="424" y="62" on="0"/>
        <pt x="433" y="55" on="0"/>
        <pt x="440" y="55" on="1"/>
        <pt x="448" y="55" on="0"/>
        <pt x="460" y="73" on="0"/>
        <pt x="471" y="98" on="0"/>
        <pt x="478" y="123" on="0"/>
        <pt x="479" y="130" on="1"/>
        <pt x="485" y="153" on="0"/>
        <pt x="497" y="172" on="0"/>
        <pt x="518" y="172" on="1"/>
        <pt x="531" y="172" on="0"/>
        <pt x="545" y="164" on="0"/>
        <pt x="552" y="155" on="0"/>
        <pt x="553" y="146" on="0"/>
        <pt x="553" y="144" on="1"/>
        <pt x="553" y="141" on="0"/>
        <pt x="548" y="120" on="0"/>
        <pt x="539" y="91" on="0"/>
        <pt x="527" y="60" on="0"/>
        <pt x="520" y="48" on="1"/>
        <pt x="517" y="43" on="0"/>
        <pt x="505" y="25" on="0"/>
        <pt x="486" y="7" on="0"/>
        <pt x="458" y="-6" on="0"/>
        <pt x="439" y="-6" on="1"/>
        <pt x="419" y="-6" on="0"/>
        <pt x="389" y="7" on="0"/>
        <pt x="370" y="25" on="0"/>
        <pt x="359" y="43" on="0"/>
        <pt x="357" y="47" on="1"/>
        <pt x="353" y="43" on="0"/>
        <pt x="333" y="26" on="0"/>
        <pt x="303" y="8" on="0"/>
        <pt x="265" y="-6" on="0"/>
        <pt x="244" y="-6" on="1"/>
        <pt x="219" y="-6" on="0"/>
        <pt x="176" y="15" on="0"/>
        <pt x="144" y="55" on="0"/>
        <pt x="126" y="112" on="0"/>
        <pt x="126" y="148" on="1"/>
        <pt x="126" y="200" on="0"/>
        <pt x="163" y="303" on="0"/>
        <pt x="223" y="386" on="0"/>
        <pt x="300" y="437" on="0"/>
        <pt x="340" y="437" on="1"/>
        <pt x="354" y="437" on="0"/>
        <pt x="400" y="424" on="0"/>
        <pt x="424" y="397" on="1"/>
        <pt x="426" y="404" on="0"/>
        <pt x="444" y="422" on="0"/>
        <pt x="459" y="422" on="1"/>
        <pt x="472" y="422" on="0"/>
        <pt x="492" y="404" on="0"/>
        <pt x="492" y="389" on="1"/>
        <pt x="492" y="387" on="0"/>
        <pt x="491" y="380" on="0"/>
        <pt x="488" y="369" on="1"/>
      </contour>
      <contour>
        <pt x="245" y="55" on="1"/>
        <pt x="268" y="55" on="0"/>
        <pt x="318" y="95" on="0"/>
        <pt x="361" y="160" on="0"/>
        <pt x="389" y="243" on="0"/>
        <pt x="389" y="286" on="1"/>
        <pt x="389" y="303" on="0"/>
        <pt x="383" y="335" on="0"/>
        <pt x="371" y="361" on="0"/>
        <pt x="352" y="376" on="0"/>
        <pt x="338" y="376" on="1"/>
        <pt x="316" y="376" on="0"/>
        <pt x="265" y="335" on="0"/>
        <pt x="222" y="269" on="0"/>
        <pt x="194" y="186" on="0"/>
        <pt x="194" y="144" on="1"/>
        <pt x="194" y="136" on="0"/>
        <pt x="198" y="106" on="0"/>
        <pt x="208" y="77" on="0"/>
        <pt x="229" y="55" on="0"/>
      </contour>
    </TTGlyph>
    <TTGlyph name="acute" xMin="324" yMin="477" xMax="552" yMax="611">
      <contour>
        <pt x="372" y="482" on="1"/>
        <pt x="365" y="480" on="0"/>
        <pt x="359" y="477" on="0"/>
        <pt x="354" y="477" on="1"/>
        <pt x="344" y="477" on="0"/>
        <pt x="332" y="487" on="0"/>
        <pt x="326" y="500" on="0"/>
        <pt x="324" y="514" on="0"/>
        <pt x="324" y="517" on="1"/>
        <pt x="324" y="531" on="0"/>
        <pt x="340" y="541" on="0"/>
        <pt x="351" y="546" on="1"/>
        <pt x="500" y="606" on="1"/>
        <pt x="506" y="608" on="0"/>
        <pt x="514" y="611" on="0"/>
        <pt x="519" y="611" on="1"/>
        <pt x="532" y="611" on="0"/>
        <pt x="552" y="594" on="0"/>
        <pt x="552" y="578" on="1"/>
        <pt x="552" y="567" on="0"/>
        <pt x="539" y="548" on="0"/>
        <pt x="522" y="541" on="1"/>
      </contour>
    </TTGlyph>
    <TTGlyph name="ae" xMin="59" yMin="-6" xMax="573" yMax="439">
      <contour>
        <pt x="340" y="189" on="1"/>
        <pt x="339" y="184" on="0"/>
        <pt x="336" y="156" on="0"/>
        <pt x="336" y="148" on="1"/>
        <pt x="336" y="139" on="0"/>
        <pt x="339" y="108" on="0"/>
        <pt x="351" y="77" on="0"/>
        <pt x="374" y="55" on="0"/>
        <pt x="393" y="55" on="1"/>
        <pt x="396" y="55" on="0"/>
        <pt x="418" y="56" on="0"/>
        <pt x="449" y="65" on="0"/>
        <pt x="485" y="83" on="0"/>
        <pt x="502" y="100" on="1"/>
        <pt x="510" y="108" on="0"/>
        <pt x="521" y="110" on="0"/>
        <pt x="523" y="110" on="1"/>
        <pt x="534" y="110" on="0"/>
        <pt x="551" y="95" on="0"/>
        <pt x="551" y="82" on="1"/>
        <pt x="551" y="70" on="0"/>
        <pt x="522" y="40" on="0"/>
        <pt x="477" y="13" on="0"/>
        <pt x="420" y="-6" on="0"/>
        <pt x="391" y="-6" on="1"/>
        <pt x="366" y="-6" on="0"/>
        <pt x="320" y="17" on="0"/>
        <pt x="303" y="45" on="1"/>
        <pt x="298" y="22" on="0"/>
        <pt x="286" y="-6" on="0"/>
        <pt x="269" y="-6" on="1"/>
        <pt x="261" y="-6" on="0"/>
        <pt x="242" y="6" on="0"/>
        <pt x="240" y="24" on="1"/>
        <pt x="228" y="13" on="0"/>
        <pt x="191" y="-6" on="0"/>
        <pt x="167" y="-6" on="1"/>
        <pt x="146" y="-6" on="0"/>
        <pt x="107" y="9" on="0"/>
        <pt x="77" y="38" on="0"/>
        <pt x="59" y="81" on="0"/>
        <pt x="59" y="109" on="1"/>
        <pt x="59" y="131" on="0"/>
        <pt x="74" y="183" on="0"/>
        <pt x="100" y="236" on="0"/>
        <pt x="137" y="287" on="0"/>
        <pt x="158" y="308" on="1"/>
        <pt x="192" y="343" on="0"/>
        <pt x="263" y="392" on="0"/>
        <pt x="321" y="424" on="0"/>
        <pt x="361" y="439" on="0"/>
        <pt x="364" y="439" on="1"/>
        <pt x="372" y="439" on="0"/>
        <pt x="394" y="425" on="0"/>
        <pt x="394" y="400" on="1"/>
        <pt x="408" y="411" on="0"/>
        <pt x="456" y="437" on="0"/>
        <pt x="485" y="437" on="1"/>
        <pt x="506" y="437" on="0"/>
        <pt x="539" y="421" on="0"/>
        <pt x="562" y="394" on="0"/>
        <pt x="573" y="360" on="0"/>
        <pt x="573" y="341" on="1"/>
        <pt x="573" y="310" on="0"/>
        <pt x="547" y="255" on="0"/>
        <pt x="491" y="213" on="0"/>
        <pt x="403" y="189" on="0"/>
      </contour>
      <contour>
        <pt x="357" y="250" on="1"/>
        <pt x="381" y="251" on="0"/>
        <pt x="437" y="258" on="0"/>
        <pt x="485" y="277" on="0"/>
        <pt x="516" y="311" on="0"/>
        <pt x="516" y="338" on="1"/>
        <pt x="516" y="376" on="0"/>
        <pt x="483" y="376" on="1"/>
        <pt x="468" y="376" on="0"/>
        <pt x="432" y="357" on="0"/>
        <pt x="398" y="323" on="0"/>
        <pt x="367" y="277" on="0"/>
      </contour>
      <contour>
        <pt x="323" y="355" on="1"/>
        <pt x="271" y="328" on="0"/>
        <pt x="197" y="259" on="0"/>
        <pt x="150" y="190" on="0"/>
        <pt x="128" y="128" on="0"/>
        <pt x="128" y="108" on="1"/>
        <pt x="128" y="76" on="0"/>
        <pt x="157" y="55" on="0"/>
        <pt x="169" y="55" on="1"/>
        <pt x="188" y="55" on="0"/>
        <pt x="230" y="94" on="0"/>
        <pt x="250" y="125" on="1"/>
        <pt x="270" y="157" on="0"/>
        <pt x="289" y="218" on="0"/>
        <pt x="299" y="261" on="1"/>
      </contour>
    </TTGlyph>
    <TTGlyph name="ampersand" xMin="48" yMin="-11" xMax="669" yMax="622">
      <contour>
        <pt x="581" y="411" on="1"/>
        <pt x="599" y="385" on="0"/>
        <pt x="613" y="327" on="0"/>
        <pt x="613" y="296" on="1"/>
        <pt x="613" y="245" on="0"/>
        <pt x="579" y="136" on="0"/>
        <pt x="502" y="47" on="0"/>
        <pt x="380" y="-11" on="0"/>
        <pt x="292" y="-11" on="1"/>
        <pt x="233" y="-11" on="0"/>
        <pt x="142" y="20" on="0"/>
        <pt x="80" y="72" on="0"/>
        <pt x="48" y="139" on="0"/>
        <pt x="48" y="175" on="1"/>
        <pt x="48" y="194" on="0"/>
        <pt x="59" y="241" on="0"/>
        <pt x="80" y="290" on="0"/>
        <pt x="108" y="337" on="0"/>
        <pt x="126" y="356" on="1"/>
        <pt x="125" y="358" on="0"/>
        <pt x="118" y="385" on="0"/>
        <pt x="118" y="405" on="1"/>
        <pt x="118" y="443" on="0"/>
        <pt x="148" y="520" on="0"/>
        <pt x="201" y="583" on="0"/>
        <pt x="270" y="622" on="0"/>
        <pt x="309" y="622" on="1"/>
        <pt x="329" y="622" on="0"/>
        <pt x="367" y="611" on="0"/>
        <pt x="399" y="590" on="0"/>
        <pt x="418" y="557" on="0"/>
        <pt x="418" y="535" on="1"/>
        <pt x="418" y="517" on="0"/>
        <pt x="407" y="494" on="0"/>
        <pt x="391" y="482" on="0"/>
        <pt x="374" y="477" on="0"/>
        <pt x="368" y="477" on="1"/>
        <pt x="354" y="477" on="0"/>
        <pt x="327" y="496" on="0"/>
        <pt x="327" y="517" on="1"/>
        <pt x="327" y="537" on="0"/>
        <pt x="341" y="551" on="1"/>
        <pt x="332" y="558" on="0"/>
        <pt x="312" y="561" on="0"/>
        <pt x="307" y="561" on="1"/>
        <pt x="288" y="561" on="0"/>
        <pt x="246" y="536" on="0"/>
        <pt x="212" y="494" on="0"/>
        <pt x="189" y="438" on="0"/>
        <pt x="187" y="407" on="1"/>
        <pt x="213" y="422" on="0"/>
        <pt x="253" y="431" on="0"/>
        <pt x="265" y="431" on="1"/>
        <pt x="283" y="431" on="0"/>
        <pt x="307" y="418" on="0"/>
        <pt x="322" y="398" on="0"/>
        <pt x="328" y="375" on="0"/>
        <pt x="328" y="366" on="1"/>
        <pt x="328" y="351" on="0"/>
        <pt x="316" y="317" on="0"/>
        <pt x="293" y="289" on="0"/>
        <pt x="260" y="271" on="0"/>
        <pt x="239" y="271" on="1"/>
        <pt x="221" y="271" on="0"/>
        <pt x="181" y="284" on="0"/>
        <pt x="164" y="298" on="1"/>
        <pt x="138" y="262" on="0"/>
        <pt x="117" y="191" on="0"/>
        <pt x="117" y="175" on="1"/>
        <pt x="117" y="150" on="0"/>
        <pt x="140" y="105" on="0"/>
        <pt x="185" y="71" on="0"/>
        <pt x="251" y="50" on="0"/>
        <pt x="293" y="50" on="1"/>
        <pt x="371" y="50" on="0"/>
        <pt x="468" y="104" on="0"/>
        <pt x="524" y="181" on="0"/>
        <pt x="544" y="264" on="0"/>
        <pt x="544" y="293" on="1"/>
        <pt x="544" y="304" on="0"/>
        <pt x="538" y="348" on="0"/>
        <pt x="524" y="370" on="1"/>
        <pt x="486" y="350" on="0"/>
        <pt x="458" y="326" on="0"/>
        <pt x="458" y="308" on="1"/>
        <pt x="458" y="294" on="0"/>
        <pt x="473" y="283" on="0"/>
        <pt x="474" y="283" on="1"/>
        <pt x="482" y="288" on="0"/>
        <pt x="492" y="288" on="1"/>
        <pt x="506" y="288" on="0"/>
        <pt x="525" y="269" on="0"/>
        <pt x="525" y="255" on="1"/>
        <pt x="525" y="251" on="0"/>
        <pt x="522" y="239" on="0"/>
        <pt x="513" y="227" on="0"/>
        <pt x="498" y="219" on="0"/>
        <pt x="486" y="219" on="1"/>
        <pt x="467" y="219" on="0"/>
        <pt x="432" y="232" on="0"/>
        <pt x="405" y="255" on="0"/>
        <pt x="389" y="288" on="0"/>
        <pt x="389" y="308" on="1"/>
        <pt x="389" y="331" on="0"/>
        <pt x="406" y="365" on="0"/>
        <pt x="432" y="392" on="0"/>
        <pt x="461" y="411" on="0"/>
        <pt x="474" y="418" on="1"/>
        <pt x="495" y="431" on="0"/>
        <pt x="531" y="455" on="0"/>
        <pt x="562" y="490" on="0"/>
        <pt x="589" y="542" on="0"/>
        <pt x="601" y="583" on="1"/>
        <pt x="606" y="598" on="0"/>
        <pt x="626" y="611" on="0"/>
        <pt x="636" y="611" on="1"/>
        <pt x="646" y="611" on="0"/>
        <pt x="669" y="597" on="0"/>
        <pt x="669" y="578" on="1"/>
        <pt x="669" y="573" on="0"/>
        <pt x="659" y="536" on="0"/>
        <pt x="638" y="487" on="0"/>
        <pt x="605" y="433" on="0"/>
      </contour>
      <contour>
        <pt x="208" y="345" on="1"/>
        <pt x="213" y="340" on="0"/>
        <pt x="230" y="332" on="0"/>
        <pt x="238" y="332" on="1"/>
        <pt x="245" y="332" on="0"/>
        <pt x="257" y="352" on="0"/>
        <pt x="259" y="369" on="1"/>
        <pt x="248" y="367" on="0"/>
        <pt x="225" y="359" on="0"/>
      </contour>
    </TTGlyph>
    <TTGlyph name="arrowdown" xMin="103" yMin="0" xMax="510" yMax="611">
      <contour>
        <pt x="370" y="574" on="1"/>
        <pt x="373" y="585" on="0"/>
        <pt x="389" y="611" on="0"/>
        <pt x="409" y="611" on="1"/>
        <pt x="423" y="611" on="0"/>
        <pt x="442" y="592" on="0"/>
        <pt x="442" y="578" on="1"/>
        <pt x="442" y="575" on="0"/>
        <pt x="441" y="568" on="0"/>
        <pt x="438" y="557" on="1"/>
        <pt x="332" y="132" on="1"/>
        <pt x="359" y="152" on="0"/>
        <pt x="410" y="180" on="0"/>
        <pt x="451" y="197" on="0"/>
        <pt x="478" y="205" on="0"/>
        <pt x="482" y="205" on="1"/>
        <pt x="493" y="205" on="0"/>
        <pt x="510" y="189" on="0"/>
        <pt x="510" y="177" on="1"/>
        <pt x="510" y="158" on="0"/>
        <pt x="492" y="146" on="0"/>
        <pt x="484" y="144" on="1"/>
        <pt x="430" y="126" on="0"/>
        <pt x="336" y="64" on="0"/>
        <pt x="300" y="20" on="1"/>
        <pt x="291" y="9" on="0"/>
        <pt x="280" y="0" on="0"/>
        <pt x="270" y="0" on="1"/>
        <pt x="256" y="0" on="0"/>
        <pt x="244" y="18" on="0"/>
        <pt x="240" y="28" on="1"/>
        <pt x="229" y="59" on="0"/>
        <pt x="198" y="100" on="0"/>
        <pt x="165" y="126" on="0"/>
        <pt x="135" y="141" on="0"/>
        <pt x="124" y="145" on="1"/>
        <pt x="119" y="147" on="0"/>
        <pt x="103" y="158" on="0"/>
        <pt x="103" y="172" on="1"/>
        <pt x="103" y="179" on="0"/>
        <pt x="114" y="205" on="0"/>
        <pt x="132" y="205" on="1"/>
        <pt x="137" y="205" on="0"/>
        <pt x="162" y="197" on="0"/>
        <pt x="198" y="177" on="0"/>
        <pt x="239" y="146" on="0"/>
        <pt x="258" y="123" on="1"/>
      </contour>
    </TTGlyph>
    <TTGlyph name="arrowup" xMin="168" yMin="0" xMax="576" yMax="611">
      <contour>
        <pt x="309" y="38" on="1"/>
        <pt x="307" y="28" on="0"/>
        <pt x="291" y="0" on="0"/>
        <pt x="270" y="0" on="1"/>
        <pt x="253" y="0" on="0"/>
        <pt x="236" y="22" on="0"/>
        <pt x="236" y="33" on="1"/>
        <pt x="236" y="38" on="0"/>
        <pt x="238" y="44" on="0"/>
        <pt x="238" y="46" on="1"/>
        <pt x="347" y="479" on="1"/>
        <pt x="322" y="460" on="0"/>
        <pt x="271" y="432" on="0"/>
        <pt x="230" y="414" on="0"/>
        <pt x="201" y="406" on="0"/>
        <pt x="197" y="406" on="1"/>
        <pt x="183" y="406" on="0"/>
        <pt x="168" y="424" on="0"/>
        <pt x="168" y="434" on="1"/>
        <pt x="168" y="452" on="0"/>
        <pt x="188" y="465" on="0"/>
        <pt x="196" y="468" on="1"/>
        <pt x="262" y="490" on="0"/>
        <pt x="351" y="558" on="0"/>
        <pt x="378" y="590" on="1"/>
        <pt x="388" y="601" on="0"/>
        <pt x="399" y="611" on="0"/>
        <pt x="409" y="611" on="1"/>
        <pt x="423" y="611" on="0"/>
        <pt x="434" y="593" on="0"/>
        <pt x="436" y="588" on="1"/>
        <pt x="441" y="576" on="0"/>
        <pt x="455" y="545" on="0"/>
        <pt x="480" y="512" on="0"/>
        <pt x="521" y="480" on="0"/>
        <pt x="551" y="468" on="1"/>
        <pt x="559" y="464" on="0"/>
        <pt x="576" y="453" on="0"/>
        <pt x="576" y="439" on="1"/>
        <pt x="576" y="437" on="0"/>
        <pt x="574" y="426" on="0"/>
        <pt x="568" y="415" on="0"/>
        <pt x="556" y="406" on="0"/>
        <pt x="546" y="406" on="1"/>
        <pt x="541" y="406" on="0"/>
        <pt x="513" y="416" on="0"/>
        <pt x="477" y="437" on="0"/>
        <pt x="438" y="467" on="0"/>
        <pt x="421" y="488" on="1"/>
      </contour>
    </TTGlyph>
    <TTGlyph name="asciicircum" xMin="227" yMin="471" xMax="553" yMax="611">
      <contour>
        <pt x="276" y="477" on="1"/>
        <pt x="268" y="472" on="0"/>
        <pt x="263" y="471" on="0"/>
        <pt x="259" y="471" on="1"/>
        <pt x="244" y="471" on="0"/>
        <pt x="227" y="496" on="0"/>
        <pt x="227" y="510" on="1"/>
        <pt x="227" y="524" on="0"/>
        <pt x="244" y="536" on="0"/>
        <pt x="252" y="540" on="1"/>
        <pt x="390" y="606" on="1"/>
        <pt x="393" y="608" on="0"/>
        <pt x="402" y="611" on="0"/>
        <pt x="408" y="611" on="1"/>
        <pt x="414" y="611" on="0"/>
        <pt x="420" y="608" on="0"/>
        <pt x="430" y="602" on="1"/>
        <pt x="532" y="539" on="1"/>
        <pt x="539" y="535" on="0"/>
        <pt x="553" y="522" on="0"/>
        <pt x="553" y="510" on="1"/>
        <pt x="553" y="501" on="0"/>
        <pt x="531" y="471" on="0"/>
        <pt x="515" y="471" on="1"/>
        <pt x="513" y="471" on="0"/>
        <pt x="503" y="473" on="0"/>
        <pt x="493" y="480" on="1"/>
        <pt x="404" y="542" on="1"/>
      </contour>
    </TTGlyph>
    <TTGlyph name="asciitilde" xMin="218" yMin="491" xMax="583" yMax="611">
      <contour>
        <pt x="583" y="579" on="1"/>
        <pt x="583" y="565" on="0"/>
        <pt x="547" y="538" on="0"/>
        <pt x="524" y="523" on="1"/>
        <pt x="501" y="508" on="0"/>
        <pt x="459" y="491" on="0"/>
        <pt x="440" y="491" on="1"/>
        <pt x="414" y="491" on="0"/>
        <pt x="384" y="517" on="0"/>
        <pt x="373" y="532" on="1"/>
        <pt x="368" y="539" on="0"/>
        <pt x="360" y="546" on="0"/>
        <pt x="355" y="546" on="1"/>
        <pt x="343" y="546" on="0"/>
        <pt x="299" y="522" on="0"/>
        <pt x="276" y="504" on="1"/>
        <pt x="265" y="496" on="0"/>
        <pt x="256" y="491" on="0"/>
        <pt x="248" y="491" on="1"/>
        <pt x="236" y="491" on="0"/>
        <pt x="218" y="510" on="0"/>
        <pt x="218" y="523" on="1"/>
        <pt x="218" y="534" on="0"/>
        <pt x="228" y="544" on="0"/>
        <pt x="235" y="549" on="1"/>
        <pt x="246" y="558" on="0"/>
        <pt x="276" y="579" on="0"/>
        <pt x="309" y="598" on="0"/>
        <pt x="344" y="611" on="0"/>
        <pt x="360" y="611" on="1"/>
        <pt x="387" y="611" on="0"/>
        <pt x="417" y="584" on="0"/>
        <pt x="428" y="568" on="1"/>
        <pt x="437" y="556" on="0"/>
        <pt x="445" y="556" on="1"/>
        <pt x="454" y="556" on="0"/>
        <pt x="478" y="567" on="0"/>
        <pt x="502" y="582" on="0"/>
        <pt x="523" y="596" on="0"/>
        <pt x="528" y="600" on="1"/>
        <pt x="536" y="605" on="0"/>
        <pt x="545" y="611" on="0"/>
        <pt x="552" y="611" on="1"/>
        <pt x="566" y="611" on="0"/>
        <pt x="583" y="589" on="0"/>
      </contour>
    </TTGlyph>
    <TTGlyph name="asterisk" xMin="121" yMin="90" xMax="556" yMax="521">
      <contour>
        <pt x="328" y="129" on="1"/>
        <pt x="325" y="117" on="0"/>
        <pt x="314" y="101" on="0"/>
        <pt x="301" y="93" on="0"/>
        <pt x="289" y="90" on="0"/>
        <pt x="285" y="90" on="1"/>
        <pt x="272" y="90" on="0"/>
        <pt x="259" y="106" on="0"/>
        <pt x="259" y="115" on="1"/>
        <pt x="259" y="116" on="0"/>
        <pt x="260" y="123" on="0"/>
        <pt x="263" y="134" on="1"/>
        <pt x="296" y="254" on="1"/>
        <pt x="170" y="189" on="1"/>
        <pt x="159" y="183" on="0"/>
        <pt x="152" y="181" on="0"/>
        <pt x="147" y="181" on="1"/>
        <pt x="132" y="181" on="0"/>
        <pt x="121" y="200" on="0"/>
        <pt x="121" y="206" on="1"/>
        <pt x="121" y="215" on="0"/>
        <pt x="134" y="237" on="0"/>
        <pt x="152" y="246" on="1"/>
        <pt x="278" y="305" on="1"/>
        <pt x="183" y="365" on="1"/>
        <pt x="175" y="370" on="0"/>
        <pt x="167" y="378" on="0"/>
        <pt x="167" y="389" on="1"/>
        <pt x="167" y="405" on="0"/>
        <pt x="193" y="430" on="0"/>
        <pt x="209" y="430" on="1"/>
        <pt x="211" y="430" on="0"/>
        <pt x="223" y="428" on="0"/>
        <pt x="232" y="421" on="1"/>
        <pt x="322" y="357" on="1"/>
        <pt x="350" y="479" on="1"/>
        <pt x="351" y="483" on="0"/>
        <pt x="356" y="497" on="0"/>
        <pt x="365" y="511" on="0"/>
        <pt x="380" y="521" on="0"/>
        <pt x="392" y="521" on="1"/>
        <pt x="408" y="521" on="0"/>
        <pt x="419" y="503" on="0"/>
        <pt x="419" y="496" on="1"/>
        <pt x="419" y="494" on="0"/>
        <pt x="417" y="484" on="0"/>
        <pt x="416" y="482" on="1"/>
        <pt x="382" y="357" on="1"/>
        <pt x="507" y="422" on="1"/>
        <pt x="518" y="427" on="0"/>
        <pt x="524" y="430" on="0"/>
        <pt x="530" y="430" on="1"/>
        <pt x="547" y="430" on="0"/>
        <pt x="556" y="410" on="0"/>
        <pt x="556" y="404" on="1"/>
        <pt x="556" y="395" on="0"/>
        <pt x="544" y="373" on="0"/>
        <pt x="524" y="364" on="1"/>
        <pt x="400" y="305" on="1"/>
        <pt x="493" y="247" on="1"/>
        <pt x="501" y="242" on="0"/>
        <pt x="511" y="233" on="0"/>
        <pt x="511" y="222" on="1"/>
        <pt x="511" y="207" on="0"/>
        <pt x="485" y="181" on="0"/>
        <pt x="469" y="181" on="1"/>
        <pt x="465" y="181" on="0"/>
        <pt x="455" y="183" on="0"/>
        <pt x="446" y="190" on="1"/>
        <pt x="356" y="254" on="1"/>
      </contour>
    </TTGlyph>
    <TTGlyph name="at" xMin="110" yMin="-6" xMax="583" yMax="617">
      <contour>
        <pt x="525" y="477" on="1"/>
        <pt x="524" y="486" on="0"/>
        <pt x="519" y="513" on="0"/>
        <pt x="504" y="538" on="0"/>
        <pt x="475" y="556" on="0"/>
        <pt x="450" y="556" on="1"/>
        <pt x="400" y="556" on="0"/>
        <pt x="299" y="500" on="0"/>
        <pt x="217" y="408" on="0"/>
        <pt x="166" y="289" on="0"/>
        <pt x="166" y="226" on="1"/>
        <pt x="166" y="189" on="0"/>
        <pt x="187" y="126" on="0"/>
        <pt x="225" y="80" on="0"/>
        <pt x="279" y="55" on="0"/>
        <pt x="313" y="55" on="1"/>
        <pt x="341" y="55" on="0"/>
        <pt x="402" y="76" on="0"/>
        <pt x="431" y="98" on="1"/>
        <pt x="441" y="105" on="0"/>
        <pt x="449" y="108" on="0"/>
        <pt x="463" y="108" on="1"/>
        <pt x="467" y="108" on="0"/>
        <pt x="480" y="107" on="0"/>
        <pt x="492" y="102" on="0"/>
        <pt x="501" y="91" on="0"/>
        <pt x="501" y="80" on="1"/>
        <pt x="501" y="71" on="0"/>
        <pt x="486" y="54" on="0"/>
        <pt x="465" y="39" on="0"/>
        <pt x="441" y="27" on="0"/>
        <pt x="432" y="23" on="1"/>
        <pt x="397" y="6" on="0"/>
        <pt x="334" y="-6" on="0"/>
        <pt x="312" y="-6" on="1"/>
        <pt x="270" y="-6" on="0"/>
        <pt x="197" y="25" on="0"/>
        <pt x="142" y="84" on="0"/>
        <pt x="110" y="169" on="0"/>
        <pt x="110" y="223" on="1"/>
        <pt x="110" y="300" on="0"/>
        <pt x="170" y="442" on="0"/>
        <pt x="267" y="551" on="0"/>
        <pt x="390" y="617" on="0"/>
        <pt x="452" y="617" on="1"/>
        <pt x="500" y="617" on="0"/>
        <pt x="552" y="577" on="0"/>
        <pt x="578" y="524" on="0"/>
        <pt x="583" y="472" on="0"/>
        <pt x="583" y="460" on="1"/>
        <pt x="583" y="443" on="0"/>
        <pt x="576" y="385" on="0"/>
        <pt x="563" y="318" on="0"/>
        <pt x="541" y="249" on="0"/>
        <pt x="526" y="221" on="1"/>
        <pt x="517" y="204" on="0"/>
        <pt x="486" y="164" on="0"/>
        <pt x="445" y="129" on="0"/>
        <pt x="397" y="106" on="0"/>
        <pt x="370" y="106" on="1"/>
        <pt x="349" y="106" on="0"/>
        <pt x="310" y="123" on="0"/>
        <pt x="279" y="157" on="0"/>
        <pt x="260" y="210" on="0"/>
        <pt x="260" y="247" on="1"/>
        <pt x="260" y="295" on="0"/>
        <pt x="294" y="388" on="0"/>
        <pt x="349" y="461" on="0"/>
        <pt x="419" y="505" on="0"/>
        <pt x="455" y="505" on="1"/>
        <pt x="482" y="505" on="0"/>
        <pt x="517" y="485" on="0"/>
      </contour>
      <contour>
        <pt x="371" y="167" on="1"/>
        <pt x="394" y="167" on="0"/>
        <pt x="443" y="201" on="0"/>
        <pt x="483" y="256" on="0"/>
        <pt x="509" y="326" on="0"/>
        <pt x="509" y="362" on="1"/>
        <pt x="509" y="370" on="0"/>
        <pt x="505" y="398" on="0"/>
        <pt x="493" y="425" on="0"/>
        <pt x="471" y="444" on="0"/>
        <pt x="453" y="444" on="1"/>
        <pt x="431" y="444" on="0"/>
        <pt x="382" y="410" on="0"/>
        <pt x="342" y="356" on="0"/>
        <pt x="316" y="286" on="0"/>
        <pt x="316" y="250" on="1"/>
        <pt x="316" y="234" on="0"/>
        <pt x="323" y="204" on="0"/>
        <pt x="336" y="181" on="0"/>
        <pt x="357" y="167" on="0"/>
      </contour>
    </TTGlyph>
    <TTGlyph name="b" xMin="129" yMin="-6" xMax="497" yMax="611">
      <contour>
        <pt x="260" y="399" on="1"/>
        <pt x="285" y="417" on="0"/>
        <pt x="338" y="437" on="0"/>
        <pt x="364" y="437" on="1"/>
        <pt x="393" y="437" on="0"/>
        <pt x="442" y="413" on="0"/>
        <pt x="477" y="371" on="0"/>
        <pt x="497" y="312" on="0"/>
        <pt x="497" y="277" on="1"/>
        <pt x="497" y="225" on="0"/>
        <pt x="458" y="123" on="0"/>
        <pt x="394" y="43" on="0"/>
        <pt x="312" y="-6" on="0"/>
        <pt x="268" y="-6" on="1"/>
        <pt x="241" y="-6" on="0"/>
        <pt x="193" y="15" on="0"/>
        <pt x="157" y="56" on="0"/>
        <pt x="136" y="116" on="0"/>
        <pt x="136" y="154" on="1"/>
        <pt x="136" y="164" on="0"/>
        <pt x="138" y="195" on="0"/>
        <pt x="144" y="219" on="1"/>
        <pt x="227" y="550" on="1"/>
        <pt x="170" y="550" on="1"/>
        <pt x="165" y="550" on="0"/>
        <pt x="151" y="551" on="0"/>
        <pt x="138" y="556" on="0"/>
        <pt x="129" y="568" on="0"/>
        <pt x="129" y="578" on="1"/>
        <pt x="129" y="590" on="0"/>
        <pt x="138" y="604" on="0"/>
        <pt x="152" y="610" on="0"/>
        <pt x="166" y="611" on="0"/>
        <pt x="171" y="611" on="1"/>
        <pt x="264" y="611" on="1"/>
        <pt x="269" y="611" on="0"/>
        <pt x="283" y="610" on="0"/>
        <pt x="296" y="605" on="0"/>
        <pt x="305" y="594" on="0"/>
        <pt x="305" y="583" on="1"/>
        <pt x="305" y="578" on="0"/>
        <pt x="303" y="570" on="0"/>
        <pt x="302" y="566" on="1"/>
      </contour>
      <contour>
        <pt x="270" y="55" on="1"/>
        <pt x="296" y="55" on="0"/>
        <pt x="352" y="93" on="0"/>
        <pt x="398" y="156" on="0"/>
        <pt x="428" y="236" on="0"/>
        <pt x="428" y="279" on="1"/>
        <pt x="428" y="324" on="0"/>
        <pt x="392" y="376" on="0"/>
        <pt x="363" y="376" on="1"/>
        <pt x="337" y="376" on="0"/>
        <pt x="281" y="337" on="0"/>
        <pt x="234" y="274" on="0"/>
        <pt x="204" y="193" on="0"/>
        <pt x="204" y="151" on="1"/>
        <pt x="204" y="137" on="0"/>
        <pt x="210" y="103" on="0"/>
        <pt x="225" y="74" on="0"/>
        <pt x="251" y="55" on="0"/>
      </contour>
    </TTGlyph>
    <TTGlyph name="backslash" xMin="223" yMin="-83" xMax="455" yMax="694">
      <contour>
        <pt x="451" y="-28" on="1"/>
        <pt x="454" y="-40" on="0"/>
        <pt x="455" y="-46" on="0"/>
        <pt x="455" y="-48" on="1"/>
        <pt x="455" y="-62" on="0"/>
        <pt x="436" y="-83" on="0"/>
        <pt x="420" y="-83" on="1"/>
        <pt x="399" y="-83" on="0"/>
        <pt x="386" y="-57" on="0"/>
        <pt x="384" y="-46" on="1"/>
        <pt x="227" y="638" on="1"/>
        <pt x="224" y="650" on="0"/>
        <pt x="223" y="657" on="0"/>
        <pt x="223" y="659" on="1"/>
        <pt x="223" y="675" on="0"/>
        <pt x="244" y="694" on="0"/>
        <pt x="258" y="694" on="1"/>
        <pt x="278" y="694" on="0"/>
        <pt x="292" y="667" on="0"/>
        <pt x="294" y="656" on="1"/>
      </contour>
    </TTGlyph>
    <TTGlyph name="bar" xMin="216" yMin="-83" xMax="463" yMax="694">
      <contour>
        <pt x="288" y="-47" on="1"/>
        <pt x="286" y="-57" on="0"/>
        <pt x="271" y="-83" on="0"/>
        <pt x="251" y="-83" on="1"/>
        <pt x="236" y="-83" on="0"/>
        <pt x="216" y="-62" on="0"/>
        <pt x="216" y="-48" on="1"/>
        <pt x="216" y="-45" on="0"/>
        <pt x="217" y="-39" on="0"/>
        <pt x="220" y="-28" on="1"/>
        <pt x="392" y="661" on="1"/>
        <pt x="393" y="664" on="0"/>
        <pt x="396" y="675" on="0"/>
        <pt x="404" y="686" on="0"/>
        <pt x="418" y="694" on="0"/>
        <pt x="428" y="694" on="1"/>
        <pt x="444" y="694" on="0"/>
        <pt x="463" y="672" on="0"/>
        <pt x="463" y="659" on="1"/>
        <pt x="463" y="655" on="0"/>
        <pt x="462" y="649" on="0"/>
        <pt x="459" y="638" on="1"/>
      </contour>
    </TTGlyph>
    <TTGlyph name="braceleft" xMin="133" yMin="-83" xMax="635" yMax="694">
      <contour>
        <pt x="397" y="394" on="1"/>
        <pt x="388" y="358" on="0"/>
        <pt x="340" y="313" on="0"/>
        <pt x="315" y="302" on="1"/>
        <pt x="326" y="293" on="0"/>
        <pt x="353" y="261" on="0"/>
        <pt x="353" y="232" on="1"/>
        <pt x="353" y="223" on="0"/>
        <pt x="345" y="185" on="0"/>
        <pt x="340" y="170" on="1"/>
        <pt x="337" y="156" on="0"/>
        <pt x="330" y="128" on="0"/>
        <pt x="326" y="114" on="1"/>
        <pt x="324" y="106" on="0"/>
        <pt x="316" y="74" on="0"/>
        <pt x="314" y="66" on="1"/>
        <pt x="311" y="53" on="0"/>
        <pt x="304" y="21" on="0"/>
        <pt x="304" y="17" on="1"/>
        <pt x="304" y="3" on="0"/>
        <pt x="336" y="-13" on="0"/>
        <pt x="376" y="-21" on="0"/>
        <pt x="412" y="-22" on="0"/>
        <pt x="415" y="-22" on="1"/>
        <pt x="420" y="-22" on="0"/>
        <pt x="434" y="-23" on="0"/>
        <pt x="447" y="-28" on="0"/>
        <pt x="456" y="-40" on="0"/>
        <pt x="456" y="-50" on="1"/>
        <pt x="456" y="-62" on="0"/>
        <pt x="447" y="-76" on="0"/>
        <pt x="433" y="-82" on="0"/>
        <pt x="418" y="-83" on="0"/>
        <pt x="412" y="-83" on="1"/>
        <pt x="400" y="-83" on="0"/>
        <pt x="341" y="-79" on="0"/>
        <pt x="280" y="-60" on="0"/>
        <pt x="234" y="-20" on="0"/>
        <pt x="234" y="16" on="1"/>
        <pt x="234" y="25" on="0"/>
        <pt x="242" y="63" on="0"/>
        <pt x="247" y="78" on="1"/>
        <pt x="250" y="92" on="0"/>
        <pt x="257" y="120" on="0"/>
        <pt x="261" y="134" on="1"/>
        <pt x="263" y="142" on="0"/>
        <pt x="271" y="174" on="0"/>
        <pt x="273" y="182" on="1"/>
        <pt x="276" y="195" on="0"/>
        <pt x="284" y="227" on="0"/>
        <pt x="284" y="231" on="1"/>
        <pt x="284" y="247" on="0"/>
        <pt x="252" y="264" on="0"/>
        <pt x="211" y="273" on="0"/>
        <pt x="175" y="275" on="0"/>
        <pt x="171" y="275" on="1"/>
        <pt x="167" y="275" on="0"/>
        <pt x="154" y="276" on="0"/>
        <pt x="142" y="281" on="0"/>
        <pt x="133" y="293" on="0"/>
        <pt x="133" y="303" on="1"/>
        <pt x="133" y="315" on="0"/>
        <pt x="142" y="328" on="0"/>
        <pt x="153" y="335" on="0"/>
        <pt x="164" y="336" on="0"/>
        <pt x="166" y="336" on="1"/>
        <pt x="192" y="336" on="0"/>
        <pt x="246" y="342" on="0"/>
        <pt x="291" y="358" on="0"/>
        <pt x="324" y="387" on="0"/>
        <pt x="330" y="411" on="1"/>
        <pt x="372" y="581" on="1"/>
        <pt x="381" y="618" on="0"/>
        <pt x="432" y="662" on="0"/>
        <pt x="496" y="686" on="0"/>
        <pt x="565" y="694" on="0"/>
        <pt x="593" y="694" on="1"/>
        <pt x="598" y="694" on="0"/>
        <pt x="613" y="693" on="0"/>
        <pt x="626" y="688" on="0"/>
        <pt x="635" y="677" on="0"/>
        <pt x="635" y="666" on="1"/>
        <pt x="635" y="654" on="0"/>
        <pt x="626" y="641" on="0"/>
        <pt x="613" y="634" on="0"/>
        <pt x="600" y="633" on="0"/>
        <pt x="597" y="633" on="1"/>
        <pt x="544" y="632" on="0"/>
        <pt x="483" y="616" on="0"/>
        <pt x="451" y="594" on="0"/>
        <pt x="441" y="572" on="0"/>
        <pt x="439" y="564" on="1"/>
      </contour>
    </TTGlyph>
    <TTGlyph name="braceright" xMin="43" yMin="-83" xMax="545" yMax="694">
      <contour>
        <pt x="404" y="425" on="1"/>
        <pt x="401" y="414" on="0"/>
        <pt x="394" y="385" on="0"/>
        <pt x="394" y="380" on="1"/>
        <pt x="394" y="364" on="0"/>
        <pt x="426" y="347" on="0"/>
        <pt x="466" y="338" on="0"/>
        <pt x="505" y="336" on="0"/>
        <pt x="512" y="336" on="1"/>
        <pt x="534" y="336" on="0"/>
        <pt x="545" y="316" on="0"/>
        <pt x="545" y="308" on="1"/>
        <pt x="545" y="291" on="0"/>
        <pt x="527" y="275" on="0"/>
        <pt x="517" y="275" on="1"/>
        <pt x="489" y="274" on="0"/>
        <pt x="424" y="268" on="0"/>
        <pt x="399" y="257" on="1"/>
        <pt x="383" y="250" on="0"/>
        <pt x="365" y="237" on="0"/>
        <pt x="353" y="218" on="0"/>
        <pt x="344" y="186" on="0"/>
        <pt x="338" y="160" on="1"/>
        <pt x="332" y="139" on="0"/>
        <pt x="326" y="112" on="0"/>
        <pt x="321" y="94" on="0"/>
        <pt x="319" y="84" on="0"/>
        <pt x="317" y="79" on="1"/>
        <pt x="311" y="54" on="0"/>
        <pt x="303" y="22" on="0"/>
        <pt x="295" y="1" on="0"/>
        <pt x="286" y="-14" on="0"/>
        <pt x="280" y="-21" on="1"/>
        <pt x="251" y="-52" on="0"/>
        <pt x="156" y="-83" on="0"/>
        <pt x="85" y="-83" on="1"/>
        <pt x="80" y="-83" on="0"/>
        <pt x="65" y="-82" on="0"/>
        <pt x="52" y="-77" on="0"/>
        <pt x="43" y="-66" on="0"/>
        <pt x="43" y="-55" on="1"/>
        <pt x="43" y="-42" on="0"/>
        <pt x="59" y="-22" on="0"/>
        <pt x="71" y="-22" on="1"/>
        <pt x="86" y="-22" on="0"/>
        <pt x="133" y="-19" on="0"/>
        <pt x="182" y="-10" on="0"/>
        <pt x="224" y="10" on="0"/>
        <pt x="233" y="28" on="1"/>
        <pt x="234" y="31" on="0"/>
        <pt x="239" y="49" on="0"/>
        <pt x="245" y="72" on="0"/>
        <pt x="251" y="98" on="0"/>
        <pt x="254" y="108" on="1"/>
        <pt x="256" y="115" on="0"/>
        <pt x="264" y="147" on="0"/>
        <pt x="273" y="183" on="0"/>
        <pt x="280" y="212" on="0"/>
        <pt x="281" y="216" on="1"/>
        <pt x="287" y="239" on="0"/>
        <pt x="320" y="289" on="0"/>
        <pt x="363" y="308" on="1"/>
        <pt x="362" y="309" on="0"/>
        <pt x="350" y="318" on="0"/>
        <pt x="336" y="336" on="0"/>
        <pt x="325" y="362" on="0"/>
        <pt x="325" y="379" on="1"/>
        <pt x="325" y="389" on="0"/>
        <pt x="332" y="421" on="0"/>
        <pt x="336" y="435" on="1"/>
        <pt x="339" y="449" on="0"/>
        <pt x="346" y="477" on="0"/>
        <pt x="350" y="491" on="1"/>
        <pt x="364" y="547" on="1"/>
        <pt x="367" y="558" on="0"/>
        <pt x="374" y="588" on="0"/>
        <pt x="374" y="593" on="1"/>
        <pt x="374" y="608" on="0"/>
        <pt x="343" y="624" on="0"/>
        <pt x="304" y="631" on="0"/>
        <pt x="268" y="633" on="0"/>
        <pt x="263" y="633" on="1"/>
        <pt x="258" y="633" on="0"/>
        <pt x="244" y="634" on="0"/>
        <pt x="231" y="639" on="0"/>
        <pt x="222" y="651" on="0"/>
        <pt x="222" y="661" on="1"/>
        <pt x="222" y="673" on="0"/>
        <pt x="232" y="687" on="0"/>
        <pt x="245" y="693" on="0"/>
        <pt x="260" y="694" on="0"/>
        <pt x="265" y="694" on="1"/>
        <pt x="272" y="694" on="0"/>
        <pt x="304" y="693" on="0"/>
        <pt x="343" y="688" on="0"/>
        <pt x="386" y="676" on="0"/>
        <pt x="421" y="654" on="0"/>
        <pt x="444" y="620" on="0"/>
        <pt x="444" y="595" on="1"/>
        <pt x="444" y="587" on="0"/>
        <pt x="436" y="551" on="0"/>
        <pt x="432" y="537" on="1"/>
      </contour>
    </TTGlyph>
    <TTGlyph name="bracketleft" xMin="208" yMin="-83" xMax="651" yMax="694">
      <contour>
        <pt x="286" y="-22" on="1"/>
        <pt x="431" y="-22" on="1"/>
        <pt x="436" y="-22" on="0"/>
        <pt x="450" y="-23" on="0"/>
        <pt x="463" y="-28" on="0"/>
        <pt x="472" y="-40" on="0"/>
        <pt x="472" y="-50" on="1"/>
        <pt x="472" y="-62" on="0"/>
        <pt x="463" y="-76" on="0"/>
        <pt x="449" y="-82" on="0"/>
        <pt x="435" y="-83" on="0"/>
        <pt x="430" y="-83" on="1"/>
        <pt x="249" y="-83" on="1"/>
        <pt x="244" y="-83" on="0"/>
        <pt x="230" y="-82" on="0"/>
        <pt x="217" y="-77" on="0"/>
        <pt x="208" y="-66" on="0"/>
        <pt x="208" y="-55" on="1"/>
        <pt x="208" y="-50" on="0"/>
        <pt x="210" y="-42" on="0"/>
        <pt x="211" y="-38" on="1"/>
        <pt x="387" y="665" on="1"/>
        <pt x="392" y="687" on="0"/>
        <pt x="412" y="694" on="0"/>
        <pt x="429" y="694" on="1"/>
        <pt x="610" y="694" on="1"/>
        <pt x="615" y="694" on="0"/>
        <pt x="629" y="693" on="0"/>
        <pt x="642" y="688" on="0"/>
        <pt x="651" y="677" on="0"/>
        <pt x="651" y="666" on="1"/>
        <pt x="651" y="654" on="0"/>
        <pt x="642" y="640" on="0"/>
        <pt x="628" y="634" on="0"/>
        <pt x="614" y="633" on="0"/>
        <pt x="609" y="633" on="1"/>
        <pt x="450" y="633" on="1"/>
      </contour>
    </TTGlyph>
    <TTGlyph name="bracketright" xMin="27" yMin="-83" xMax="470" yMax="694">
      <contour>
        <pt x="291" y="-53" on="1"/>
        <pt x="286" y="-76" on="0"/>
        <pt x="265" y="-83" on="0"/>
        <pt x="249" y="-83" on="1"/>
        <pt x="68" y="-83" on="1"/>
        <pt x="63" y="-83" on="0"/>
        <pt x="49" y="-82" on="0"/>
        <pt x="36" y="-77" on="0"/>
        <pt x="27" y="-66" on="0"/>
        <pt x="27" y="-55" on="1"/>
        <pt x="27" y="-43" on="0"/>
        <pt x="36" y="-29" on="0"/>
        <pt x="49" y="-23" on="0"/>
        <pt x="63" y="-22" on="0"/>
        <pt x="69" y="-22" on="1"/>
        <pt x="228" y="-22" on="1"/>
        <pt x="391" y="633" on="1"/>
        <pt x="247" y="633" on="1"/>
        <pt x="242" y="633" on="0"/>
        <pt x="228" y="634" on="0"/>
        <pt x="215" y="639" on="0"/>
        <pt x="206" y="651" on="0"/>
        <pt x="206" y="661" on="1"/>
        <pt x="206" y="673" on="0"/>
        <pt x="215" y="687" on="0"/>
        <pt x="228" y="693" on="0"/>
        <pt x="242" y="694" on="0"/>
        <pt x="248" y="694" on="1"/>
        <pt x="429" y="694" on="1"/>
        <pt x="434" y="694" on="0"/>
        <pt x="448" y="693" on="0"/>
        <pt x="461" y="688" on="0"/>
        <pt x="470" y="677" on="0"/>
        <pt x="470" y="666" on="1"/>
        <pt x="470" y="661" on="0"/>
        <pt x="467" y="652" on="1"/>
      </contour>
    </TTGlyph>
    <TTGlyph name="breve" xMin="230" yMin="498" xMax="585" yMax="611">
      <contour>
        <pt x="292" y="573" on="1"/>
        <pt x="311" y="565" on="0"/>
        <pt x="362" y="562" on="0"/>
        <pt x="396" y="562" on="1"/>
        <pt x="414" y="562" on="0"/>
        <pt x="456" y="563" on="0"/>
        <pt x="492" y="567" on="0"/>
        <pt x="520" y="578" on="0"/>
        <pt x="524" y="587" on="1"/>
        <pt x="528" y="597" on="0"/>
        <pt x="539" y="611" on="0"/>
        <pt x="554" y="611" on="1"/>
        <pt x="574" y="611" on="0"/>
        <pt x="585" y="588" on="0"/>
        <pt x="585" y="583" on="1"/>
        <pt x="585" y="576" on="0"/>
        <pt x="575" y="551" on="0"/>
        <pt x="565" y="540" on="1"/>
        <pt x="552" y="524" on="0"/>
        <pt x="512" y="507" on="0"/>
        <pt x="466" y="499" on="0"/>
        <pt x="418" y="498" on="0"/>
        <pt x="395" y="498" on="1"/>
        <pt x="369" y="498" on="0"/>
        <pt x="311" y="500" on="0"/>
        <pt x="262" y="514" on="0"/>
        <pt x="230" y="544" on="0"/>
        <pt x="230" y="571" on="1"/>
        <pt x="230" y="586" on="0"/>
        <pt x="243" y="611" on="0"/>
        <pt x="262" y="611" on="1"/>
        <pt x="273" y="611" on="0"/>
        <pt x="285" y="603" on="0"/>
        <pt x="291" y="592" on="0"/>
        <pt x="292" y="579" on="0"/>
      </contour>
    </TTGlyph>
    <TTGlyph name="c" xMin="137" yMin="-6" xMax="529" yMax="437">
      <contour>
        <pt x="437" y="358" on="1"/>
        <pt x="428" y="369" on="0"/>
        <pt x="404" y="376" on="0"/>
        <pt x="390" y="376" on="1"/>
        <pt x="358" y="376" on="0"/>
        <pt x="292" y="340" on="0"/>
        <pt x="239" y="280" on="0"/>
        <pt x="206" y="203" on="0"/>
        <pt x="206" y="162" on="1"/>
        <pt x="206" y="122" on="0"/>
        <pt x="233" y="78" on="0"/>
        <pt x="267" y="58" on="0"/>
        <pt x="302" y="55" on="0"/>
        <pt x="309" y="55" on="1"/>
        <pt x="350" y="55" on="0"/>
        <pt x="406" y="64" on="0"/>
        <pt x="443" y="78" on="0"/>
        <pt x="465" y="94" on="0"/>
        <pt x="472" y="101" on="1"/>
        <pt x="475" y="103" on="0"/>
        <pt x="486" y="110" on="0"/>
        <pt x="494" y="110" on="1"/>
        <pt x="506" y="110" on="0"/>
        <pt x="529" y="87" on="0"/>
        <pt x="529" y="74" on="1"/>
        <pt x="529" y="62" on="0"/>
        <pt x="507" y="40" on="0"/>
        <pt x="477" y="22" on="0"/>
        <pt x="449" y="11" on="0"/>
        <pt x="443" y="9" on="1"/>
        <pt x="410" y="-2" on="0"/>
        <pt x="339" y="-6" on="0"/>
        <pt x="313" y="-6" on="1"/>
        <pt x="302" y="-6" on="0"/>
        <pt x="272" y="-5" on="0"/>
        <pt x="239" y="3" on="0"/>
        <pt x="205" y="19" on="0"/>
        <pt x="190" y="34" on="1"/>
        <pt x="166" y="57" on="0"/>
        <pt x="137" y="119" on="0"/>
        <pt x="137" y="163" on="1"/>
        <pt x="137" y="215" on="0"/>
        <pt x="180" y="314" on="0"/>
        <pt x="252" y="390" on="0"/>
        <pt x="344" y="437" on="0"/>
        <pt x="392" y="437" on="1"/>
        <pt x="446" y="437" on="0"/>
        <pt x="512" y="382" on="0"/>
        <pt x="512" y="342" on="1"/>
        <pt x="512" y="315" on="0"/>
        <pt x="484" y="281" on="0"/>
        <pt x="461" y="281" on="1"/>
        <pt x="445" y="281" on="0"/>
        <pt x="420" y="301" on="0"/>
        <pt x="420" y="321" on="1"/>
        <pt x="420" y="339" on="0"/>
        <pt x="432" y="354" on="0"/>
      </contour>
    </TTGlyph>
    <TTGlyph name="caron" xMin="234" yMin="454" xMax="557" yMax="572">
      <contour>
        <pt x="509" y="567" on="1"/>
        <pt x="522" y="572" on="0"/>
        <pt x="527" y="572" on="1"/>
        <pt x="547" y="572" on="0"/>
        <pt x="557" y="543" on="0"/>
        <pt x="557" y="533" on="1"/>
        <pt x="557" y="522" on="0"/>
        <pt x="546" y="507" on="0"/>
        <pt x="530" y="502" on="1"/>
        <pt x="384" y="454" on="1"/>
        <pt x="380" y="455" on="0"/>
        <pt x="374" y="456" on="0"/>
        <pt x="365" y="460" on="1"/>
        <pt x="257" y="503" on="1"/>
        <pt x="234" y="512" on="0"/>
        <pt x="234" y="532" on="1"/>
        <pt x="234" y="536" on="0"/>
        <pt x="239" y="549" on="0"/>
        <pt x="248" y="562" on="0"/>
        <pt x="261" y="572" on="0"/>
        <pt x="270" y="572" on="1"/>
        <pt x="273" y="572" on="0"/>
        <pt x="279" y="570" on="0"/>
        <pt x="290" y="565" on="1"/>
        <pt x="386" y="522" on="1"/>
      </contour>
    </TTGlyph>
    <TTGlyph name="cedilla" xMin="117" yMin="-208" xMax="404" yMax="45">
      <contour>
        <pt x="328" y="-11" on="1"/>
        <pt x="352" y="-17" on="0"/>
        <pt x="382" y="-38" on="0"/>
        <pt x="399" y="-61" on="0"/>
        <pt x="404" y="-84" on="0"/>
        <pt x="404" y="-92" on="1"/>
        <pt x="404" y="-98" on="0"/>
        <pt x="400" y="-123" on="0"/>
        <pt x="383" y="-153" on="0"/>
        <pt x="348" y="-182" on="0"/>
        <pt x="318" y="-192" on="1"/>
        <pt x="306" y="-196" on="0"/>
        <pt x="277" y="-202" on="0"/>
        <pt x="238" y="-206" on="0"/>
        <pt x="185" y="-208" on="0"/>
        <pt x="149" y="-208" on="1"/>
        <pt x="130" y="-208" on="0"/>
        <pt x="117" y="-186" on="0"/>
        <pt x="117" y="-179" on="1"/>
        <pt x="117" y="-154" on="0"/>
        <pt x="152" y="-146" on="0"/>
        <pt x="184" y="-146" on="1"/>
        <pt x="196" y="-146" on="0"/>
        <pt x="246" y="-144" on="0"/>
        <pt x="296" y="-134" on="0"/>
        <pt x="334" y="-113" on="0"/>
        <pt x="334" y="-93" on="1"/>
        <pt x="334" y="-84" on="0"/>
        <pt x="321" y="-74" on="0"/>
        <pt x="303" y="-68" on="0"/>
        <pt x="286" y="-66" on="0"/>
        <pt x="282" y="-66" on="1"/>
        <pt x="270" y="-66" on="0"/>
        <pt x="258" y="-57" on="0"/>
        <pt x="252" y="-47" on="0"/>
        <pt x="251" y="-38" on="0"/>
        <pt x="251" y="-38" on="1"/>
        <pt x="251" y="-37" on="0"/>
        <pt x="254" y="-24" on="0"/>
        <pt x="258" y="-8" on="0"/>
        <pt x="262" y="9" on="0"/>
        <pt x="264" y="16" on="1"/>
        <pt x="267" y="30" on="0"/>
        <pt x="280" y="45" on="0"/>
        <pt x="300" y="45" on="1"/>
        <pt x="322" y="45" on="0"/>
        <pt x="334" y="25" on="0"/>
        <pt x="334" y="17" on="1"/>
        <pt x="334" y="12" on="0"/>
        <pt x="330" y="-6" on="0"/>
      </contour>
    </TTGlyph>
    <TTGlyph name="colon" xMin="215" yMin="0" xMax="418" yMax="431">
      <contour>
        <pt x="418" y="377" on="1"/>
        <pt x="418" y="348" on="0"/>
        <pt x="375" y="306" on="0"/>
        <pt x="346" y="306" on="1"/>
        <pt x="321" y="306" on="0"/>
        <pt x="291" y="338" on="0"/>
        <pt x="291" y="360" on="1"/>
        <pt x="291" y="388" on="0"/>
        <pt x="335" y="431" on="0"/>
        <pt x="363" y="431" on="1"/>
        <pt x="386" y="431" on="0"/>
        <pt x="418" y="401" on="0"/>
      </contour>
      <contour>
        <pt x="342" y="71" on="1"/>
        <pt x="342" y="58" on="0"/>
        <pt x="330" y="32" on="0"/>
        <pt x="311" y="12" on="0"/>
        <pt x="285" y="0" on="0"/>
        <pt x="270" y="0" on="1"/>
        <pt x="250" y="0" on="0"/>
        <pt x="215" y="27" on="0"/>
        <pt x="215" y="54" on="1"/>
        <pt x="215" y="70" on="0"/>
        <pt x="228" y="96" on="0"/>
        <pt x="249" y="115" on="0"/>
        <pt x="274" y="125" on="0"/>
        <pt x="286" y="125" on="1"/>
        <pt x="315" y="125" on="0"/>
        <pt x="342" y="89" on="0"/>
      </contour>
    </TTGlyph>
    <TTGlyph name="comma" xMin="153" yMin="-139" xMax="355" yMax="125">
      <contour>
        <pt x="279" y="1" on="1"/>
        <pt x="276" y="0" on="0"/>
        <pt x="269" y="0" on="1"/>
        <pt x="254" y="0" on="0"/>
        <pt x="233" y="11" on="0"/>
        <pt x="220" y="27" on="0"/>
        <pt x="214" y="45" on="0"/>
        <pt x="214" y="53" on="1"/>
        <pt x="214" y="65" on="0"/>
        <pt x="224" y="90" on="0"/>
        <pt x="243" y="111" on="0"/>
        <pt x="270" y="125" on="0"/>
        <pt x="287" y="125" on="1"/>
        <pt x="298" y="125" on="0"/>
        <pt x="322" y="117" on="0"/>
        <pt x="342" y="99" on="0"/>
        <pt x="355" y="69" on="0"/>
        <pt x="355" y="48" on="1"/>
        <pt x="355" y="8" on="0"/>
        <pt x="315" y="-60" on="0"/>
        <pt x="259" y="-110" on="0"/>
        <pt x="202" y="-139" on="0"/>
        <pt x="185" y="-139" on="1"/>
        <pt x="168" y="-139" on="0"/>
        <pt x="153" y="-114" on="0"/>
        <pt x="153" y="-108" on="1"/>
        <pt x="153" y="-92" on="0"/>
        <pt x="173" y="-81" on="0"/>
        <pt x="178" y="-79" on="1"/>
        <pt x="200" y="-73" on="0"/>
        <pt x="258" y="-38" on="0"/>
      </contour>
    </TTGlyph>
    <TTGlyph name="d" xMin="126" yMin="-6" xMax="553" yMax="611">
      <contour>
        <pt x="423" y="108" on="1"/>
        <pt x="421" y="102" on="0"/>
        <pt x="419" y="90" on="0"/>
        <pt x="419" y="84" on="1"/>
        <pt x="419" y="82" on="0"/>
        <pt x="420" y="72" on="0"/>
        <pt x="424" y="62" on="0"/>
        <pt x="433" y="55" on="0"/>
        <pt x="440" y="55" on="1"/>
        <pt x="448" y="55" on="0"/>
        <pt x="460" y="73" on="0"/>
        <pt x="471" y="98" on="0"/>
        <pt x="478" y="123" on="0"/>
        <pt x="479" y="130" on="1"/>
        <pt x="485" y="153" on="0"/>
        <pt x="497" y="172" on="0"/>
        <pt x="518" y="172" on="1"/>
        <pt x="531" y="172" on="0"/>
        <pt x="545" y="164" on="0"/>
        <pt x="552" y="155" on="0"/>
        <pt x="553" y="146" on="0"/>
        <pt x="553" y="144" on="1"/>
        <pt x="553" y="141" on="0"/>
        <pt x="548" y="120" on="0"/>
        <pt x="539" y="91" on="0"/>
        <pt x="527" y="60" on="0"/>
        <pt x="520" y="48" on="1"/>
        <pt x="517" y="43" on="0"/>
        <pt x="505" y="25" on="0"/>
        <pt x="486" y="7" on="0"/>
        <pt x="458" y="-6" on="0"/>
        <pt x="439" y="-6" on="1"/>
        <pt x="419" y="-6" on="0"/>
        <pt x="389" y="7" on="0"/>
        <pt x="370" y="25" on="0"/>
        <pt x="359" y="43" on="0"/>
        <pt x="357" y="47" on="1"/>
        <pt x="353" y="43" on="0"/>
        <pt x="333" y="26" on="0"/>
        <pt x="303" y="8" on="0"/>
        <pt x="265" y="-6" on="0"/>
        <pt x="244" y="-6" on="1"/>
        <pt x="219" y="-6" on="0"/>
        <pt x="176" y="15" on="0"/>
        <pt x="144" y="55" on="0"/>
        <pt x="126" y="112" on="0"/>
        <pt x="126" y="148" on="1"/>
        <pt x="126" y="200" on="0"/>
        <pt x="163" y="303" on="0"/>
        <pt x="223" y="386" on="0"/>
        <pt x="300" y="437" on="0"/>
        <pt x="340" y="437" on="1"/>
        <pt x="354" y="437" on="0"/>
        <pt x="400" y="424" on="0"/>
        <pt x="424" y="397" on="1"/>
        <pt x="462" y="550" on="1"/>
        <pt x="418" y="550" on="1"/>
        <pt x="413" y="550" on="0"/>
        <pt x="399" y="551" on="0"/>
        <pt x="386" y="556" on="0"/>
        <pt x="377" y="568" on="0"/>
        <pt x="377" y="578" on="1"/>
        <pt x="377" y="590" on="0"/>
        <pt x="386" y="604" on="0"/>
        <pt x="399" y="610" on="0"/>
        <pt x="413" y="611" on="0"/>
        <pt x="419" y="611" on="1"/>
        <pt x="500" y="611" on="1"/>
        <pt x="505" y="611" on="0"/>
        <pt x="519" y="610" on="0"/>
        <pt x="532" y="605" on="0"/>
        <pt x="541" y="594" on="0"/>
        <pt x="541" y="583" on="1"/>
        <pt x="541" y="578" on="0"/>
        <pt x="539" y="570" on="0"/>
        <pt x="538" y="566" on="1"/>
      </contour>
      <contour>
        <pt x="245" y="55" on="1"/>
        <pt x="268" y="55" on="0"/>
        <pt x="318" y="95" on="0"/>
        <pt x="361" y="160" on="0"/>
        <pt x="389" y="243" on="0"/>
        <pt x="389" y="286" on="1"/>
        <pt x="389" y="303" on="0"/>
        <pt x="383" y="335" on="0"/>
        <pt x="371" y="361" on="0"/>
        <pt x="352" y="376" on="0"/>
        <pt x="338" y="376" on="1"/>
        <pt x="316" y="376" on="0"/>
        <pt x="265" y="335" on="0"/>
        <pt x="222" y="269" on="0"/>
        <pt x="194" y="186" on="0"/>
        <pt x="194" y="144" on="1"/>
        <pt x="194" y="136" on="0"/>
        <pt x="198" y="106" on="0"/>
        <pt x="208" y="77" on="0"/>
        <pt x="229" y="55" on="0"/>
      </contour>
    </TTGlyph>
    <TTGlyph name="dieresis" xMin="250" yMin="512" xMax="556" yMax="612">
      <contour>
        <pt x="352" y="567" on="1"/>
        <pt x="352" y="547" on="0"/>
        <pt x="319" y="512" on="0"/>
        <pt x="296" y="512" on="1"/>
        <pt x="274" y="512" on="0"/>
        <pt x="250" y="540" on="0"/>
        <pt x="250" y="557" on="1"/>
        <pt x="250" y="577" on="0"/>
        <pt x="283" y="612" on="0"/>
        <pt x="306" y="612" on="1"/>
        <pt x="330" y="612" on="0"/>
        <pt x="352" y="581" on="0"/>
      </contour>
      <contour>
        <pt x="556" y="567" on="1"/>
        <pt x="556" y="547" on="0"/>
        <pt x="523" y="512" on="0"/>
        <pt x="500" y="512" on="1"/>
        <pt x="476" y="512" on="0"/>
        <pt x="454" y="543" on="0"/>
        <pt x="454" y="557" on="1"/>
        <pt x="454" y="577" on="0"/>
        <pt x="487" y="612" on="0"/>
        <pt x="510" y="612" on="1"/>
        <pt x="532" y="612" on="0"/>
        <pt x="556" y="584" on="0"/>
      </contour>
    </TTGlyph>
    <TTGlyph name="dotlessi" xMin="143" yMin="-6" xMax="490" yMax="437">
      <contour>
        <pt x="325" y="328" on="1"/>
        <pt x="326" y="330" on="0"/>
        <pt x="330" y="342" on="0"/>
        <pt x="330" y="349" on="1"/>
        <pt x="330" y="362" on="0"/>
        <pt x="314" y="376" on="0"/>
        <pt x="300" y="376" on="1"/>
        <pt x="293" y="376" on="0"/>
        <pt x="270" y="368" on="0"/>
        <pt x="245" y="348" on="0"/>
        <pt x="221" y="312" on="0"/>
        <pt x="212" y="284" on="1"/>
        <pt x="208" y="273" on="0"/>
        <pt x="196" y="259" on="0"/>
        <pt x="177" y="259" on="1"/>
        <pt x="155" y="259" on="0"/>
        <pt x="143" y="281" on="0"/>
        <pt x="143" y="287" on="1"/>
        <pt x="143" y="299" on="0"/>
        <pt x="164" y="349" on="0"/>
        <pt x="205" y="399" on="0"/>
        <pt x="264" y="437" on="0"/>
        <pt x="302" y="437" on="1"/>
        <pt x="343" y="437" on="0"/>
        <pt x="399" y="388" on="0"/>
        <pt x="399" y="349" on="1"/>
        <pt x="399" y="343" on="0"/>
        <pt x="398" y="333" on="0"/>
        <pt x="394" y="320" on="0"/>
        <pt x="387" y="301" on="0"/>
        <pt x="381" y="286" on="1"/>
        <pt x="357" y="226" on="1"/>
        <pt x="349" y="206" on="0"/>
        <pt x="333" y="166" on="0"/>
        <pt x="325" y="146" on="1"/>
        <pt x="322" y="138" on="0"/>
        <pt x="314" y="118" on="0"/>
        <pt x="308" y="99" on="0"/>
        <pt x="303" y="85" on="0"/>
        <pt x="303" y="82" on="1"/>
        <pt x="303" y="67" on="0"/>
        <pt x="322" y="55" on="0"/>
        <pt x="333" y="55" on="1"/>
        <pt x="356" y="55" on="0"/>
        <pt x="407" y="101" on="0"/>
        <pt x="420" y="146" on="1"/>
        <pt x="423" y="155" on="0"/>
        <pt x="435" y="172" on="0"/>
        <pt x="455" y="172" on="1"/>
        <pt x="468" y="172" on="0"/>
        <pt x="482" y="164" on="0"/>
        <pt x="489" y="155" on="0"/>
        <pt x="490" y="146" on="0"/>
        <pt x="490" y="144" on="1"/>
        <pt x="490" y="132" on="0"/>
        <pt x="469" y="82" on="0"/>
        <pt x="429" y="32" on="0"/>
        <pt x="369" y="-6" on="0"/>
        <pt x="331" y="-6" on="1"/>
        <pt x="291" y="-6" on="0"/>
        <pt x="234" y="42" on="0"/>
        <pt x="234" y="82" on="1"/>
        <pt x="234" y="97" on="0"/>
        <pt x="238" y="112" on="0"/>
        <pt x="242" y="122" on="1"/>
      </contour>
    </TTGlyph>
    <TTGlyph name="e" xMin="138" yMin="-6" xMax="529" yMax="437">
      <contour>
        <pt x="227" y="189" on="1"/>
        <pt x="213" y="189" on="0"/>
        <pt x="207" y="182" on="0"/>
        <pt x="207" y="163" on="1"/>
        <pt x="207" y="123" on="0"/>
        <pt x="233" y="79" on="0"/>
        <pt x="268" y="58" on="0"/>
        <pt x="302" y="55" on="0"/>
        <pt x="309" y="55" on="1"/>
        <pt x="350" y="55" on="0"/>
        <pt x="406" y="64" on="0"/>
        <pt x="443" y="78" on="0"/>
        <pt x="465" y="94" on="0"/>
        <pt x="472" y="101" on="1"/>
        <pt x="475" y="103" on="0"/>
        <pt x="486" y="110" on="0"/>
        <pt x="494" y="110" on="1"/>
        <pt x="506" y="110" on="0"/>
        <pt x="529" y="87" on="0"/>
        <pt x="529" y="74" on="1"/>
        <pt x="529" y="62" on="0"/>
        <pt x="507" y="40" on="0"/>
        <pt x="477" y="22" on="0"/>
        <pt x="449" y="11" on="0"/>
        <pt x="443" y="9" on="1"/>
        <pt x="410" y="-2" on="0"/>
        <pt x="339" y="-6" on="0"/>
        <pt x="313" y="-6" on="1"/>
        <pt x="299" y="-6" on="0"/>
        <pt x="268" y="-5" on="0"/>
        <pt x="235" y="4" on="0"/>
        <pt x="202" y="23" on="0"/>
        <pt x="185" y="40" on="1"/>
        <pt x="165" y="60" on="0"/>
        <pt x="138" y="121" on="0"/>
        <pt x="138" y="165" on="1"/>
        <pt x="138" y="219" on="0"/>
        <pt x="182" y="318" on="0"/>
        <pt x="254" y="393" on="0"/>
        <pt x="345" y="437" on="0"/>
        <pt x="392" y="437" on="1"/>
        <pt x="447" y="437" on="0"/>
        <pt x="516" y="378" on="0"/>
        <pt x="516" y="333" on="1"/>
        <pt x="516" y="325" on="0"/>
        <pt x="511" y="296" on="0"/>
        <pt x="494" y="262" on="0"/>
        <pt x="460" y="228" on="0"/>
        <pt x="430" y="215" on="1"/>
        <pt x="401" y="202" on="0"/>
        <pt x="313" y="189" on="0"/>
        <pt x="260" y="189" on="1"/>
      </contour>
      <contour>
        <pt x="256" y="250" on="1"/>
        <pt x="288" y="250" on="0"/>
        <pt x="356" y="256" on="0"/>
        <pt x="412" y="274" on="0"/>
        <pt x="447" y="306" on="0"/>
        <pt x="447" y="333" on="1"/>
        <pt x="447" y="353" on="0"/>
        <pt x="416" y="376" on="0"/>
        <pt x="390" y="376" on="1"/>
        <pt x="369" y="376" on="0"/>
        <pt x="322" y="359" on="0"/>
        <pt x="278" y="326" on="0"/>
        <pt x="239" y="279" on="0"/>
        <pt x="226" y="250" on="1"/>
      </contour>
    </TTGlyph>
    <TTGlyph name="eight" xMin="83" yMin="-11" xMax="586" yMax="622">
      <contour>
        <pt x="424" y="330" on="1"/>
        <pt x="444" y="323" on="0"/>
        <pt x="482" y="301" on="0"/>
        <pt x="511" y="269" on="0"/>
        <pt x="529" y="229" on="0"/>
        <pt x="529" y="205" on="1"/>
        <pt x="529" y="169" on="0"/>
        <pt x="487" y="93" on="0"/>
        <pt x="414" y="30" on="0"/>
        <pt x="316" y="-11" on="0"/>
        <pt x="260" y="-11" on="1"/>
        <pt x="221" y="-11" on="0"/>
        <pt x="156" y="11" on="0"/>
        <pt x="109" y="50" on="0"/>
        <pt x="83" y="104" on="0"/>
        <pt x="83" y="137" on="1"/>
        <pt x="83" y="174" on="0"/>
        <pt x="115" y="237" on="0"/>
        <pt x="168" y="286" on="0"/>
        <pt x="233" y="321" on="0"/>
        <pt x="266" y="330" on="1"/>
        <pt x="250" y="335" on="0"/>
        <pt x="216" y="353" on="0"/>
        <pt x="188" y="380" on="0"/>
        <pt x="170" y="415" on="0"/>
        <pt x="170" y="437" on="1"/>
        <pt x="170" y="468" on="0"/>
        <pt x="209" y="533" on="0"/>
        <pt x="276" y="587" on="0"/>
        <pt x="366" y="622" on="0"/>
        <pt x="417" y="622" on="1"/>
        <pt x="456" y="622" on="0"/>
        <pt x="519" y="602" on="0"/>
        <pt x="563" y="566" on="0"/>
        <pt x="586" y="518" on="0"/>
        <pt x="586" y="491" on="1"/>
        <pt x="586" y="458" on="0"/>
        <pt x="555" y="405" on="0"/>
        <pt x="507" y="364" on="0"/>
        <pt x="450" y="337" on="0"/>
      </contour>
      <contour>
        <pt x="353" y="360" on="1"/>
        <pt x="383" y="360" on="0"/>
        <pt x="442" y="379" on="0"/>
        <pt x="487" y="412" on="0"/>
        <pt x="515" y="455" on="0"/>
        <pt x="515" y="478" on="1"/>
        <pt x="515" y="518" on="0"/>
        <pt x="449" y="561" on="0"/>
        <pt x="403" y="561" on="1"/>
        <pt x="370" y="561" on="0"/>
        <pt x="311" y="541" on="0"/>
        <pt x="266" y="508" on="0"/>
        <pt x="240" y="465" on="0"/>
        <pt x="240" y="443" on="1"/>
        <pt x="240" y="424" on="0"/>
        <pt x="258" y="393" on="0"/>
        <pt x="290" y="371" on="0"/>
        <pt x="331" y="360" on="0"/>
      </contour>
      <contour>
        <pt x="276" y="50" on="1"/>
        <pt x="311" y="50" on="0"/>
        <pt x="377" y="75" on="0"/>
        <pt x="428" y="117" on="0"/>
        <pt x="459" y="171" on="0"/>
        <pt x="459" y="200" on="1"/>
        <pt x="459" y="217" on="0"/>
        <pt x="445" y="253" on="0"/>
        <pt x="415" y="281" on="0"/>
        <pt x="369" y="299" on="0"/>
        <pt x="337" y="299" on="1"/>
        <pt x="300" y="299" on="0"/>
        <pt x="233" y="273" on="0"/>
        <pt x="183" y="231" on="0"/>
        <pt x="154" y="177" on="0"/>
        <pt x="154" y="150" on="1"/>
        <pt x="154" y="107" on="0"/>
        <pt x="219" y="50" on="0"/>
      </contour>
    </TTGlyph>
    <TTGlyph name="equal" xMin="96" yMin="195" xMax="582" yMax="417">
      <contour>
        <pt x="178" y="347" on="1"/>
        <pt x="174" y="347" on="0"/>
        <pt x="159" y="348" on="0"/>
        <pt x="144" y="355" on="0"/>
        <pt x="133" y="369" on="0"/>
        <pt x="133" y="382" on="1"/>
        <pt x="133" y="395" on="0"/>
        <pt x="145" y="409" on="0"/>
        <pt x="162" y="416" on="0"/>
        <pt x="179" y="417" on="0"/>
        <pt x="184" y="417" on="1"/>
        <pt x="531" y="417" on="1"/>
        <pt x="537" y="417" on="0"/>
        <pt x="554" y="416" on="0"/>
        <pt x="571" y="409" on="0"/>
        <pt x="582" y="395" on="0"/>
        <pt x="582" y="382" on="1"/>
        <pt x="582" y="369" on="0"/>
        <pt x="572" y="355" on="0"/>
        <pt x="558" y="348" on="0"/>
        <pt x="543" y="347" on="0"/>
        <pt x="538" y="347" on="1"/>
      </contour>
      <contour>
        <pt x="147" y="195" on="1"/>
        <pt x="141" y="195" on="0"/>
        <pt x="124" y="196" on="0"/>
        <pt x="107" y="203" on="0"/>
        <pt x="96" y="217" on="0"/>
        <pt x="96" y="230" on="1"/>
        <pt x="96" y="243" on="0"/>
        <pt x="106" y="257" on="0"/>
        <pt x="120" y="264" on="0"/>
        <pt x="135" y="265" on="0"/>
        <pt x="140" y="265" on="1"/>
        <pt x="500" y="265" on="1"/>
        <pt x="504" y="265" on="0"/>
        <pt x="519" y="264" on="0"/>
        <pt x="534" y="257" on="0"/>
        <pt x="545" y="243" on="0"/>
        <pt x="545" y="230" on="1"/>
        <pt x="545" y="217" on="0"/>
        <pt x="533" y="203" on="0"/>
        <pt x="516" y="196" on="0"/>
        <pt x="499" y="195" on="0"/>
        <pt x="494" y="195" on="1"/>
      </contour>
    </TTGlyph>
    <TTGlyph name="exclam" xMin="225" yMin="0" xMax="457" yMax="622">
      <contour>
        <pt x="357" y="212" on="1"/>
        <pt x="351" y="191" on="0"/>
        <pt x="333" y="184" on="0"/>
        <pt x="316" y="184" on="1"/>
        <pt x="311" y="184" on="0"/>
        <pt x="297" y="185" on="0"/>
        <pt x="285" y="190" on="0"/>
        <pt x="276" y="202" on="0"/>
        <pt x="276" y="212" on="1"/>
        <pt x="276" y="214" on="0"/>
        <pt x="279" y="229" on="0"/>
        <pt x="280" y="231" on="1"/>
        <pt x="355" y="572" on="1"/>
        <pt x="359" y="590" on="0"/>
        <pt x="377" y="611" on="0"/>
        <pt x="395" y="620" on="0"/>
        <pt x="410" y="622" on="0"/>
        <pt x="411" y="622" on="1"/>
        <pt x="434" y="622" on="0"/>
        <pt x="457" y="593" on="0"/>
        <pt x="457" y="578" on="1"/>
        <pt x="457" y="573" on="0"/>
        <pt x="453" y="557" on="1"/>
      </contour>
      <contour>
        <pt x="326" y="55" on="1"/>
        <pt x="326" y="32" on="0"/>
        <pt x="290" y="0" on="0"/>
        <pt x="270" y="0" on="1"/>
        <pt x="253" y="0" on="0"/>
        <pt x="225" y="22" on="0"/>
        <pt x="225" y="45" on="1"/>
        <pt x="225" y="68" on="0"/>
        <pt x="260" y="100" on="0"/>
        <pt x="281" y="100" on="1"/>
        <pt x="297" y="100" on="0"/>
        <pt x="326" y="78" on="0"/>
      </contour>
    </TTGlyph>
    <TTGlyph name="exclamdown" xMin="166" yMin="-233" xMax="398" yMax="389">
      <contour>
        <pt x="398" y="344" on="1"/>
        <pt x="398" y="322" on="0"/>
        <pt x="365" y="289" on="0"/>
        <pt x="342" y="289" on="1"/>
        <pt x="323" y="289" on="0"/>
        <pt x="297" y="315" on="0"/>
        <pt x="297" y="334" on="1"/>
        <pt x="297" y="354" on="0"/>
        <pt x="330" y="389" on="0"/>
        <pt x="353" y="389" on="1"/>
        <pt x="367" y="389" on="0"/>
        <pt x="398" y="368" on="0"/>
      </contour>
      <contour>
        <pt x="266" y="176" on="1"/>
        <pt x="272" y="197" on="0"/>
        <pt x="289" y="205" on="0"/>
        <pt x="307" y="205" on="1"/>
        <pt x="313" y="205" on="0"/>
        <pt x="327" y="204" on="0"/>
        <pt x="339" y="199" on="0"/>
        <pt x="347" y="188" on="0"/>
        <pt x="347" y="177" on="1"/>
        <pt x="347" y="175" on="0"/>
        <pt x="344" y="159" on="0"/>
        <pt x="343" y="157" on="1"/>
        <pt x="268" y="-184" on="1"/>
        <pt x="265" y="-200" on="0"/>
        <pt x="250" y="-219" on="0"/>
        <pt x="233" y="-230" on="0"/>
        <pt x="217" y="-233" on="0"/>
        <pt x="212" y="-233" on="1"/>
        <pt x="189" y="-233" on="0"/>
        <pt x="166" y="-203" on="0"/>
        <pt x="166" y="-188" on="1"/>
        <pt x="166" y="-182" on="0"/>
        <pt x="168" y="-172" on="0"/>
        <pt x="170" y="-167" on="1"/>
      </contour>
    </TTGlyph>
    <TTGlyph name="f" xMin="45" yMin="-228" xMax="571" yMax="617">
      <contour>
        <pt x="314" y="12" on="1"/>
        <pt x="308" y="-22" on="0"/>
        <pt x="292" y="-89" on="0"/>
        <pt x="280" y="-121" on="1"/>
        <pt x="276" y="-132" on="0"/>
        <pt x="257" y="-168" on="0"/>
        <pt x="225" y="-203" on="0"/>
        <pt x="182" y="-228" on="0"/>
        <pt x="154" y="-228" on="1"/>
        <pt x="105" y="-228" on="0"/>
        <pt x="45" y="-189" on="0"/>
        <pt x="45" y="-155" on="1"/>
        <pt x="45" y="-133" on="0"/>
        <pt x="73" y="-100" on="0"/>
        <pt x="95" y="-100" on="1"/>
        <pt x="108" y="-100" on="0"/>
        <pt x="136" y="-117" on="0"/>
        <pt x="136" y="-140" on="1"/>
        <pt x="136" y="-151" on="0"/>
        <pt x="133" y="-159" on="0"/>
        <pt x="130" y="-164" on="1"/>
        <pt x="136" y="-166" on="0"/>
        <pt x="146" y="-167" on="0"/>
        <pt x="155" y="-167" on="1"/>
        <pt x="173" y="-167" on="0"/>
        <pt x="202" y="-133" on="0"/>
        <pt x="224" y="-75" on="0"/>
        <pt x="243" y="2" on="0"/>
        <pt x="250" y="45" on="1"/>
        <pt x="307" y="370" on="1"/>
        <pt x="249" y="370" on="1"/>
        <pt x="244" y="370" on="0"/>
        <pt x="230" y="371" on="0"/>
        <pt x="218" y="376" on="0"/>
        <pt x="209" y="388" on="0"/>
        <pt x="209" y="398" on="1"/>
        <pt x="209" y="410" on="0"/>
        <pt x="218" y="424" on="0"/>
        <pt x="230" y="430" on="0"/>
        <pt x="244" y="431" on="0"/>
        <pt x="250" y="431" on="1"/>
        <pt x="317" y="431" on="1"/>
        <pt x="321" y="453" on="0"/>
        <pt x="324" y="471" on="0"/>
        <pt x="326" y="480" on="0"/>
        <pt x="327" y="489" on="0"/>
        <pt x="330" y="501" on="1"/>
        <pt x="333" y="519" on="0"/>
        <pt x="344" y="560" on="0"/>
        <pt x="370" y="594" on="0"/>
        <pt x="416" y="617" on="0"/>
        <pt x="455" y="617" on="1"/>
        <pt x="517" y="617" on="0"/>
        <pt x="571" y="574" on="0"/>
        <pt x="571" y="544" on="1"/>
        <pt x="571" y="518" on="0"/>
        <pt x="541" y="489" on="0"/>
        <pt x="521" y="489" on="1"/>
        <pt x="504" y="489" on="0"/>
        <pt x="480" y="512" on="0"/>
        <pt x="480" y="529" on="1"/>
        <pt x="480" y="539" on="0"/>
        <pt x="484" y="548" on="0"/>
        <pt x="484" y="551" on="1"/>
        <pt x="484" y="553" on="0"/>
        <pt x="475" y="554" on="0"/>
        <pt x="465" y="556" on="0"/>
        <pt x="455" y="556" on="0"/>
        <pt x="453" y="556" on="1"/>
        <pt x="438" y="556" on="0"/>
        <pt x="421" y="550" on="0"/>
        <pt x="410" y="539" on="0"/>
        <pt x="405" y="523" on="0"/>
        <pt x="403" y="513" on="1"/>
        <pt x="400" y="503" on="0"/>
        <pt x="391" y="452" on="0"/>
        <pt x="387" y="431" on="1"/>
        <pt x="465" y="431" on="1"/>
        <pt x="470" y="431" on="0"/>
        <pt x="484" y="430" on="0"/>
        <pt x="497" y="425" on="0"/>
        <pt x="506" y="414" on="0"/>
        <pt x="506" y="403" on="1"/>
        <pt x="506" y="391" on="0"/>
        <pt x="497" y="377" on="0"/>
        <pt x="483" y="371" on="0"/>
        <pt x="469" y="370" on="0"/>
        <pt x="464" y="370" on="1"/>
        <pt x="377" y="370" on="1"/>
      </contour>
    </TTGlyph>
    <TTGlyph name="five" xMin="85" yMin="-11" xMax="584" yMax="611">
      <contour>
        <pt x="249" y="364" on="1"/>
        <pt x="281" y="378" on="0"/>
        <pt x="343" y="389" on="0"/>
        <pt x="368" y="389" on="1"/>
        <pt x="406" y="389" on="0"/>
        <pt x="465" y="363" on="0"/>
        <pt x="505" y="320" on="0"/>
        <pt x="526" y="263" on="0"/>
        <pt x="526" y="232" on="1"/>
        <pt x="526" y="183" on="0"/>
        <pt x="480" y="94" on="0"/>
        <pt x="403" y="28" on="0"/>
        <pt x="305" y="-11" on="0"/>
        <pt x="253" y="-11" on="1"/>
        <pt x="217" y="-11" on="0"/>
        <pt x="155" y="8" on="0"/>
        <pt x="110" y="42" on="0"/>
        <pt x="85" y="90" on="0"/>
        <pt x="85" y="119" on="1"/>
        <pt x="85" y="149" on="0"/>
        <pt x="110" y="190" on="0"/>
        <pt x="137" y="190" on="1"/>
        <pt x="154" y="190" on="0"/>
        <pt x="178" y="168" on="0"/>
        <pt x="178" y="150" on="1"/>
        <pt x="178" y="124" on="0"/>
        <pt x="155" y="109" on="1"/>
        <pt x="160" y="88" on="0"/>
        <pt x="188" y="64" on="0"/>
        <pt x="219" y="53" on="0"/>
        <pt x="248" y="50" on="0"/>
        <pt x="254" y="50" on="1"/>
        <pt x="291" y="50" on="0"/>
        <pt x="363" y="79" on="0"/>
        <pt x="421" y="129" on="0"/>
        <pt x="457" y="196" on="0"/>
        <pt x="457" y="233" on="1"/>
        <pt x="457" y="249" on="0"/>
        <pt x="448" y="282" on="0"/>
        <pt x="427" y="310" on="0"/>
        <pt x="392" y="328" on="0"/>
        <pt x="366" y="328" on="1"/>
        <pt x="334" y="328" on="0"/>
        <pt x="285" y="315" on="0"/>
        <pt x="249" y="298" on="0"/>
        <pt x="227" y="280" on="0"/>
        <pt x="221" y="275" on="1"/>
        <pt x="213" y="268" on="0"/>
        <pt x="204" y="263" on="0"/>
        <pt x="193" y="263" on="1"/>
        <pt x="173" y="263" on="0"/>
        <pt x="161" y="283" on="0"/>
        <pt x="161" y="291" on="1"/>
        <pt x="161" y="294" on="0"/>
        <pt x="162" y="300" on="0"/>
        <pt x="165" y="311" on="1"/>
        <pt x="232" y="581" on="1"/>
        <pt x="237" y="604" on="0"/>
        <pt x="258" y="611" on="0"/>
        <pt x="274" y="611" on="1"/>
        <pt x="543" y="611" on="1"/>
        <pt x="548" y="611" on="0"/>
        <pt x="562" y="610" on="0"/>
        <pt x="575" y="605" on="0"/>
        <pt x="584" y="594" on="0"/>
        <pt x="584" y="583" on="1"/>
        <pt x="584" y="571" on="0"/>
        <pt x="575" y="557" on="0"/>
        <pt x="562" y="551" on="0"/>
        <pt x="548" y="550" on="0"/>
        <pt x="542" y="550" on="1"/>
        <pt x="295" y="550" on="1"/>
      </contour>
    </TTGlyph>
    <TTGlyph name="four" xMin="23" yMin="-222" xMax="514" yMax="622">
      <contour>
        <pt x="311" y="-14" on="1"/>
        <pt x="297" y="-9" on="0"/>
        <pt x="254" y="4" on="0"/>
        <pt x="237" y="8" on="1"/>
        <pt x="223" y="12" on="0"/>
        <pt x="203" y="16" on="0"/>
        <pt x="186" y="18" on="0"/>
        <pt x="169" y="18" on="0"/>
        <pt x="158" y="18" on="1"/>
        <pt x="137" y="18" on="0"/>
        <pt x="87" y="16" on="0"/>
        <pt x="74" y="8" on="1"/>
        <pt x="68" y="4" on="0"/>
        <pt x="60" y="0" on="0"/>
        <pt x="54" y="0" on="1"/>
        <pt x="40" y="0" on="0"/>
        <pt x="23" y="21" on="0"/>
        <pt x="23" y="31" on="1"/>
        <pt x="23" y="45" on="0"/>
        <pt x="41" y="60" on="0"/>
        <pt x="41" y="61" on="1"/>
        <pt x="54" y="68" on="0"/>
        <pt x="104" y="102" on="0"/>
        <pt x="168" y="159" on="0"/>
        <pt x="242" y="243" on="0"/>
        <pt x="314" y="357" on="0"/>
        <pt x="380" y="503" on="0"/>
        <pt x="404" y="594" on="1"/>
        <pt x="408" y="605" on="0"/>
        <pt x="427" y="622" on="0"/>
        <pt x="440" y="622" on="1"/>
        <pt x="453" y="622" on="0"/>
        <pt x="473" y="604" on="0"/>
        <pt x="473" y="589" on="1"/>
        <pt x="473" y="588" on="0"/>
        <pt x="460" y="532" on="0"/>
        <pt x="427" y="439" on="0"/>
        <pt x="368" y="317" on="0"/>
        <pt x="323" y="251" on="1"/>
        <pt x="280" y="188" on="0"/>
        <pt x="196" y="103" on="0"/>
        <pt x="170" y="79" on="1"/>
        <pt x="181" y="79" on="0"/>
        <pt x="219" y="76" on="0"/>
        <pt x="252" y="68" on="1"/>
        <pt x="264" y="65" on="0"/>
        <pt x="268" y="64" on="0"/>
        <pt x="275" y="61" on="0"/>
        <pt x="297" y="55" on="0"/>
        <pt x="327" y="46" on="1"/>
        <pt x="331" y="62" on="0"/>
        <pt x="335" y="81" on="0"/>
        <pt x="340" y="101" on="0"/>
        <pt x="346" y="126" on="0"/>
        <pt x="352" y="148" on="1"/>
        <pt x="357" y="169" on="0"/>
        <pt x="365" y="196" on="0"/>
        <pt x="374" y="212" on="0"/>
        <pt x="388" y="219" on="0"/>
        <pt x="398" y="219" on="1"/>
        <pt x="414" y="219" on="0"/>
        <pt x="431" y="200" on="0"/>
        <pt x="431" y="187" on="1"/>
        <pt x="431" y="184" on="0"/>
        <pt x="427" y="166" on="0"/>
        <pt x="421" y="143" on="0"/>
        <pt x="415" y="117" on="0"/>
        <pt x="413" y="107" on="1"/>
        <pt x="411" y="98" on="0"/>
        <pt x="405" y="74" on="0"/>
        <pt x="399" y="52" on="0"/>
        <pt x="395" y="36" on="0"/>
        <pt x="395" y="35" on="1"/>
        <pt x="395" y="33" on="0"/>
        <pt x="399" y="31" on="0"/>
        <pt x="409" y="31" on="1"/>
        <pt x="437" y="31" on="0"/>
        <pt x="465" y="42" on="1"/>
        <pt x="475" y="47" on="0"/>
        <pt x="483" y="47" on="1"/>
        <pt x="497" y="47" on="0"/>
        <pt x="514" y="27" on="0"/>
        <pt x="514" y="16" on="1"/>
        <pt x="514" y="1" on="0"/>
        <pt x="483" y="-17" on="0"/>
        <pt x="444" y="-27" on="0"/>
        <pt x="410" y="-30" on="0"/>
        <pt x="406" y="-30" on="1"/>
        <pt x="395" y="-30" on="0"/>
        <pt x="384" y="-29" on="0"/>
        <pt x="379" y="-28" on="1"/>
        <pt x="339" y="-188" on="1"/>
        <pt x="330" y="-222" on="0"/>
        <pt x="302" y="-222" on="1"/>
        <pt x="289" y="-222" on="0"/>
        <pt x="269" y="-204" on="0"/>
        <pt x="269" y="-189" on="1"/>
        <pt x="269" y="-187" on="0"/>
        <pt x="270" y="-180" on="0"/>
        <pt x="273" y="-169" on="1"/>
      </contour>
    </TTGlyph>
    <TTGlyph name="g" xMin="68" yMin="-228" xMax="532" yMax="437">
      <contour>
        <pt x="417" y="-78" on="1"/>
        <pt x="412" y="-98" on="0"/>
        <pt x="384" y="-149" on="0"/>
        <pt x="332" y="-196" on="0"/>
        <pt x="254" y="-228" on="0"/>
        <pt x="199" y="-228" on="1"/>
        <pt x="183" y="-228" on="0"/>
        <pt x="137" y="-226" on="0"/>
        <pt x="97" y="-214" on="0"/>
        <pt x="68" y="-188" on="0"/>
        <pt x="68" y="-164" on="1"/>
        <pt x="68" y="-141" on="0"/>
        <pt x="98" y="-111" on="0"/>
        <pt x="118" y="-111" on="1"/>
        <pt x="137" y="-111" on="0"/>
        <pt x="159" y="-136" on="0"/>
        <pt x="159" y="-151" on="1"/>
        <pt x="159" y="-157" on="0"/>
        <pt x="158" y="-163" on="0"/>
        <pt x="157" y="-165" on="1"/>
        <pt x="170" y="-167" on="0"/>
        <pt x="189" y="-167" on="0"/>
        <pt x="201" y="-167" on="1"/>
        <pt x="242" y="-167" on="0"/>
        <pt x="296" y="-142" on="0"/>
        <pt x="329" y="-110" on="0"/>
        <pt x="345" y="-81" on="0"/>
        <pt x="346" y="-76" on="1"/>
        <pt x="346" y="-75" on="0"/>
        <pt x="348" y="-69" on="0"/>
        <pt x="353" y="-48" on="0"/>
        <pt x="364" y="-3" on="0"/>
        <pt x="374" y="37" on="1"/>
        <pt x="322" y="0" on="0"/>
        <pt x="270" y="0" on="1"/>
        <pt x="243" y="0" on="0"/>
        <pt x="194" y="22" on="0"/>
        <pt x="158" y="62" on="0"/>
        <pt x="137" y="122" on="0"/>
        <pt x="137" y="159" on="1"/>
        <pt x="137" y="211" on="0"/>
        <pt x="176" y="311" on="0"/>
        <pt x="240" y="389" on="0"/>
        <pt x="322" y="437" on="0"/>
        <pt x="365" y="437" on="1"/>
        <pt x="383" y="437" on="0"/>
        <pt x="438" y="420" on="0"/>
        <pt x="462" y="390" on="1"/>
        <pt x="465" y="404" on="0"/>
        <pt x="485" y="422" on="0"/>
        <pt x="499" y="422" on="1"/>
        <pt x="512" y="422" on="0"/>
        <pt x="532" y="404" on="0"/>
        <pt x="532" y="389" on="1"/>
        <pt x="532" y="387" on="0"/>
        <pt x="531" y="380" on="0"/>
        <pt x="528" y="369" on="1"/>
      </contour>
      <contour>
        <pt x="271" y="61" on="1"/>
        <pt x="298" y="61" on="0"/>
        <pt x="354" y="100" on="0"/>
        <pt x="400" y="162" on="0"/>
        <pt x="429" y="240" on="0"/>
        <pt x="429" y="280" on="1"/>
        <pt x="429" y="295" on="0"/>
        <pt x="422" y="329" on="0"/>
        <pt x="407" y="357" on="0"/>
        <pt x="382" y="376" on="0"/>
        <pt x="363" y="376" on="1"/>
        <pt x="336" y="376" on="0"/>
        <pt x="281" y="338" on="0"/>
        <pt x="235" y="277" on="0"/>
        <pt x="206" y="198" on="0"/>
        <pt x="206" y="157" on="1"/>
        <pt x="206" y="119" on="0"/>
        <pt x="238" y="61" on="0"/>
      </contour>
    </TTGlyph>
</ttFont>
